<mxfile host="app.diagrams.net" agent="Mozilla/5.0 (Macintosh; Intel Mac OS X 10_15_7) AppleWebKit/605.1.15 (KHTML, like Gecko) Version/18.5 Safari/605.1.15" version="27.2.0">
  <diagram name="PÃ¡gina-1" id="9-e4o1si2sdPM6HNQ3HN">
    <mxGraphModel dx="1368" dy="396" grid="1" gridSize="10" guides="1" tooltips="1" connect="1" arrows="0" fold="1" page="1" pageScale="1" pageWidth="827" pageHeight="1169" background="none" math="0" shadow="0">
      <root>
        <mxCell id="0" />
        <mxCell id="1" parent="0" />
        <mxCell id="x97okhzxq58m8EEzVJWr-23" value="" style="edgeStyle=orthogonalEdgeStyle;rounded=0;orthogonalLoop=1;jettySize=auto;html=1;" parent="1" source="RZYDAGDR_G7YQ371wjqy-2" target="x97okhzxq58m8EEzVJWr-22" edge="1">
          <mxGeometry relative="1" as="geometry">
            <Array as="points">
              <mxPoint x="-250" y="200" />
              <mxPoint x="-250" y="200" />
            </Array>
          </mxGeometry>
        </mxCell>
        <mxCell id="x97okhzxq58m8EEzVJWr-28" style="edgeStyle=orthogonalEdgeStyle;rounded=0;orthogonalLoop=1;jettySize=auto;html=1;exitX=-0.003;exitY=0.596;exitDx=0;exitDy=0;exitPerimeter=0;" parent="1" edge="1">
          <mxGeometry relative="1" as="geometry">
            <mxPoint x="-300.2400000000001" y="280" as="sourcePoint" />
            <mxPoint x="-500" y="280.32000000000005" as="targetPoint" />
            <Array as="points">
              <mxPoint x="-400" y="280.25" />
            </Array>
          </mxGeometry>
        </mxCell>
        <mxCell id="x97okhzxq58m8EEzVJWr-19" value="" style="group" parent="1" vertex="1" connectable="0">
          <mxGeometry x="-660" y="232.5" width="160" height="80" as="geometry" />
        </mxCell>
        <mxCell id="RZYDAGDR_G7YQ371wjqy-1" value="" style="rounded=1;whiteSpace=wrap;html=1;" parent="x97okhzxq58m8EEzVJWr-19" vertex="1">
          <mxGeometry width="160" height="80" as="geometry" />
        </mxCell>
        <mxCell id="x97okhzxq58m8EEzVJWr-6" value="" style="group" parent="x97okhzxq58m8EEzVJWr-19" vertex="1" connectable="0">
          <mxGeometry x="20" y="12" width="128" height="20" as="geometry" />
        </mxCell>
        <mxCell id="x97okhzxq58m8EEzVJWr-5" value="" style="shape=image;imageAspect=0;aspect=fixed;verticalLabelPosition=bottom;verticalAlign=top;image=data:image/png,iVBORw0KGgoAAAANSUhEUgAAAgAAAAIACAMAAADDpiTIAAAAA3NCSVQICAjb4U/gAAAACXBIWXMAAAuUAAALlAF37bb0AAAAGXRFWHRTb2Z0d2FyZQB3d3cuaW5rc2NhcGUub3Jnm+48GgAAAu5QTFRF////AAAAAAAAAAAAAAAAAAAAAAAAAAAAAAAAAAAAAAAAAAAAAAAAAAAAAAAAAAAAAAAAAAAAAAAAAAAAAAAAAAAAAAAAAAAAAAAAAAAAAAAAAAAAAAAAAAAAAAAAAAAAAAAAAAAAAAAAAAAAAAAAAAAAAAAAAAAAAAAAAAAAAAAAAAAAAAAAAAAAAAAAAAAAAAAAAAAAAAAAAAAAAAAAAAAAAAAAAAAAAAAAAAAAAAAAAAAAAAAAAAAAAAAAAAAAAAAAAAAAAAAAAAAAAAAAAAAAAAAAAAAAAAAAAAAAAAAAAAAAAAAAAAAAAAAAAAAAAAAAAAAAAAAAAAAAAAAAAAAAAAAAAAAAAAAAAAAAAAAAAAAAAAAAAAAAAAAAAAAAAAAAAAAAAAAAAAAAAAAAAAAAAAAAAAAAAAAAAAAAAAAAAAAAAAAAAAAAAAAAAAAAAAAAAAAAAAAAAAAAAAAAAAAAAAAAAAAAAAAAAAAAAAAAAAAAAAAAAAAAAAAAAAAAAAAAAAAAAAAAAAAAAAAAAAAAAAAAAAAAAAAAAAAAAAAAAAAAAAAAAAAAAAAAAAAAAAAAAAAAAAAAAAAAAAAAAAAAAAAAAAAAAAAAAAAAAAAAAAAAAAAAAAAAAAAAAAAAAAAAAAAAAAAAAAAAAAAAAAAAAAAAAAAAAAAAAAAAAAAAAAAAAAAAAAAAAAAAAAAAAAAAAAAAAAAAAAAAAAAAAAAAAAAAAAAAAAAAAAAAAAAAAAAAAAAAAAAAAAAAAAAAAAAAAAAAAAAAAAAAAAAAAAAAAAAAAAAAAAAAAAAAAAAAAAAAAAAAAAAAAAAAAAAAAAAAAAAAAAAAAAAAAAAAAAAAAAAAAAAAAAAAAAAAAAAAAAAAAAAAAAAAAAAAAAAAAAAAAAAAAAAAAAAAAAAAAAAAAAAAAAAAAAAAAAAAAAAAAAAAAAAAAAAAAAAAAAAAAAAAAAAAAAAAAAAAAAAAAAAAAAAAAAAAAAAAAAAAUtinDgAAAPl0Uk5TAAECAwQFBgcICQoLDA0ODxAREhMUFRYXGBkaGxwdHh8gISIkJSYnKCkqKywtLi8wMTIzNDU2Nzg5Ojs8PT4/QEFCQ0RFRkdISUpLTE1OT1BSU1RVVldYWVpbXF1eX2BhYmNkZWZnaGlqa2xtbm9xcnN0dXZ4eXp7fH1+f4CBgoOEhYaHiImKi42Oj5CRkpOUlZaXmJmam5ydnp+goaKjpKWmp6ipqqusra6vsLKztLW2t7i5uru8vb6/wMHCw8TFxsfIycrLzM3Oz9DR0tPU1dbX2Nna29zd3t/g4eLj5OXm5+jp6uvs7e7v8PHy8/T19vf4+fr7/P3+Zv0bpAAAFGVJREFUGBntwXtgz/X+B/Dn97vYBds0aUMLx1py7yLqtCLHp4uQSqXkbim5tKLUr8idFHXIqWgpUaEO5XpqSMjcynJbrSFzmctms+35389xHGdbaJ/v5/P9fj+f9/v1eACaiW7ZsVtyyquTZ85dnLZ5T05BQc6ezWmL586c/GpKcreOLaMhFFUpseOz73xzgH/iwDfvPNsxsRKEOiKS+k1Y9HMRTSj6edGEfkkREG5X+a8vrSqgjwpWvfTXyhBu5b0hZfFJWnRyccoNXgjXue7pz47QJkc+e/o6CBdpOXUfbbZvaksIV7j6hR30ix0vXA3hcJE9V5bQb0pW9oyEcKyQu+bk0c/y5twVAuFEjSfsY0Dsm9AYwmlaL2IALWoN4SRtlzPAlreFcAhPh7UMgrUdPBDB530onUGS/pAXIrgq9chgEGX0qAQRPCH9Mxlkmf1DIILk5o10gI03QwRDzIwSOkLJjBiIQPP0yaFj5PTxQARU87V0lLXNIQIn6o0iOkzRG1EQAfLYfjrQ/scgAqHuKjrUqroQftfpCB3rSCcI/6o0iY42qRKEH129lg639moIv7nvMB3v8H0Q/lFpAl1hQiUIP4hfQ5dYEw9huw6H6BqHOkDYbFQJXaRkFISdLnuPLvPeZRC2iVhE11kUAWGTy1fThVZfDmGLq7bRlbZdBWGDhr/SpX5tCGFZq0N0rUOtICy65yRd7OQ9EJZ0P01XO90dwoJkul4yhM8eLKbrFT8I4aO2BVRAQVsIn1x/jEo4dj2EDxocoCIONIAwLW43lbE7DsKkqHQqJD0KwpSwVVTKqjAIE0I+o2I+C4GouBlUzgyIChtEBQ2CqKCbCqmgwpsgKiR6D5W0JxqiIj6loj6FqICnqaynIf7U9QVUVsH1EH8ichcVtisS4tLmUmlzIS7pSSruSYhLaHaKijvVDOKiIjKovIwIiIsZQw2MgbiIawupgcJrIS5sObWwHOKCHqEmHoG4gMh91MS+SIg/mkJtTIH4g2ZF1EZRM4hyPGuokTUeiLJ6Uyu9IcqIyaFWcmIgSptBzcyAKOWaYmqm+BqI/3mf2nkf4rx6p6md0/Ug/uttauhtiHNqF1BDBbUh/mMStTQJ4qwrTlJLJ6+A+LfR1NRoiDOij1FTx6IhgBHU1ggIVD1EbR2qCpFCjaVAe5691NheD3SXRK0lQXczqbWZ0Fx4LrWWGw69daXmukJvX1JzX0JrsUXUXFEsdDaY2hsMnW2i9jZBY40p2Bj6Gk/B8dBWSDYFs0OgqzspzrgTuhpPccZ46Go9xRnroanoYooziqOhp44UZ3WEnl6nOOt16GkzxVmboaUrSijOKrkCOnqA4pwHoKO3KM55CzraQXHODmioFsV5taCfbhTndYN+3qE47x3oZz3Feeuhn2MU5x2DdmpRlFILurmDopQ7oJtkilKSoZvJFKVMhm7+SVHKP6Gb3RSl7IZmwoopSikOg14aU5TRGHrpQlFGF+hlOEUZw6GX2RRlzIZeVlOUsRp62UZRxjboJZOijEzo5TBFGYehl0KKMgqhlVCKckKhkxoU5dSATupSlFMXOmlMUU5j6KQVRTmtoJO/UZTzN+ikM0U5naGT7hTldIdOBlCUMwA6GUpRzlDoZABFOQOgk8cpynkcOulMUU5n6KQdRTntoJNWFOW0gk4aUZTTCDqpS1HO1dBJDEU5MdBJZYpyKkMrhRRlFEIvhyjKOAS9ZFKUkQm9bKUoYyv0kkZRRhr08j5FGe9DL8MoyhgGvdxPUcb90EsjijIaQS+hxRSlFIdCM7soStkF3XxJUcqX0M0kilImQTf9KErpB93cTlHK7dBNHEUpcdBOLsV5udDPOorz1kE/MyjOmwH9PEJx3iPQTxzFeXHQ0HaKc7ZDR1MpzpkKHd1Pcc790FFMCcVZJTHQ0iaKszZBT5MozpoEPXWgOKsD9BRVRHFGURQ0tY7ijHXQ1ViKM8ZCV20ozmgDXXmzKJjlhbbGUHAM9HUdBa+DxjZQexugs2eovWegs5qnqbnTNaG1hdTcQujtQWruQegt7Ci1djQMmptOrU2H7m6l1m6F7jy7qLFdHmhvMC0o2h90RbRgMETEQfquKB5BFl9E3x2MgMAwWjAeQTaeFgyDACKP0HdHqiCoqhyh745EQpzxCi14CkH1FC14BeLfLj9O32V4EESeDPru+OUQZ42jBR0QRB1owTiI/7gyj75bhiBaRt/lXQlxzhRacCuC5lZaMAXiv+oU0HeZ0QiS6Ez6rqAOxHnTacE8BMk8WjAd4n/qn6YFfREUfWnB6foQpUyhBXkNEQQN82jBFIjSovbRgi1hCLiwLbRgXxREGd1oxTQE3DRa0Q2inJW0oh8CrB+tWAlRXsNCWpGCgEqhFYUNIf5gHC0ZjQAaTUvGQfxR1V9pydteBIj3bVrya1WIC+hCa+ZUQkBUmkNrukBc0BJa80U4AiD8C1qzBOLCGpyiNd/Gw+/iv6U1pxpAXMQrtCi3D/ysTy4tegXiYsK306ol8fCj+CW0ans4xEU1yqNVuX3gN31yaVVeI4hL6E3rlsTDL+KX0LreEJf0Aa3L7RcC24X0y6V1H0BcWtUdtMGufqGwVWi/XbTBjqoQf6JpPu2QPbQqbFN1aDbtkN8U4k/1oz0O/18MbBHzf4dpj34QFfARbXJiYm1YVnviCdrkI4iKiPyZdilY8EQMLIh5YkEB7fJzJESFND9F+xQte6oOfFLnqWVFtM+p5hAVNIC2KvnuuQSYlPDcdyW01QCICnuTdts2uUeLUFRIaIsek7fRbm9CVJz3Y/rB6a2pKe1jcQmx7VNSt56mH3zshTCh8lL6y+9fTx05tM8D7W5KqBmKM0JrJtzU7oE+Q0dO/fp3+svSyhCmVFvPAMjfty+fAbC+GoRJNTOojIyaEKbVy6YisutB+KDJUSrhaBMIn9yWTwXk3wbho05FdL2iThA+61VClyvpBWFB1wK6WkFXCEvaHaeLHW8HYdENv9O1fr8BwrIGu+lSuxtA2CBuE11pUxyELaJW0oVWRkHYJHQ+XWd+KIRtvG/TZd72QtjpxWK6SPGLEDZrd4CucaAdhO3iVtAlVsRB+EHIK8V0geJXQiD84879dLz9d0L4TexyOtzyWAg/8r5cTAcrftkL4V9t99Ox9reF8LvYBXSoBbEQgXDfXjrQ3vsgAiTitQI6TMFrERCBk7iMjrIsESKwHs6mY2Q/DBFwka8X0RGKXo+ECIZma+gAa5pBBInniZ8ZZD8/4YEInpCHtzCItjwcAhFcno7rGCTrOnogHKDdSgbBynYQTnHLlwywL2+BcJIW80oYMCXzWkA4TcKoTAZE5qgECCfy3PHuMfrZsXfv8EA4VsQji4voN0WLH4mAcLi4oen0i/ShcRCu0HTCXtps74SmEC5Sv1dqNm2SndqrPoT7JD45L4cW5cx7MhHCtTxNBy3MpY9yFw5q6oFwu5CmD7304YbjNOH4hg9feqhpCIRC6rR98vUle0t4SSV7l7z+ZNs6EKoKb9K+S4+Bw8dMnfX5snU/ZuXmZv24btnns6aOGT6wR5f2TcIhhBBCCCGEEEIIIYQQwm889e4eMum5x26vDIVVvv2x5yYNubueB+J/LkvsPDx140n+x28pUVBUVMpv/I+TG1OHd068DNrzNB08b3shyzo22AsFeQcfY1mF2+cNbuaBthL6f3KQF5SWAOUkpPGCDn7SPwH6uar7+7/y4vIGe6EU7+A8Xtyv73e/CvrwJE3L4J9JS4BCEtL4ZzKmJXmgg4avZbIi8gZ7oQjv4DxWROZrDaG42EEbWGFpCVBCQhorbMOgWCirSrfFRTQjb7AXrucdnEczihZ3qwIV3Tz7BE1LS4DLJaTRtBOzb4ZqjJX0Sf5r1eBi1V7Lp09WGlBISNcf6LP9fbxwKW+f/fTZD11DoIaw/rtoSXpbuFLbdFqyq38Y3C/q+f20bEECXCdhAS3b/3wU3K36mFzaoXBydbhK9cmFtEPumOpwr5DkHNrl0MBKcI1KAw/RLjnJIXCppHTa6ad74RL3/kQ7pSfBjeLn0m5rO3ngeJ5Oa2m3ufFwm/CX8+gHP/asDEer3PNH+kHey+FwlQcz6SdZQ6rBsaoNyaKfZD4I92i4in50ZGRNOFLNkUfoR6sawiUG5NG/8qfVh+PUn5ZP/8obADeo+QX9r2hOMzhKszlF9L8vasLx7jnAwFjdNwoOEdV3NQPjwD1wtvCpDJy81HZeBJ23XWoeA2dqOBys2XYG1i+jGiCoGoz6hYG1vRmcyjO0gIH3be9IBElk728ZeAVDPXCkGksZHCdnt/Ug4DxtZ59kcCytAQdK3MngyZ7ZuRoCqFrnmdkMnp2JcJw2RxhchcsGJyIgEgcvK2RwHWkDh+lVSAfY9YYRBr8KM97YRQco7AUn8YylU5xcmBwPP4lPXniSTjHWA8eImE9H2fnR0KRqsFW1pCEf7aSjzI+AQ8R9T+cp/nH2wNYRsEFE64Gzfyym83wfB0do8gudqmjzP5JvDIXPQm9M/sfmIjrVL03gAK2P0dmKs9I+HN3/roZVUGFVGt7Vf/SHaVnFdLZjrRF0LY/RLXLWz5/4TKfWzRrUiq6EP6gUXatBs9adnpk4f30O3eJYSwTZDUfpSoVHf8vYlPbV56mpn3+Vtinjt6OFdKWjNyComh+mCKrDzRFETXIogiynCYLmuoMUQff7dQiSaw9QOMCBaxEUCdkUjpCdgCCol0XhEFn1EHDVtlI4xtZqCDDvQgoHWehFYI2lcJSxCKjHKBzmMQRQy1MUDnOqJQKmzj4Kx9lXBwESvoHCgTaEIzA+pnCkjxEQL1I41IsIgFuKKRyq+Bb4XZWdFI61swr87S0KB3sLftaewtHaw6+qZ1E4WlZ1+NMHFA73AfyoC4XjdYHfXHmQwvEOXgl/WUDhAgvgJ90pXKE7/KLqfgpX2F8V/jCSwiVGwg/q5FG4RF4d2G8WhWvMgu1alFC4RkkL2G0FhYusgM06UrhKR9jqsh0UrrLjMtjpaQqXeRo2isqhcJmcKNjnRQrXeRG2Cd1P4Tr7Q2GXnhQu1BN22UrhQlthk/YUrtQe9viKwpW+gi0aU7hUY9jhXQqXehc2iC2gcKmCWFg3ksK1RsKyiBwK18qJgFWPUrjYo7BqIYWLLYRF0QUULlYQDWt6UrhaT1izhMLVlsCSGqcpXO10DVjRn8Ll+sOKFRQutwIWxBVTuFxxHHw3kML1BsJ3qylcbzV8VquEwvVKasFXXSkU0BW+mkahgGnw1RYKBWyBjy4voVBAyeXwTQcKJXSAb8ZRKGEcfLOGQglr4JOIQgolFEbAF20oFNEGvniJQhEvwRdLKRSxFL44TqGI4/BBLQpl1IJ5t1Eo4zaY14tCGb1g3mgKZYyGefMolDEP5qVTKCMd5p2gUMYJmFaLQiG1YNZtFAq5DWb1olBIL5g1mkIho2HWXAqFzIVZX1Eo5CuYtYZCIWtg1hYKhWyBWXsoFLIHZh2kUMhBmJVPoZB8mBRCoZQQmBNFoZQomFObQim1Yc41FEq5BuZcT6GU62FOEoVSkmBOewqltIc5BoVSDJhjUCjFgDkGhVIMmGNQKMWAOQaFUgyYY1AoxYA5BoVSDJhjUCjFgDkGhVIMmGNQKMWAOQaFUgyYY1AoxYA5BoVSDJhjUCjFgDkGhVIMmGNQKMWAOQaFUgyYY1AoxYA5BoVSDJhjUCjFgDkGhVIMmGNQKMWAOQaFUgyYY1AoxYA5BoVSDJhjUCjFgDkGhVIMmGNQKMWAOQaFUgyYY1AoxYA5BoVSDJhjUCjFgDkGhVIMmGNQKMWAOQaFUgyYY1AoxYA5BoVSDJhjUCjFgDkGhVIMmGNQKMWAOQaFUgyYY1AoxYA5BoVSDJhjUCjFgDltKJTSBubEUyglHuZ4jlMo5LgHJq2jUMg6mPUehULeg1mDKBQyCGbFnKBQxokYmDaRQhkTYV6tAgpFFNSCD/5OoYi/wxf18yiUkFcfPnmghEIBJQ/ARyMoFDACPptD4Xpz4LuwNRQutyYMFoSOLaZwseKxobCm1Q4K19rRCpaFT8incKX8CeGwQ8yQDArXyRgSA7t42n5SSOEihZ+09cBWscMzKVwic3gs7Oe9d1ExheMVL7rXCz+Jf/Z7Ckf7/tl4+FX95zZSONTG5+ojAP4ybBOF42wa9hcETMILmykcZPMLCQiwxBFbKRxh64hEBEXDoV+fogiqU18PbYggCjcmbqMIkm0TjXAEX+0eH+VQBFjORz1qwzG8Nw7/12mKADn9r+E3euE01TpO3UnhdzundqwGp6rf/5NfKPzml0/614fTxXUavfw4hc2OLx/dKQ5u4W3Ua3p6EYUtitKn92rkhetUSUqZn0VhSdb8lKQqcLHanceuPE7hg+Mrx3auDRWENO49I72AosIK0mf0bhwCpYQkdHp+1vcnKC7pxPeznu+UEAJVeeLbD5r+zSGKPzj0zfRB7eM90ELNpOQpX2dRnJX19ZTkpJrQT2TLJ8Yt3FlMbRXvXDjuiZaR0FtY066vpK7adYoaObVrVeorXZuGQZznqdnivgGjZ6/YmU9l5e9cMXv0gPta1PRAXFyNZh2SR81anpFHReRlLJ81KrlDsxoQpsQ0vaffyPeW/nSSrnTyp6Xvjex3T9MYCIuqN76777Dx78xbtmH34WI6WPHh3RuWzXtn/LC+dzeuDuEPnqi6ze/o3HPIq2+mfrF6+758BlX+vu2rv0h989UhPTvf0bxulAci0MLirm1996MDXpgw89PlP+w5WkK/Kjm654fln86c8MKAR+9ufW1cGITDeKNj6yY2bZnUvuNDj/cdmDJi1ISpM1PnLVq66tvV363fmL51+46duzOzsg/kHM49kVdQVFJSVJB3IvdwzoHsrMzdO3ds35q+cf13q79dtXTRvNSZUyeMGpEysO/jD3Vsn9SyaWLd2GgvFPP/Ttgm6Tbn2NMAAAAASUVORK5CYII=;" parent="x97okhzxq58m8EEzVJWr-6" vertex="1">
          <mxGeometry x="108" width="20" height="20" as="geometry" />
        </mxCell>
        <mxCell id="x97okhzxq58m8EEzVJWr-18" value="" style="group" parent="x97okhzxq58m8EEzVJWr-19" vertex="1" connectable="0">
          <mxGeometry x="47" y="57.5" width="50" height="20" as="geometry" />
        </mxCell>
        <mxCell id="RZYDAGDR_G7YQ371wjqy-6" value="UI" style="text;strokeColor=none;align=center;fillColor=none;html=1;verticalAlign=middle;whiteSpace=wrap;rounded=0;" parent="x97okhzxq58m8EEzVJWr-18" vertex="1">
          <mxGeometry width="50" height="20" as="geometry" />
        </mxCell>
        <mxCell id="x97okhzxq58m8EEzVJWr-14" value="" style="shape=image;imageAspect=0;aspect=fixed;verticalLabelPosition=bottom;verticalAlign=top;image=data:image/png,iVBORw0KGgoAAAANSUhEUgAAAlkAAAFICAYAAABjmuvkAAAXnklEQVR42u3dv25b6Z3GcV+CLsGXQMCibFGyfYayZySOBPAOojswy4VXkZRisEiAwEo5RaAJFlsE2IGcIlhMxhkixRYpBgK22GKKFZBiizQsUmwxBZeHkkd/SEmkeP685z2fL/BFsMBmsZAtnsfnefTTo0cAAAAAgHrxbZIkf07ax98lG2d/TjYGI4ep3yWvTkf/efwh2ej6KgEAAMzIKFjtXg1V93iW/u/7qgEAANzCSZIsjULTyYzh6qbH/dF/31cRAADgRsD6cF4DDh9qWiMKWgAAAFdI30QtErAug9ZG31cTAABgRD/ZeJNFwLq03fNVBQAAteY/kuTxHCP3WR2k/3d9dQEAQG1J672MA5baEAAA1Jvsa0K1IQAAqDk51YRqQwAAUG/yqgnVhgAAoLbkXxNe99ukfeirDgAAoqagmnDCPyWvG776AAAgWoqqCaddg/fVBwAAUdJPXh2UEbDUhgAAIFouasJh2aoNAQBAVIwCzlkIIUttCAAAoqHsmlBtCAAAoiOUmlBtCAAAoiKUmlBtCAAAoiG0mlBtCAAAKk+oNeFk0EoSf1oAAKAyhFoTTvGsnyRL/sQAAEDwhF4TTvrqnT81AAAQNFWpCdWGAACgUlSoJlQbAgCAalC9mlBtCAAAAqeqNaHaEAAABE2Fa0K1IQAACJPq14RqQwAAEBix1IRqQwAAEBQR1YRqQwAAEAbx1YRqQwAAUDKx1oRqQwAAUCoR14RqQwAAUA7x14RqQwAAUDB1qQnVhgAAoFBqVBOqDQEAQDHUryZUGwIAgJypa02oNgQAALlxkiRLNa4J1YYAACAf+kn7nXClNgQAABmS1mNCldoQAABkiJpQbQgAAHJATag2BAAAGaMmVBsCAICMUROqDQEAQA6oCdWGAAAgY9SEakMAAJAxF1fd1YRqQwD3cPDs2eMH/ReHnc7u8PPP+6P/PBv953Dk4OJ/3h36EAGiZRQUjoUltSGASXqNZGl/pXXw8+Zaf+Two3vNtdP9p6tv/qlxT+gahajGKEydXgSruzwebm4+9iUHYgpY7V0haXE/JBtdf5uACMPV8trgaria4tnek+fduwLWYIaAdWmncyBsAdVHTZipA7UhUKtwdc39lbWfXQ9Yo6A0Ck1ncwWsS8/SsOWPA6jyWyw1Ycae+FsF1CtcXXHwttlqXIastP57WMC6GbZ2/fEAVQtYakK1IYCUnzdbuyPPHhiurtq/+hZrmKHCFlAR1IRqQwCPHu0tP0syClc/eR6ydna6GYcsYQuozFssNaHaEKh7uLr+04LZhqxO5zCnkPXR/nBzM/FHCYQWsNSEakNAuMrLokKWsw9AYKgJ1YZAHUlvWeUdrm6GrN2CQpawBQTzFktNqDYEaheujosIV9dDVvbDd2ELCDpgqQnVhkA9yOAcw2Ihaxy00t1UOUEr9Z2wBRSDmrDc2jD9+vtbCMQdrsaurJ1dDVm9EkOWg6ZAYW+x1IRl+l2y0fe3EIg4XP1ka/cyZHW7S3P/Sh1nH4CKBSw1YRi2e/42AtkzPiRaerg69+DZjV8WPQo3RwGELGELyAE1odoQiJW9lefdrA+JLujxxP+Tw+3tJKCQJWwBmb7FUhOqDYHIwlUBt64e4t6T1ek/5FLyAP7usOWgKfDAgKUmVBsCwlXhg/cpIasXaMg6t9M58ZOIwOyoCdWGgHBVnPsrrcPbQ1Y4A3g3toBM3mKpCdWGQLUp45BoZoP3iaC1tfVVBUKWsAXcG7DUhGpDoLqk5xgOmmvvqhCuLrz/H02BDuCFLWAO1IRqQ6DK4SqMW1cL3Ma6M2h9/vlpBYPW+KCpsAWoCdWGgHAVzOB9ImR1OocVDFnOPgCP1IRqQ6B67DdX31QyXN11G+vWkHU+gB9WXGELtUNNqDYEqsT4SntYh0TzGbxPBK1wb2YJW8Ctb7HUhGpDIHyqcI4h08H7RMiq5gDeQVPUOGCpCdWGgHAV7OB9ytusQWRBazh+Q2ccj8hQE6oNAeGqFAfpYP9hIavaA3hnH1Ab0ppJOFEbAqExPiS63DqJMFzNP3ifCFlxDOCFLURNP9l4I5ioDYGQqOAh0Yf9Mujl9WShL1REA3hhC9FxURMOBBK1IRBKuKrsras8b2PdGrLiG8Df5cBBU1QJNaHaEBCuKjZ4n/I2a1CjoOXsAyqBmlBtCAhXFbqNdWvIinsAL2yhcqgJ1YZA2cRySLTwwfuUkNWoacgSthAkakK1IVAW5+cYahuushm8TwSt+gzghS0EjZpQbQiUF66ivHVV/OB9SsjqCVlXDpq+ft3wLQc1IdWGEK7qZkaD92sh6/xm1kDAcvYB5eGqu9rQdwGKYnxIVLjKb/A+EbQ6nSPBSthCWTXhqwNBg2pDFBSujgWqaVVh631uX/ia3cwSthBaTShgUG2I3KjzOYaZB+9PVru5/iEYwM+gg6ZQE1JtCOHK4P0BIcsAfvafRDzw7Qs1IdWGEK7cxpotZBnAO/sANSGD8E+Jn3LGwxgfEhWuwhi8TwQtA3hhC2pCBlAbvjr1XYJ5cEj0wRZX0RvAC1tQEzIMv03ah75bMFu4co4hqNtYdwYtA/jFD5pubia+9aEmpNoQwlXNB+9TKsNDQcnZB6gJqTaEcGXwnnXIMoAXtqAmpNoQQeGQaPa+bTbLeVM83N4+EY6ELagJqTZEuaTnGA6aa++EooyPjzbXyntLbACfq++ELTUhqTbEfeHKrauIBu8TQUtl6KAp1IRUG0K4chsrh5BlAO/sA9SEVBuiMPabq2+Eq0gH7xMh63wALwgJW1ATMhzP+kmy5DsrLsZX2h0SLW6PtbyeBPEH72aWsAU1IUPz1TvfXXHgHENNbmPdGrIM4MsLWw6aqgnJW/dZic8H4YpVHLxPeZtlAF+Wnc6Jn0RUE5JqQ+GKkQzeJ0KWAbwbW1ATUm2IBzM+JLrcOhFyDN4nQ5YBvLAFNSHVhpgbh0QN3metDA3ghS2oCak2xIzhyq0rg/fZQ9bOTlewCfOgqbClJqTa0HefcMW7Hf25HIYbsvzSaGcfoCak2hDClcF7TkGr0zkSaIQtqAmpNsQlDolWwn7wf5HczBK2oCak2hDnpOcY9pprpwKM21jZBS0DeAdNcY20pvFwp9qwXuHKrSuD97xCVk94qZx94/h8OEmSJTUh1YbCFd3GyiZkGcA7+4ArNWH7nYc61YZxMz4kKlwZvBcWtAzghS2oCak2rEe4OhZUDN6LDVkG8MKWmlBNSLVhpDjHYPAewjbLAD4OBw6aqgmpNoRwFaGD9M+0qiHLAD62n0Tc2ur5mFUTUm0oXNHg3QCebmypCUm14UKMD4kKV1H6ttlsVPov53B7+0QoEbbUhKTasGqcn2Nwpd1tLAN4CltB8CHZ6HpYU20YQ7hyjsHgvTrbrFNBpDYHTWv7IX3xy5/VhFQbCld0G6vAkNXpHAogzj7EzugBdewhTbWhcEWD9zIG8MKHsBVxwGrvejhTbVgtHBKtr3vL63H9HXczS9hSE5JqwxD46RyDsGHwHk3IMoBnpAdN1YRUG1YsXDnHYPAeI25m8eInEQ/UhKTaULiiwbsBPJ19UBNSbVhR9purb4QrXlaFrffRjgwN4BlT2FITUm0YLuMr7Q6J8ubg/clqN+qf5jCAZwxhS01ItWGYOMfAWg3eDeA5p6ehHzRVE7KGDkKvDYUr1uo2lgE8Yz37oCZkTT0RrmjwbgBPYUtNSOZg+rs5Q/leHB8SXW6dCA+c0f6jujAKWQ3hgVULW2pCsvzaMD3HcNBceyc00G0sA3hGFLbUhGR5taFbVzR4ny9k9QQGLnLQdFjgv6jVhGQ5taFwRYP3h9/MMoBn8Gcf1IRk8bWhcEWD98W3WUeCAkMPW2pCstja0CFRZnZ8tLl2+qiuuJnF0MOWmpAsrjZMzzGkD0XhgAbvBvAMOWxlcNBUTUjeXxum3yduXTFU09q57iHLAJ552V/kJxHVhOT9fpds9IUrGrwbwNPZBzUhmYvt3tyHRIUr5r3HWl5PHsEAnmGFLTUhmU9teBGujgUAuo1lAM+ahi01IZltbegcAw3ey99mnXr4s/CDpjfClpqQzK42FK7oNlY4laFfGs1Szz6oCclsakPhigbvBvDktbB19vqzvockuZjfvNw4Fa5o8O5mFjnh/3U6w/9+9amHJbmAX66+8LCnwbsBPHl72Pq+/doDk3zQ26z28IuVdQ98Fu7+SutQmrr7bZbKkME42Nwa/ucnrzw4yTn9+vknHvo0eDeAJ+/3fz/bFLZItSHDti9FzTaA92CnsEWqDUm3sQzgKWyRVBvS4N0AnszEHzud4f+8/kzYItWGdBvLAJ7M6ycRf3D2gVQb0uDdAJ50Y4tUG9Lg3QDew5vCFqk2JA3eDeBJYYtUG7JAB9LSQ0PWzk7Xw5oxHDR1PZ5UG9Lg3S+NJp19INWGrIRvm82GtLTYAP7IA5rCFqk2JK+611w7lZLczCKFLVJtSIN3A3iyaB00pdqQdBurzJDV8zBm7D+JmIYtD16qDUmDdwN40tkHUm3IcvZYy+uJdGQATwpbpNqQfhm0ATwpbJFl1YbPBwIEDd4N4EkHTcmM/cOLtvBAg3cDeNLZBzIPf9t6KUTwnqqw9V4aMoAnhS3yAf7yqZ825B2D9yerXWko323WiYcsKWxRbUiDdxjAk7n7t08dNKXakG5jIZtzDmcerOT0g6Z/EbaoNqTBOxYIWYceqqSzD1Qbsjb2pZ9iB/AeqKSwRbUh3caCm1mksEXO66+eOlJq8G7wbgBPViBsOWjKqvnHl+3hL/wSaYN3lPI2y80sck7/7uwDK+bv1tSGBu8wgCfd2CJz8dfPngscBu8wgCeFLVJtSIN3A3iSwhbVhgzTQa+RLEk6BvBkVAdNhS2qDWnwDr80mnT2gWpDxvjLoJfXEynHAJ4Utki1Id3GijZkNTwQSWGLakMavMMAnnTQlFQb0m2syoSsnocgWYyDzS3jeKoNafBuAE/S2QeqDWnwjkW3WUcefKSwRbUhDd7hZhYpbJFqQ164v9I6lGYM4Ene4o8OmlJtSIN3A3iSzj5QbUi/DBoG8KSwRaoN3caCATxJYYtqQxq8G8CTFLaoNqTbWJh5m3XqgUaGfdD0r8bxVBvS4L2SlaFfGk06+0C1IQ3eYQBPClvCFtWGBu9wM4uksEW1IQ3eDeBJVk8HTak2NHhH+G+zVIZkhX8SMQ1bwgLVhnH6ttlsSCoG8CSdfWBF/df1ZCDQhOdec+1USoljAO9BRQpbrLG/WX0h2Bi8wwCepLDFrP1Gbeg2FgzgSc530PT79mshgjP5+/VEuDF4hwE8SWcfqDaMeI+1vJ5IJgbwJIUtqg3pNhbuDFmbm489hEhhi1QbGrzDAJ7kgv7tUwdNqTY0eEcxIWtnp+vBQzpoSqoNy6oKW++lkbhvZhnAk84+kMN/f/6JI6VFD96frHalkbgH8EceOKSwJWQw9Uu1ocE73MwiKWwxn9rwC7VhQb9Gp3UkhRjAk6xZ2HLQtN5+/fwTIcjgHRmGrJ6HC8mb1+P9JKLakLnZlz4M4Em6sSVsqQ3pNhYM4EkKW1QbGrzDAJ6ksEW1oV8GDQN4krx50FTYUhvS4B0G8CSdfaDa0OAdBvAkhS2qDQ3eEeM268RDg6SwRbVh5g56jWRJ0jCA98Ag6aAp1YYG78hhm6UyJOmgKdWGWf4aneX1RMJAejPr0AOCpLMPVBu6jYV8BvAeDiSFLaoNDd7hZhZJYYtqQ7exYABPkg6aqg0N3mEAT5J5/iTiD84+qA0N3mEAT5JubFFtaPAOA3iSwhbVhiX6z8urPWkCBvAkhS2qDQ3eUWjI2tnp+sAnWeZBU9fj1YbVrApb76UIzFIZGsCTdPaBakO3sWAAT1LYotrQ4B3VCFkNH+4khS2qDd3GggE8SQdNWVpt+Hxg8G7wjvlCVs8HOslQfxIxDVtCThj+4UW77m+x+lIDDOBJOvvAXPxt66XBOzDnNuvIBzlJYYuz+Mun6wbvwMwhyy+NJilsUW1o8A4DeJJM/ceWg6Zqw2J822w2JAUYwJN09oFqwwzda66dSgkwgCcpbAlbakODdxjAk6SwpTZ0GwsG8CQpbHGqv3oa9ZFSg3dkus069eFMMraDpn8RtnLzjy/bw19E+kuk95bXE8kAWVaGfmk0SWcfOJe/W3vpNhYw4wDehzJJYYtz+etnzw3egRkqQzezSApbrHVtaPAOA3iSXDBsOWiqNjR4R9Fvs9zMIlkbB5tbfhJRbXg5eH+y2pUEYABPks4+qA0N3mEAT5LCltowbPdXWodSAAzgSVLYUhsavMMAniSrfdBU2KpFbdj39IcBPEk6+6A2dBsLBvAkKWypDQ3egZshq+FDlSSFrRrUhm5jwQCeJEMLW//1ykHTqteGBu8oJ2Tt7HR9kJKkg6YR14YG7ygpZJ3fzDKAJ0lnHyKtDQ3eUe4268iHJ0kKWxHWhoNeI1nypEd5IcvNLJIUtuKsDQ3eYQBPklXWQdMwa8O95fXEEx4hhKyeD0qSXOwnEX9w9iGc2tBtLBjAk6QbW2pDg3cYwJMkha1K1IZuY8EAniSFLbWhwTsM4EmSixw0/b79Wm1o8A4DeJKksw8VrA0N3mEAT5LCVh3C1r+tJwbvwJVt1okPQJIUtrLyN6svDN4BA3iSdNA0a78pqjZcab33FEcVtlkqQ5Is4ScR07AVY9D6fQG14d6T1a4nOMIPWZ3OoQ88knT2oTK1ocE7KjaA92FHksJWVWpDt7FQqcrQzSySFLYqURsavMMAniT5YP+xFcdB0xxqw76nNgzgSZIL+/eKn33IvjZ0GwsG8CRJN7bGfv38E4N3GMD7ICNJYSsPv8ymNjR4hwE8SVLYulkbfrFgbfi22Wx4UqO6IWtnp+vDiySrddC0KmFrkdpwr7l26imNGCpDA3iSdPYhsNrQ4B0G8CRJYSvz2rDXSJY8oVH9kOVmFkkKW2HVhgbvMIAnSYYVtkI9aDpPbbi3vJ54MiOmkNXzAUWScTjY3ApuHD9zbeg2FgzgSZLOPuRRGxq8I84B/JEPJZIUtsqsDf0yaBjAkySFrexrQ4N3GMCTJKvpjwEcNL2tNjR4hwE8SdLZh6xrQ4N3GMCTJIWt7GvD/ZXWoacw4g9aW1tf+eAhSWGryNrQ4B0G8CRJYSv72rDv6Ys6bbNOfdiQZL0Pmv61gHF8Whv+yzO3sVCnkOWXRpMkCzn70DZ4hwE8SVLYyjpk9ZPEFgu1rAydcyBJ5ha2vk3ah562qHPQcpyUJDnh4gdN1YSwzWqoDUmSt/0kYhq2HhCwBmpCQG1Iksz87EN719MV+Bi0trePfJCQJBcNW3ZYwPQ3Wi7BkyQfHLY+JBtHnqaAoEWSzOCg6fft1x8D1leeosD91aFDpSTJOX4ScVPAAozhSZIZ2/PUBOYNWpubj0ffPGc+QEiSUzwbbm8nnpbA4m+1hC2S5LmdztEwSZY8IYHs3moZxZNkve17ewXkG7a82SLJenk67HR2PQWBogLX6F8zF2+3BC6SjM/0V64de3MFhBG4esPzXzjtdyGSZFWD1fb2SfrWyuYKCDV0pb94emenO/rPw/G/hM7/NXQyDmGdjjdfJFn8W6nTi8/h459MP6PTQJV+Xne7jz29gFiC2OgbevwGLP3mTt+CXQay/vjDwBsxkrw/PJ3/w7V/EZqOLj5Pd8efr4ITgHvfigljJIWna+FJnQeg+DdjqekH0flr8KOfakqBjGQYwemytvtY153bEJ4AxBrIrr4hsx0jOctRzrOLf8BdvnG6unMSnABgzlD2sba8/qZMMCOrHpiuVnQf3zR9rOmEJgAIKJhd3ZNNvjG7/tZMQCOzreRuhqWr1dz5P5gEJgCodUC7rDRvD2nn15jPbM4YRUC6fJt0e0hK/+HycQAuKAEACg9qt4W1y7rz8OKnlm6Gtsu3a96w8a5q7fpbo/6UG0yXddvVcPTxLZITAwAA3AhvV3dqk2/cbga5m2FuMtRNC3dC3mwhZ3rYmQw914fZkwHoagi6EYSEIQAA6hz6pnn1TV5I3ggwU1WBAXgg/w8GIQ134xnF5QAAAABJRU5ErkJggqEPPJJ09qEytaHBOyo2gPdhR5LCVlVqQ7exUKnK0M0skhS2KlEbGrzD;" parent="x97okhzxq58m8EEzVJWr-18" vertex="1">
          <mxGeometry x="33" y="6.5" width="16" height="8.77" as="geometry" />
        </mxCell>
        <mxCell id="x97okhzxq58m8EEzVJWr-62" value="Response" style="rounded=1;whiteSpace=wrap;html=1;" parent="x97okhzxq58m8EEzVJWr-19" vertex="1">
          <mxGeometry x="48" y="37.5" width="100" height="20" as="geometry" />
        </mxCell>
        <mxCell id="x97okhzxq58m8EEzVJWr-64" value="" style="shape=image;imageAspect=0;aspect=fixed;verticalLabelPosition=bottom;verticalAlign=top;image=data:image/png,iVBORw0KGgoAAAANSUhEUgAAAgAAAAIACAYAAAD0eNT6AAAACXBIWXMAAAsTAAALEwEAmpwYAAAAAXNSR0IArs4c6QAAAARnQU1BAACxjwv8YQUAAC5dSURBVHgB7d1NjJzHfefxfz1P91AWSWe4cRitEVhN5JTLcmZDZnXYhXpIOvFNQ1u2qBOHx5xIwkAAryNwCK2kYC/i3BZIAA4PhvwimqObV6Y4TcRYCCIdtk7JZaG2DvZa8oJjckaU5unnqVQ1Z2i+zSu7nqp6nu8HoGdE2xLVT0/Xv/71qyoRAAAAAAAAAAAAAAAAAAAAAAAAAAAAAAAAAAAAAAAAAAAAAAAAAAAAAAAAAAAAAAAAAAAAAAAAAAAAAAAAAAAAAAAAAAAAAAAAAAAAAAAAAAAAAAAAAAAAAAAAAAAAAAAAAAAAAAAAAAAAAAAAAAAAAAAAAAAAAAAAAAAAAAAAAAAAAAAAAAAAAAAAAAAAAAAAAAAAAAAAAAAAAAAAAAAAAAAAAAAAAAAAAAAAAAAAAAAAAAAAAAAAAAAAAAAAAAAAANgmJUDk2m/caaU6G9NaRs1buiWSPGt/XyndEvN7WtnfN7S2//2oOKKTz6S/85eSf+nfJB/5WIrm7wa/h6gsaPPLfmM+HHty95sFJaqnC/l9IUUvkaSnUrVw7Ts/6QoQMQoARGFyWo8uPb3UyrNiLFHJfi2qpUWPmQG+JZ4Vjd/J8h/9b8m+/AsG/PqxRcCCUqprCtBfmfdj9/rLb3cEiAAFAIJkZ/VJkbVF0ueVGejNrGxMAmMH+y/2XJLl0XcFeEhX2eJA66uSpl26BQgRBQCCMBjwdT4pWu03c+pJl636YbCz/s+++sagzQ9sxC4nmKWorir0O6mMdN5/+Yc9ATyjAIA3R9643TYD/guF6fCH0MrfrGLHx/LZn84w+ONJdM2yQUcX8g5LBvCFAgClujfoaz0V+iz/cZj5Y9hWwoYdrdUFigGUiQIAztlBv5DkeSmKUzEO+vdb/Np3GfzhzGoxkOrmWZYJ4BoFAJywqf1bI0tT5g32gtbSlgr4/I9/QOAPZeoqrWd2PlXMdY7OLQgwZBQAGKpvvHGntSzF8SrM9u9nW/+Lz35XgLLRFYArFAAYCtvmN2uYZ6oy23/Ynb3/KNnuXwjgk/nAniUrgGGhAMATqfrAb9n9/rf3/a0AAeloJTO/fOninADbRAGAbanDwL8q2/3PpgPwTwKExi4PKCWnP6AQwDZQAGBL6jTwr6L9jwh0Grp5gowAtoICAJtiw32Zzs/XaeBftfRnr0i+42MBQmczAoQFsVkUAFjXYDvfjs9OVi3VvxV2/Z9LfhAVpaf7I8VMl+2DWEciwBoOv7o0eWtk6YYUerqug7/F4I/oaDXd/CK9cfCtb04JsAY6AHhEndv9j3Prz48LECuWBbAWOgB4wOF/+OzkctG/weD/B6p4WoBYaZGpvspuHPjhN08JcB86ABhg1r82QoCoEHYL4B46AJDDr985zqx/bcny1wSoiHausnmyAbDoANTYyoU9Z0yPkNbgOjgICFWklD6XjRRn2SlQXxQANTW4tEfn82bwbwnWZXcB2IuA2A2AqrEnCaa6OcGSQD2xBFBDqy1/Bv/NsSHA5q3/KkDVaJEWAcH6ogComUOvL76pdT5b53392zHy+78RoKLMZ4F688CPvnlGUCssAdSEXe+/PbJ0iaDf9n3+lR/I8h+9K0BlKZnrj+QnyAXUAwVADbDePxw2A2C3BBbN3wlQVeQC6oMlgIr7+muLYwz+w2GzAE//+nuSZF8RoKpsLsBuFXzurWMtQaVRAFSYvbo3F83gP0RJ/yvy9G9PUgSg0lbDgX/5o29NCiqLAqCibNK/KNQ8Yb/hS774Gp0A1MGo0nLpr370LS7DqKhUUDn2PH9dFP9L4Mxga+Dt/2aqgUzyp/6vAFVlugGTX33xL37/67f/9X1BpVAAVMyhN5bOSKH/QeCc0k1pfPafBoWATj+TgvsCUFnqG1/99l+IKQKuCiqDAqBCVgb/aUGpBt2Apb8cnBWQZl8d/PVge43pDojKBKgG1aYIqBa2AVbEoO2fF+ekzpT0zH90Tc9yQaT4lWle9lQhC3mS9CRJB/uaO9/7Uk+ANawm3/vSH3wtpGglkrSU0s9qUeb39JgMDs6pM336+rGf1vuzpiIoACrABv7unu5XI3aw16pj+vAfFlo6ku3sdaYVh5fAufalydHFzxtj5j04prQe00rtXykMaiNRMvXBSxcvCKJGARC5w68uTepEX5KqGwz4+h3zQdstst1zDPYIyXNvTbayJB1LCpk079Xn7TY6qTqtJq6//HZHEC0KgIgNTvizl/pUdKufUtLRub5aJGqu8/1dXQEicfDH3x7ThW6bb49XuDuwoJJk4tp3fsLPZqQoACJV3eN99YJZeJ0pGo1Z1utRBbY7kKvU3rb3QtU6AxwbHDcKgAjZi31ujSxV6jpfO9tXuT57+ZXdHQEq6sBbL7aV6CmtpDKH69giINuRj3OBUHwoACJ0+PXbl7RWFTiic2W2n+86x5o+6mTQFZB02hQCL0g1dhV0rh+7OCGICgVAZKqx15+BH7BsIdCXxpRS+njsywPm3+HctZd+eloQDQqAiMS/15+BH3ic1UJAlD4jEWN7YFwoACIRe+JfFXomz3dNM/ADa7tvaSDWjMBCQzfHCQXGgQIgAjGH/gj3AVu3snNgPsZlAUKB8eA64AiYwf9MfIO/afdrOf3ef981weAPbM37L8/1rh27uM8Mp6ftgCoRsUVLczmJeimjLugABO7Qa4tT5st5iYid9ZvZywn28QNPLtZlAfIA4aMACFh8h/3YWb86e+Xvd3FRCDBkB3744inzM/amxIM8QOBYAghYpvPzEbX+e0XSGGfwB9y4fuztcw2d74toSWC0r7Koupd1QwEQqMGWPy1tiYBN+BfZznFa/oBbNhtgA3ZmnX1G4tA+8MNvnhIEiSWAAEW15U/LaWb9QPkOvPXidCTnBrAUECg6AAHKivxM+IO/XkgKPcHgD/hx/eW3p+2VvObb0LfbsRQQKDoAgYkk9W/W+9MJWv6Af7GcGaCVHP3lSxfnBMGgAAhIJAf+MPgDgYmhCOCAoPCwBBCQWzs+Oxny4G9+gLsM/kB4bDgw1bldDuhKoGxx0vi8QSAwIHQAAnE3+Jd/JIGyg3+e7ZzgLH8gXGOXJkcbX6Tz9lsJE4HAgNABCMTd4F+YGPyBONj2en9H0J0AAoEBoQMQgMBn/6z5A5EJPhOg1cT1l9/uCLyiAxCAwYl/YWLwByK0mgkI9tTAOM4vqDw6AJ4dfv3WpNbJJQmOXrBH+zL4A/GynYC+Sm+Yb8M7V4QugHd0ADzTkgR5uUdSyFEGfyButhNgBtqjEiK6AN5RAHh0+NVbk0Fu+yv02cuv7O4IgOjdnWWr0xKe9oG3XmwLvKEA8ClNTkpg7MU+V17ZPS0AKsPeJBjkBUJ0AbyiAPDkyBu32wHe9tfL813TAqBy8h35dIChQLoAHlEAeKILdVwCM0j8s9cfqCR7RsDKaYFh/YzTBfCGAsADu+/ftOOmJCRaThP6A6ptEAoUdVbC0n7urWMtQekoADwI8NS/Wa71BerB5gHMl44EpC/9KUHpKABK1p6+OapVUGv/9rCf0GYEABxq6PyEhLQUoPRJe4+BoFQUACVLms2wtv5pmaH1D9RLgEsBo40vGlOCUlEAlEyJhLT1r0frH6in8JYC9AuCUlEAlGgl/BfMNZ029S8A6ksH1QVgS2DJKABKFFj4b5bWP1Bv9pTAwA4IagtKQwFQopDCfwT/AFj2gCAJJRCodHCno1YZBUBJ7Ml/wYT/Cn2W2T8Ayx4QZGYnoXQBRlkGKA8FQEkCOvmvVzQaswIAK/pP9W0gMIgugFZ6UlAKCoCSBNP+L/QFZv8A7hdSF0CJBHdMelVRAJQgoPb/ArN/AI8TUBeAZYCSUACUoCgklJbWHLN/AI8TUheAZYByUACUQIl6XgJA8h/Aela6AN6ZgYlDgUpAAeBYQIf/sO8fwLoGXYAATgc0n5ktbgh0jwLAseUib0sAkkJfEADYSCCnA/ZVn2UAxygAHFMqiPOte5df2d0RANiAPR1QAggDKtH7BU5RADimRXlv/5sfpHcEADYrgDCgWQagA+AYBYBDX39tcSyE7X950uDGPwCb1pD+rPg3Sg7ALQoAh/IAwn9KpEv4D8BWvP/yXE8CCAPmEkaGqqooABwyg6/37X9aCeE/AFun1VXxTRVBbKGuKgoAt7x3AIqG/yoeQHxUqubEvxC2UFcWBYBDAez/73X+bldXAGCLrn3nJ13zGdYTj+xn6NilyVGBExQAjgzO//evIwCwfd53EDWzZkvgBAWAI4UOYPufUmz/A7BtWmv/HcScZQBXGgI3tG4NYoAe5Sqh/f8Y7TfutBKdT4pW+0XptnlWpsWoVtqMekGJ6pnqqadFXx1R6dzP2EURNZ739hVPFXPJF+l58ahQBQWAI35HqAo7/PrivNbSFk/s9r/3vr9rXHDPodcWp5SS41t9Lva1NGuRM1e+v2tWEA2e93D85Q+/9ZF5TVrizzvXj13kUCAH6AC4osVrcMV8gDH7X2HzGGZJ5rw9lMkMBlu2EuY8bwaUM+brWQaGsPG8hyvRclUrfwWAKT44EtgRCgBHvO8AUPKh1NzktB69NbJ0pijklAxHy/w6f+T1xf27lrOzc9N7vJ+Xjj/gebuhlTKTCX1cPNF+uw+VRgjQgcERwJ4leQDhHY/sNcy3m0vz5tNjWIPBPYX5e95qNm/Yf4YgCDxvd1SiOuIZRwK7QQHggE60932ru/J+bQsA+0G9rPN5x12Y1nKRz1ME+MfzditrZj3xrEgygoAOUAA4UBR2B4BXC3VtV9o2sB0MSrqEqZUV+aXJ6ZscVOIJz9u97tG5Be8HAhUJP2MOUAA4oVrikVL1DQDaNeAyb2C0s87FkeYZgRc873Ioz1uKtXifVFUSBYAbfncAaNWTGrLbvlysAW/ErhEfeTWIkx9rheddHlUUvxePlNLPCoaOAsABMwP3/GYtfiV1pMTbzKxIlNfDUmqJ510aLfWcVFQdBYATyvN6Vf1+WFdmgy3xpzX4M6AUPO9yFVL0xCNTgLQEQ0cBUEFJoXtSM0rkpHhmT50TlILnXS6VKK+hYiX+d1ZVEQWAAxxcUS67NSuAq5fFHjnbZlugczzv8iUq6YlfFAAOUABUUL/R6EmNLNuLXgKRBPRnqSqed/nSPOPUywqiAHBBU62WybQHn5dQ2Bvn4BTPu340HQAnKADc8Ppm7dTtOlOtWhIM3Ra4xfMu3fsvz/XELwoABygAEL3AMhd8UDnG8waGgwIAVRDShzADgns8b2AIKAAAAKghCgBUQUgJZdLS7vG8gSGgAED8VDgfwsrzrWm1wPMGhoICwA2vH1B1O4xGS3FVAlGIruc9DCXieZfvubcmW+IXnRYHKABcCGiGUgdK/F5Vej+lVEfgFM+7fhQFgBMUAFWU5rVKJhcqnZNAhPRnqSqed/n60mgJKocCwAGl/VaraV+1pEbswUdKSUc8M7OUbu0OYfKA510/XEfsBgWAC56XALSu381ZWssF8UyLzAhKwfMuVyFFS1A5FAAOmB8Wz8Eg3ZKaufL9XbOm8OqJP73BnwGl4HmXK5GkJV7p3wuGjgKgkpJnpYaSXJ8Qf84KSsXzLo/yPKnQbLd0ggLAAaX9rldpKfZIDV1+ZXdHCl16W1aZfyaz//LxvMujlXidVJjPVHYBOEAB4ITuiUdK6ntFaZH3p204S8rTy/Nd0wIveN6lGROPFCFAJygAHFCF9z2rrcnpm7W8pKQzvWchT9KjJa0P94oknehMMzvxheft3tilSftZ4vXzRHueVFUVBYADeaPp/aCShaebLakpuzWrUOmEy0HBzjoHgwHbwLzjebvV+LzhdfZvqZQi2wUKAAdC+JBI+tKWGhsMCsvZuIs1YrsGnGc7GfwDwvN2SIn3AuDad34SzOmPVdIQuGFnI1pa4ouubw5glW0Pmy+nDr222DXP48wQnkcvKfSJQfgMweF5u6FE79fiT8kZj1qhAHDE/NB0taiWeKPbgoGVxPasGRimzIfJSb3FQJM9dc4ePEPSPw487+Eyn2Njg414/v75tP8dUQInDr12+5x5eU+KR1/Osj1zd2dFuI+9LTHR+aR5Ps8rrVt6sMdZrYSc9IIZARZMB6UjSn9oz3qn1R83nvf22VsA+yr9SDyyJy7+8tjFU4KhowPgjO76rq9uNZvmQ09mBQ9Y+YA/t/ILFcfz3r4sSceUz/6/sAXQJUKAjqQBXFlqliG8h3cAxCvR8oL4pskAuEIB4EiWZT3xzKyd+f/hBRCztnh2/eW3OwInKAAcsYnkANKrrfb/XKQLAGDLDv7422Om+98Sj9gB4BYFgEOFKj4Uz5JMTwoAbJEugthJRAHgEAWAQ0pLRzxTSj0vALB1x8U3ra8KnKEAcKhImh3xTGtp221QAgCbZLf/SQgh4jSlA+AQBYBDK9uPvO/DT4r+lADAJmUq9b7vXon0OALYLQoAx7Qq3hHv/B5IBCAuZmDwvoNIi3jPUFUdBYBjKoDzAIzRI6/ebgsAbODAWy+2faf/LaX1nMApCgDH7NGiEgCdqjMCABtQSvsP/4k9TG2kI3CKuwBKcOj1xY+83gy4grsBAKwnhLP/Lbv//9qxi+MCp+gAlEHrAHIA9m6ABhdqAFhTrtIgOoWFCNv/SkABUIKkkEDWstTJyembowIAD7Gzf7P2H8TBYUor1v9LQAFQgsuv7O5IANsBjVG6AAAep58kdu3f+wTBbv/j/P9yUACURl+QINAFAPAgO/s3s+4pCUNHUAoKgJKEswxAFwDAg+zsP4Stf5bWKpDJUvWxC6BEh15bvCkBtNiMhS9n2T52BAAIJflvDU7/O3Zxn6AUdABKpWckDKOLI03OBQAQTPJ/RUdQGgqAEpllgI4EotByitMBgXpbSf5PSSBS3TwrKA0FQInsbgClwikCOB0QqDcz+5+XQNjDf95/+Yc9QWkoAEpmqu0gDgWy7FXBh15fJBAI1NDBH3/rZCjBvwEdzBJpbVAAlKxYzmYljDMB7tJy5htv3GkJgNqwrX8pJJji34b/sqcKDv8pGQVAyTqD5H1Qle5opvPzAqA2bPAvqNm/+WjsHp1jV1LJKAA8KJLGrASEpQCgPlZa/1MSEMJ/fnAOgCeHX1+ctwOvhGNhJEnHf/a9L/UEQCWFtOd/lRmEZq8du3hCUDo6AJ6oXIdW8Y4uF/k8xwQD1dS+NDkaUup/FSf/+UMB4EloWwJXtDggCKimxeUktHV/Q3W4+McfCgCPAuwCDA4IIg8AVMuBH33zjGgV3M91otj65xMZAM8CzAIMJIWeWLnGGEDEDrz1YluUDq71z7n//tEB8CzELoBVJOoS5wMAcRvs91f6kgSoUHJa4BUFgGeBZgGsQSiQIgCIkx38V0J/AQZ7VeeXL13k4B/PKAACEGoXwGhRBADxWR38wwv93dXQDbb9BYACIAABdwGsVlbkl9geCMRhZbvfpVAHf7vvn0t/wkABEAjzA2sr4iCPwjQfJGO3m03OCAACZwf/pS8GM/8xCRSn/oWDAiAQncEJfOFuiVktAlgOAMJk2/6hD/6i1Vlm/+GgAAhIkfXPmf5YTwJlP1jIBADhuW/NP9jB32772/WU+YxDMCgAAmJvClR5EfrWGIKBQEBCD/zdo/XZDjf+BYWDgAIU6uFAD1lICn2Uw4IAf1YO+bH7/IPO53DhT5joAAQo5EDgfUaLRM0femOJuwMAD+y1visn/IUezl0g+BcmOgCBOvQ/Fk+Zp/OmRCBRcm7XcnZ2zixhCACnbNLfXuwT4tn+j6dOXz/2Nmv/AaIACFgkSwGreiNJOvGzwW4GAC5Es95/j+qYwX9CECSWAAIWyVLAKhsO/IibBAE3bMu/r9IbsQz+NvXPiX9howMQuEOvLU6ZL+clIjbw00zSs3QDgCdnZ/1m4LefAW2JiNL6xLWXfzorCBYdgMBd+f6uWSniujPbzFCm7FZBugHAk1md9Utkg7/5DJhh8A8fHYAItKdvjiYjzRvmp6ol8SEbAGzRyvY+u8OmLZGxrf+dO/Jx9vyHjwIgEu037rSSIrczgSjP42dZANhYfAn/Ryw0dHOc437jQAEQkRjzAI9I1PSIJBcoBIA/WBn4T64M/BFfusWWv5hQAETm0Ku3z5lB9KTErWf+HWYpBFB31Rn4ZXDRz/WX354WRIMCIEKRnQ+wDr2gRM2xNIC6qdTAbymZu/7SxaOCqFAARCjyUOBj2YyASvSFy9/jbgFUV8zhvrUQ+osXBUCkBqFAnc9XqQhY0UvMbKKh0hm6AqiC59461uony8crM9u/jx38U92cIPQXJwqAiLVfWxxLRGK4DGRbzJuzq5VcSBvS+fnf7eoKEImDP/72mNb5C2bQb0uFZvsPIfEfOQqAyB159Xbb3son1dczb9aOqOKdpmp26Q4gJHZN/9bnyWSaJPsLrSdVNGf1b5/p1B394KWLc4JoUQBUQCW2B26R7Q7I3Q7Bh4nS3V1f7OrOTSvWIOGcHeyXsmZLF7qtRO8vzG/VYcC/H8f8VgMFQEXEdH2wO3pBKdXVWvVEil+Zv+4lif1epC+NwdcOnQOsw67X2695mo8WurCD/GgiSUsp/awpNke1lrG6DfaPYq9/VVAAVMihV29Pm77cGQFwj04+E938neQjH0v/S/8q/Z3/Mvg9bAN7/SuFAqBiKAKAjWW7fyFf7LkkhSkMsEkM/pVDAVBBLAcAm7M8+q58/sc/EGyEtn8VUQBUVB2DgcB2FI3fyWdffYNuwBoI/FUXBUCFHX711qROElsEVPKcAGBYbBFw55kZyXd8LLhnwbT9j5q2f0dQSRQAFVfhEwOBoaIT8AdqcGFXcvTad37CAVwVlggqzW57K1Q6YX6iewJgTUn/K/L0r78nqnha6mz1eF8G/+qjAKiBQRGwnI2LUpzaBazDFgE7btb5UjvVsRf7cLxvPbAEUDNsEwQ2tvi179ZuKUCLzPzy2MVTgtqgA1AzV17ZPW1+0k+LDfgAeKyR3/+N1MiCTfoz+NcPHYCaIhwIrM2eFLj47Hcrf2Ig1/nWGx2AmrqXCyj0jAB4gA0CNpb+s1SZbfmz3l9vdABw99AgJWfoBgB/kO3+Z7mz95+kgmzL/zSH+4AOAOTK93fN2q2CSklHAAyky89K9ahOQzfHGfxh0QHAA1buEbC7BDg9ELVm1/9v7/tbqYgF83F/lvP8cT86AHjAlb/fda5I0nGtiwsC1Fh1DgS6O+tn8MfD6ABgTWQDUHe3/vy4xMom/M2y3ukPXrrIAWB4LDoAWNMgG3B3p8BZAWom4i2A9hKfszbhz+CP9dABwKbYcwNUnk0rlcQ7JQK2oNjxsSz+2SsSF9vub5xgax82gwIAW2ILgVTn57WWtgAVFtc2QNUxS3VnuboXW0EBgG05/OqtSZ0mb5IPQFXd2fuPpgj4hYSNgR/bRwGAJ2ILAUmTk3QEUDV2C2C4OQAGfjw5CgAMxZFXb7dzpafICKAKwm3/M/BjeCgAMFT3woJJ8jzLA4hVYNcB21T/TEMas4T7MEwUAHCiPa1Hk+bSpHmDndQiYwJEYvmP3pXPv/ID8c/M9kXe2bWjP9s5Osf13Rg6CgA4R1cAsSgavxtcA+zRYLZvvnZo88M1CgCU6l5WgGIAgbGD/2dffcNH63/BfBBf0FrNMeijTBQA8MYWA0UiZplAPc8yAXyyg/+dZ2Yk3/GxlMG833uJae8z6MMnCgAEwS4TJEXeFqVeMB+PY3QHUJaSZv52lj+nRX3Y0I05wnwIAQUAgtR+bXHMzJDGtC7aiUr20yGACzbw98V/uORgv7/qKtHdXOurIzLSYcBHiCgAEI3BkkGqTHdAt5RS+02XYJTCAFtlB3u7z98O/k8669eDG/eSrtLFr8xg303TtLuzmfVI7SMGFACInu0WNAo9WiS6Zd7S5peMikqeNTOwUfvfmw/p1uB/qO1fq1FBrdgBXzc+Hazv51/6N8l2/st6M/4FbZP4Yj8clf1qWve6N/j7aPWrQoqeStRCs2h2mdUDAAAAAAAAAAAAAAAAAAAAAAAAAAAAAAAAAAAAAAAAAAAAAAAAAAAAAAAAAAAAAAAAAAAAAAAAAAAAAAAAAAAAAAD4ogRBW363OSaptBMt+7XoMa30qNKqJaFQsiBaekqpbiFytZnsnFMTCwsCAAgaBUCAsp832pKoF0T0lBlcRyUyphiYTZP0rJr4vCcAgCBRAARkMPArOWO+bUsVKHWueTg7LQCA4FAABKByA/99TDegZ7oBE3QDACAsFAAe6fnR0X6xeMa0+U9JhdkioMjl6MhfZ10BAASBAsCTO/NPtdIin1dat6QG6AQAQFgoADxYnm+OqULPxxjwexJ3i4BsXE0IuwQAwLNEUKr+5eZxlesbdRv8LW26Hf2ieUYAAN7RASjRYOZvB/+aa6SNfSwFAIBfdABKYtf8B21/SD/vVzr0CAAxoANQApv2z4qlG3UJ/G3CQiPt7yML4N7NyfZotrQ0KUXyvKhizL4HtajB8pMSvaCV6pnlqK75dbX55Z1ze+Y6PBOHeB4ICQVACbL3Gm9WfavfVimlTjQOZ7MCJ25+47lW1s9PmgFmanWA2aTZZjM9u+dn7/cEQ8PzQIgoAByzrf9G3v9I8AAlarZxJDshGCo7w+zfWjqj1ZMVnErJucau7OyeuS4z0CfA80DIKAAcW36v+RGt/8dR3eaRbFwwNINZZpbbnElLhqNnZp8TzD63h+eB0BECdMgM/lMM/mvhdRmmT4881+5nfbvDpCXDMxjAPvn6wTHBljgY/K3B39M+awGGgALAITP4nxSspXbnILjy/w8fPKl1Pr/FteXNakkhl+yAJtgUR4P/qpZ91p8e+ivO08ATowBwxO75N1+YOcGpTw8dfDMXOSduDQa0m5NjFG2b4HDwv0crPU0RgCdFAeBIUgiz//URZnoCNlz2yeGD808aLtuCVn+RUxw38umRA/Y1akkJbBFg3wN0Z7BdFACOFBW82ne4VE+wLYMW8+0lu97flhJpLacYbNZmXxut1bSUqz3ozvBcsA0UAA4Mjvwl/LcupYSrgbfBUdhv08xgQxdgDR5fG8KB2BYKABf6zP43YjokVwVb4jjst1mTZAEedbM9eE2mxB/CgdgyCgAHlGL2v5Fmks0JNq2ksN9mjGZLzUnBA7IkjNeEcCC2ggLAjf2CNSmlZrkHYHM8hP02Zs+xx4OUBPOaEA7EZlEAOKDpAKwrTdKzgg35CvttSBVsb32Y8pPJWAfhQGyIAsABpVVLsJYZNfF5T7Au32G/dekA/0y+6SDP/CAciHVRAKA0pvXfax7pcyviBgIJ+62HEOCjQn1NCAdiTRQAKIUd/E3rf0KwroDCfqgQwoF4nIYAjtnBv0jkaIPW/5ps2M+s91/ScRwgRYDzUfY1CbozshIObDeb6QluFIRFBwBOrc78RyYyDv5ZQ7Bhv7Uo6QkeoOJ5TQgH4h4KALg0kyY7xwn9rS3osN9aNKc4PqzQ6kOJB+FADFAAYLiULGhRM420sc8G/tTEAu3iNUQQ9ns8zSmOD1OJ7khcCAeCAgBPSA3WPrtK1KxZYzzRSHbtGzmSnWLWv76Yw37NL3OK48Oa2eA1ia7YJRxYb0owdNnlhhaPzMyb5xqo1bCfxHtb5Oze966dEDzik8MHbUEX6zXgHcKB9UMHAChJdGG/x8hzTnFci3ltYt6+STiwhigAgBJEGfZ7SCEy8x87zBDXcve1KWYkXoQDa4YCAHAs2rDfA1TvTr5zWrCuZp5P29dK4kU4sEYoAACHqnGyn+rleTKxr9NhR8cG9nS6C/a1irwIIBxYE4TFHCAEiAqE/VaYgSzXR/d2rrH3fwt+036ulabFvBlKWxI3woEVRgcAGLIqhP3uujvzZ/DfOpsHqEInQAgHVhoFADBEVQj7DSjpLOVPjxP62757RYB5LSVuhAMrilaxAywB1JMN+1XhJj+b9n/mvWtc2zxEvz1yYFppFf2auvl3mP6TKx+wFbQi6AAAQ1CVa3wLpU8z+A/fn16+Pq2Vjn7gJBxYLcwUHaADUB9VCfspe4yt0kf/5PL1jsCZT48caGudnCcciBDQAQC2qUphv36ejjP4u2dfY8KBCAUFALANhP2wXYQDEQpaxQ6wBFBthP0wLIQD4RMdAGALCPthmAgHwidmig7QAagewn5wiXAgfKADAGyAsB9cIxwIHygAgHUQ9kNZCAeibLSKHWAJoBoI+8EXwoEoAx0A4DEI+8EnwoEoAzNFB+gAxIuwH0JCOBAu0QEAVhD2Q2gIB8IlCgBACPshXIQD4QqtYgdYAogLYT/EgnAghokOAGqNsB9iQjgQw8RM0QE6AOEj7IeYEQ7EMNABQO0Q9kPsCAdiGCgAUCuE/VAVhAPxpGgVO8ASQJgI+6GqCAdiO+gAoBbMmukZwn6oKsKB2A4KAFSenflrM7OQiNmwn1J64pnL16MvYuCGLQLseyT2XIAtAv7fof9CkVsCWsUOsAQQjkHgL8s/kqipwVov6/3YjN+0n2ulaTEf/Q6BRMb3/vxaV+AMHQBUmg0XScwI+2GLKhMOLOTSzcmxUYEzFACorE8OHZySiNP+Nuy39/K1iX2dzoIAW2CLAPveiTwX0Fq+NcJSgEMUAKguJdGGiQj7YRhiDwcqpU/SBXCHAgCVFOvsn7Afhi3ycOBofnukLXCCAgCVpJR6QaLDyX5wI+aTAwvRJwVOUACgkrTotsSEsB8cizgcOCZwgu1iDrAN0K9Pvn5wzEwbbkgkONkPZYvu5MCkOb735/+HLYFDRgcAlZMURUsiQdgPPsQXDszoAjhAAYDKKZIk+NQwYT/4VpWTA7F9FACADyo9StgPvtn3oFLFCQmc1qolGDoKAMADrfPzXH8K3wbvQS2XJHCmU9ETDB0FAOBHyxQB89x8Bl/uXpKVz2tRwS+ZJYXiNEwHKABQOXmWdiQSXH8KHz49dPDNmK7HLpJGTzB0bAN0gG2A/n1y+OBN8yWmI0Q7zWZ6Ys/POAcA7tycbI9mt5dsy78t8VjY+961PYKhowOAalIS257htr250F5fLIADg6uxby/Z8zHaEpFC1FWBExQAqKREFzMSn5YtAggHYtjse6qf9e3g35LIJFrPCZygAEAlpXneMV9iDA4RDsRQxRT2e5Tq7b1ybVbgBAUAKmlPp7uglY6xCzBAOBDDEFvY7xE63quMY0AI0AFCgOH45PBffWQ+RVoSL8KB2LJIw34PMbP/9z7YJ3CGDgCqLddHJW6EA7ElsYb9Hnb3+mK4RAGAStvbudYttD4tcSMciE2JOex3P63VWa7Gdo8CAJX3zJXr5+K6+eyxCAdiXXGH/f7ADv5/euWDaYFzFACohfiuP308woF4nOjDfivs9dgM/uUhLOYAIcBwfXrkQFvr5HzkwUCLcCAqEva7ez22KM0NmSWjA4BasR8wd8NF0d+BTjiw5qoS9rM/i/08HWfwLx8FAGrHhosGRYCSjsSNcGBNVSXsZ38Gl/Knxwn8+UGr2AGWAOLx2yMHppVW0a+pm3+H6T+58gGHptSADftVYr1fZOaZ966dEnhDBwC1RjgQMalS2I/B3z9mig7QAYgP4UCEjLAfXKADAAjhQISLsB9coQAAVhAORGgI+8ElWsUOsAQQP8KB8I2wH1yjAwA8BuFA+ETYD2VgpugAHYDqIByIMhH2Q5noAADrIByIshD2Q9koAIANEA6Ea4T94AOtYgdYAqguwoEYNsJ+8IUOALAFhAMxTIT94BMzRQfoAFQf4UA8CcJ+CAEdAGAbCAdiuwj7IRQUAMA2EQ7EVhH2Q0hoFTvAEkD9EA7ERgj7ITR0AIAhIByI9RD2Q4iYKTpAB6C+CAfifoT9EDI6AMAQEQ7EKsJ+CB0FADBkVQsHfvL1g2OCLRkM/ua1E8J+CBitYgdYAsCqioQDe2Y5YILlgM2pyuBP2K/66AAADlUkHDgY0G5Ojo0KNlSJwZ+wXy1QAACO2SJAKR17LqDVX2yyO2ADNu0vEQ/+Nuxn36vPXL4e/Y4FbIxWsQMsAeBxftN+rpWmxXzMOwTMUsA+lgIeb6X1/5FESw2yK6z31wcdAKAkVQgHfpHltIXXYAb/eDskhP1qiZmiA3QAsJGIw4ELzd3Zvj1z3QXBPTfbY6NZ2rwpESLsV18NQeWUWoAoWRAtPaVU13yQXG0mO+fUxAKDwwZsLsAUARJhETCaLTUnzddZwT1ZMnhNojMI+7HeX1ssAeDJaLHJ8DGt9ZTS+nw/X7zZf695Xs8/1RKsK9pwYJE8L3iQkqheE8J+sCgAMHS2GOjn/Y+y95pv6nlh69g6ojw5UBUcDPQwFVPyn5P9cBcFANzR+lReNG/QDVhfdOFAHfnpdi5oiaMoIuyH+1AAwCnTDWjlRT6//G6TWeM67Afy3svXJiI5NIiuzqOCf01s2M++x/Z1OmR0MEABAOdsEZCkcolOwMaqcq0wwsLJfngcCgCUYrUTQCZgYxGEA5lBPirI14SwH9ZDAYDS2CKgX3Cc7GYEHQ5U0hM8QAX5mhD2w/ooABwwLdye4PG0PsVSwOYEGw7U0hU8oNDqQwkJYT9sAgWAA0orWqTr6Od91iI3KchwoJarggeoRHckEIT9sFkUAA5oCWw2EJ7jZAG2JqRwYPPL2ZzgAc1s8Jp4H3AJ+2ErKABcoEW6kdG8iPPoVJ8CCQfOcg/Ao/Z0Bq/JBfGEsB+2gwLAhUa8t72VRsd1dGoofIcD8zxli+IazGvjafAl7IftoQBwYGQisx0AZknr0BLJyWkB8hUOtGvLhMrWdve1KWakTIT98AQoANzx1g6Mg24Jtq38cKDq3cl3TgvW1czz6bK6M4T98KQoAFzRQlBqfYQAh6CccKAadBwYaDZmswBlLNEQ9sMwUAA40vx6v2O+dARwzG040Pw9c32UFvPm3VuicfA8CPthmCgAXNJCYGptzCaHyE048O7Mf2/nGrtatshNEUDYD8NFAeAQXYD1BHvOfbQGuYD3Ptg3jCUBu75MuOzJ2NeumS+PDyMYyPOAC0rgVPbzRtu8yvOCByilZhuHsxMCJ37Tfq6VpPm0+QE/vtn/j20v5yIXdJ6eY6AZru0+Dy0yZ7de8jzgAgVACbLLDbted1Jwj1bqxMjhbFbg1Eft9ujOZGlSK2krJfuVlpZeCWAOBhh7iY1OupIUV5eynXME/dzieSAkFAAlsMfeZkXzhtJsfVvVSPt71AQ5AADwhQxACexAlyfphBB8G7DtfwZ/APCLAqAkX5r4vKcLNSGQNOE4WQDwjQKgRCN/nXXt2rfU24wyxZAAALwiA+DB8rvNMZVouzOgVqfhmdZ/r3E42ycAAO/oAHhgOwH9tDFuugE9qQk7+Kd3cxAAgABQAHhiMwHNJBs335Z7e5gHdvAvEjlK6x8AwsESQADuzD/VSot8vorbBFdn/gz+ABAWOgABsN2AEbM2vhIQrNK56zNpsnOcwR8AwkMHIEA2JGhKs1Pm6TwfXVdAyYLW6kIzTc8x8ANAuCgAAjcoBlJpi5aWEr1fK91SWrUkFGbAN3+2nhLVLVRxtZnsnlMTCxzyAwAAAAAAAAAAAAAAAAAAAAAAAAAAAAAAAAAAAAAAAAAAAAAAAAAAAAAAAAAAAAAAAAAAAAAAAAAAAAAAAAAAAAAAAAAAAAAAAAAAAAAAAAAAAAAAAAAAAAAAAAAAAAAAAAAAAAAAAAAAAAAAAAAAAAAAAAAAAAAAAAAAAAAAAAAAAAAAAAAAAAAAAAAAAAAAAAAAAAAAAAAAAAAAAAAAAAAAAAAAAAAAAAAAAAAAAAAAAAAAAAAAAAAAAAAAAAAAAAAAUFX/Du0Pb3YK4QMtAAAAAElFTkSuQmCC;" parent="x97okhzxq58m8EEzVJWr-19" vertex="1">
          <mxGeometry x="17" y="34.5" width="26" height="26" as="geometry" />
        </mxCell>
        <mxCell id="x97okhzxq58m8EEzVJWr-4" value="Prompt" style="rounded=1;whiteSpace=wrap;html=1;" parent="x97okhzxq58m8EEzVJWr-19" vertex="1">
          <mxGeometry x="20" y="12" width="100" height="20" as="geometry" />
        </mxCell>
        <mxCell id="x97okhzxq58m8EEzVJWr-20" value="" style="rounded=1;whiteSpace=wrap;html=1;" parent="1" vertex="1">
          <mxGeometry x="-300" y="100" width="80" height="80" as="geometry" />
        </mxCell>
        <mxCell id="x97okhzxq58m8EEzVJWr-21" value="" style="shape=image;imageAspect=0;aspect=fixed;verticalLabelPosition=bottom;verticalAlign=top;image=data:image/png,iVBORw0KGgoAAAANSUhEUgAAAwAAAAMACAYAAACTgQCOAAAAGXRFWHRTb2Z0d2FyZQBBZG9iZSBJbWFnZVJlYWR5ccllPAAARltJREFUeNrs3ft3JNd9GPgqH/1u/CBKpB4mFHuTPRs7BCNZfmTPYTPnbCiTFAnuxuuN7YSYTUyTlMgBKIkcckgCEB8iRyIHI2korxRlMJu1nVhOBqREStokHvCc7NqSHwPaa588zc6GelDSHsN/QW3d7gbQ767uruqubnw+5/Q0poHurrr31q3vt+reqigCAAAAAAAAAAAAAAAAAAAAAAAAAAAAAAAAAAAAAAAAAAAAAAAAAAAAAAAAAAAAAAAAAAAAAAAAAAAAAAAAAAAAAAAAAAAAAAAAAAAAAAAAAAAAAAAAAAAAAAAAAAAAAAAAAAAAAAAAAAAAAAAAAAAAAAAAAAAAAAAAAAAAAAAAAAAAAAAAAAAAAAAAAAAAAAAAAAAAAAAAAAAAAAAAAAAAAAAAAAAAAAAAAAAAAAAAAAAAAAAAAAAAAAAAAAAAAAAAAAAAAAAAAAAAAAAAAAAAAAAAAAAAAAAAAAAAAAAAAAAAAAAAAAAAAAAAAAAAAAAAAAAAAAAAAAAAAAAAAAAAAAAAAAAAAAAAAAAAAAAAAAAAAAAAAAAAAAAAAAAAAAAAAAAAAAAAAAAAAAAAAAAAAAAAAAAAAAAAAAAAAAAAAAAAAAAAAAAAAAAAAAAAAAAAAAAAAAAAAAAAAAAAAAAAAAAAAAAAAAAAAAAAAAAAAAAAAAAAAAAAAAAAAAAAAAAAAAAAAAAAAAAAAAAAAAAAAAAAAAAAAAAAAAAAAAAAAAAAAAAAAAAAAAAAAAAAAAAAAAAAAAAAAAAAAAAAAAAAAAAAAAAAAAAAAAAAAAAAAAAAAAAAAAAAAAAAAAAAAAAAAAAAAAAAAAAAAAAAAAAAAAAAAAAAAAAAAAAAAAAAAAAAAAAAAAAAAAAAAAAAAAAAAAAAAAAAAAAAAAAAAAAAAAAAAAAAAAAAAAAAAAAAAAAAAAAAAAAAAAAAAAAAAAAAAAAAAAAAAAAAAAAAAAAAAAAAAAAAAAAAAAAAAAAAAAAAAAAAAAAAAAAAAAAAAAAAAAAAAAAAAAAAAAAAAAAAAAAAAAAAAAAAAAAAAAAAAAAAAAAAAAAAAAAAAAAAAAAAAAAAAIDj68yp368oBWDW/JAiAICRLSoCQAIAABIAAAkAAMydWBEAEgAAOBbOPPz7C+nTtUoCkAAAwDGQRNFSZAgQIAEAgGNjQQIASAAA4PionQFoDAUCkAAAwJy7ITlKBAAkAAAw5w4C/4qiACQAADDHnn34D0LwfzD05zolAkgAAGC+LTfdBGBZcQASAACYY0kU3d70c7gngCQAkAAAwDx65uE/WIw6J/7ermQACQAAzKeVLq8tnznlcqCABAAA5tGd4Z/6JUAP5wEspD8aBgRIAABgnnzi4T9Yibrc/bdxP4CTSgiQAADAfDmZ9P7d0plTv19RRIAEAADmwCce/sM0uI8H3fV3XUkBEgAAmA8dwX3bPICg4iwAIAEAgBn39MN/uJIG+30D+6ahQReUGCABAIBZDf4f+cNwec9sQ3vqJwMWz5z6/Q0lB0gAAGA2heB/sTnKTwa/5+QnT31zUdEBEgAAmCFPPfJHlTTYX20d5t+qyzyAIJw1MBQIkAAAwAwF/40gPm4L9jOrfPLUNzeUJCABAIDZEI7gLw7zhlqC0HoyYD1NAiqKEpAAAECJPfnIH51Ng/nl3n8xeB5AcpQJXEqTgCWlCpRFrAgAoDn4v7KShu8XWneSjXA+6fJayw716O/a0oS99PUbP/rM+/eVMDBtzgAAQMMTafCfdJ28O/I8gAPhDMDlT5365oJSBiQAAFCS4D9qC/5HCfa7zAOQBAASAAAok4/3PPLfz1DzAJqSgOTyc6e+IQkAJAAAMJXg//Te2agj+I+7BPNRNPh+AJkSh3Am4PU0CTAxGJgKk4ABOJY2T+8d3KxrOU7qIXzrpN7OW3zVXkuad6BDTQQ+/NvGa2FC8NpHnvmpbbUBSAAAoEAbp/cqcdN1/usBe9ItSB8pATj6zO4JQPP70ueQAKw98MxPuUIQIAEAgDytn35tId3xrac/rnYE5j0SgI7Xkr7BfEcC0D2ZaHtPElXTf0488OxP76olQAIAAPkE/yvhKT68u297EN6eALQF883v6Xs/gCwJQJcEo/79O+nPa2vP/nRVjQESAAAYweOn/7iSRtch8K90DeYPdohDzgMY8YZgvc8wtCYgm+ljK00EDAsCJAAAkMVjj/7xcrqTO5nG2ZXuQXiXwD3JbyLw0WdmmgfQcQYitZ++bzt9Prf67M9U1SggAQCANo8++ieLUbiqTwj8o2SxtqMb/Sj8pOcBRH3OQOykTxdPPvszO2oZkAAAcKydfvT/CTfXWk5/vD2u3223NQjvkwAUMQ8gewLQPQHp+/v6WYGQBLya/mr3/jM/W9UCAAkAAHPp1GN/upTutMK1+0PAf20a2Idgv9ItSO+WAHQG6a2vHf1taeYBRN3XLTn4yvBaSAD20tdeC8+NBGHvQ2f+e3MHAAkAALPlocf+rNLYUVWaguAboloSkCzFyYBgvs9R+I4gfcQEoOfntAfuSeFnINLAv5YAVNPv+S+1v0mSauP/1Xs+eUNViwIkAADMtEdqQ39qE3xvaCQJCz2D8MLnAQwI3JMBwXyUaR5A82t7YQhQHIYCpYH/fYYCARIAAI6b04/+SZj8e3v6Y5gPsDAb8wCyX4koqg31iS6mzzsnXRUIkAAAwJFHH/2TlcaVgJaaE4AZnQewnb4YLgW6p2YBCQAA9PHYo+EmYFH9JmAlnQfQIwEIY/rPRW4GBkgAAGB4j4dEIInWo9pVg0o/D2Az/WfrAYE/IAEAgDETgdN/vJIG7mej+uVEx58HkO8NwXbTx4mPPPNTVTUFSAAAICfrp18Lwf+FqH7H4I7AvbZzTHrftKuAeQDh2v2baeC/pXYACQAAFJcIrKRPZ+s3F5vAPIDuCUCY2HvHR595f1WNABIAACjYxunXwlWCLqWPxcnNAzj8nO2PPfP+E2oBkAAAwGSTgDAk6HLt7sJ9E4DOAH+MeQAn0uB/W+kD0/BDigCAY50APHVduNrOjelj5yiEzyrueyitc9BQjeAfmCpnAACgYfP0XpgcvFLbQRZzP4ATD37iJwX/gAQAAEqUBFxJn5bGmQfQIwE48ZDgHygBQ4AAoFUYDrTX/VdZjpvFXYYQxYJ/oDScAQCANpun9xbTHeSVKElabhjW906+ve8HsH3qE+9ztR9AAgAAZfbx03uVNI6/POY8gL00+L9eaQJlYggQAHTx+FNLu+nTZj2c7zToSkHp78PVhe5QkkDZOAMAAH18/JErR5OCo143/Go/A1D7mxMPf+J920oQKBtnAACgv4Hj95PWyD/YFfwDEgAAmEGPP319uCLQdkuw3yGO2n5v0i8gAQCAGbbWGNPfosc8gM2HP/HeqiIDJAAAMKMef/r6EPyfO3ql5xS68HdbSgwos7coAvLyc5/+9lL6tND472KUpI8OcfOus9p41Haar5y8Zk8pAiUWAvuTTf1ci3A2II6jc488/d59RQWUmasAMWyQH3Z8IdCvpI9ra4F+/f8LXfeG/ROAXnaj+lG019LPCEnB3iur11SVPjBtTzxyZSN9Wq/3Yx33A9hPX3vPJBKArYd+L+17k9APL7bdfGwv9Jv3n/lZfeYc++ZdH033u0m4MtVifWd7cN+JJOwzd9/3+S1JKBIAxgr4Q4C/nD5uaAT6i5nfPHoC0O0zQmcWOrZXQ+eWJgS7ageYQgIQ+sDXmxOApj5t6/TTf3OtyO8/+9Dvhf74ZFw7CNP7hmRx/UDK5n1nflZfOUe+cdfHVkICmtbz4lHSl0QdPyfJTtoGNt/7hXPOrCMBIGPQ/5lvhx3M7Wk/Uhkq4M+UBMTDNb7ed9oJCUHYsb3YSAiqag6YUBJwKX1a7pIAvCdNAArpi55/6PfCWdZL9cC/KdjvnQAcdKIhEDzx4TN/yxHhGfZ7dz20lNbthah2IK5H0H90FiAkAAc/b733C59eU4JIAOgV9Iedyp1R/Wj/woDge4wE4KjZxWN9RodwlCNM0NtJkwE7OqDIBGC5EYxHTUfh99Lg//pCgv9T3whnXy+nQd1CR7DftjPvvCFZY1hQFN0oCZjd4D/Uf1q3C32D/vafk8P2uZs+3/HeL3xG/SMBIIo+8JlvhZ3JaiPwX+xoDrOVADTbTh8XDRMCCkwC/iJ9WmgKwtceffpv5n71n+cawX8cDswk7XcfbklAWpOCpOM1ScBMBv+n6slflCw0B/1H9do7Aai3gcP37KYJwI1KlAMuA3o8A//F9BFOJf5FUp/Mtjhn6eFK6DBv3vru6+ljJX0sqHUgZzsD/p+X0Fdn7sOS3q8tNT6LGfG7dz28kNSC/3r9J113ynFLnSe9d+CVP/qV+zaUKhKA4xn4V9JHGLv6eiNILl483I4qX7VJUmGH9/rNZ7+7kT4kAkBeXmz6ee/RAsb+f+rUNzYagXvXDnXQHYm7WP7sg/+2oupmxtm0Phey13E86LX1P/qVDy8qViQAxyfwX2wE/uFIwvLMrcD4ZyJCB7ouEQBytNvUQe0W9B0nW4L9IQ+o9DjIsq7qyu9373okBOor2XeEcdadpvpHAnAMAv+FxlCf17MF/smEliyZVpE0JwIrWggwqsfqdwbea/Rmr+b9+Z869c3l7kd/23vQeHA82BocVs4/+G8X1WDpLQ8X9Hf/dZchQfZ9SADmOvj/7LdW0+0901CfZIz+ZWbEHYnAhVvOfvdK+ljSWoAR7bU95+mGgf3zEH160hFcUmZJuBT3gISvObjPMg/gYOrwH/3KhytKGAnA/AX+S+kjDPU5Gw0xcWyCwXf25COvbrS3EPyHJGBDywFG8Fr459Firv2/lKVDHWEeQFSafQMZ6z8eGNz3r/vOCcGKFwnAfAX/IZC9MpcbdwFnIpp2nOvOBgAjCEf+dyf1ZXnNA0gaZxco9U5viMm/E9ppIgGgdIH/YuOo//r4fcDczwPopXat5VvMDQCyq04gEMzQgw49D0DNzU4iMMTv466/7na7OJAAzH7wH8Zyjn3U/xjOA+jmYG6Aa2UDAz329PUhAXi1iM9OCnh/02tuBjYDkgwJ32jzAEACMOvB/0b6dCmahfGc5Z0H0M1KmgSEswHGyQKlCgSzB3V9j3i8plRLrxplCPqz73BbXpMAEr1FEcxk4B8C0zDJd6WEi7fX1Ln0OzL2w9HRJKelEiYxlag+JOjGl9eu1lkCvRTVP7wadTmzG4K/OO4Z9dd/n62fptzSOooXOyu6T+V3DfqTbm1kV/EiAZjN4P9y1PMKEZn7gD4y7ULCTi90Iq81nqtfvf8d1XHW7eZz3wk7u7TDi65r7PiWxluPsdd0SRIATCmY3kn7p/V43M4vjAFPDvq5w88RAJZfuNP0ci5Bf8tLcfW9X/i0BBAJwIwF/yEgvTBU8J9XMFzvQHai+lGp3TTYz70DeeXkNbttCcFCIxG4vfG8OPaXDL8flQQA/VSL+NCPPfP+vU+e+ma1X7/X2md3dm7d+vT0te37zvwtfVn5hf3t2bS+FuIB9Z2kP8eHPx/9zdHP4bfJwesXFS1RZCr4DAX/b9QC0V53hswU3Q/VIOLmTigcidj56n3vmOpOI00IltL1uDOqHxVZHLmpJyNtBCHhkQQAE5MmAMtxfZ5XI8xr6rOS1tcOwrz2Pq32WtIygvw9aQJQVbrl93/fdXojra/GWaCkqY6Tlvqut4MBPye1trIf6v+9X/i0/RgSgNkK/sM4+RGrbLgEIN05xOfS5+1pB/09k4Gt2nChkAysDN3ck5E3gs00AdjQIoFJ+dSpb4YEYLkz2D8M6oZJADbvO/Oz+rCZSgIeuRLXzkSPEPQftpmkPg4siu543xfO7ShVAkOAyh78n28E/8mYk2SzDX3ZTR8Xv3rfO7fLXi6vrNaGC+2micBmVL//wXI04kTijJPmtgX/wBSciGpnPOOlrEdyOvq0+jyA7fsF/7PoxvTxev3s/1jzALbe93nBP20HESht8J92+rVr/C80TeAZ/QN79x1heMva1+575+6sllWaCGS4MtLIw4D20uD/ei0SmIZPnfpm6N8uxVFSaemzktYj/q1DRY46u/Tn7fuf/dkTSnI2/e5djzQu/pEs9TrSX6/zpOPnRpvYfN/ntyR/SABmJPhvvdpPkkO1dSYA+43Af3teyi1NBELSFCZKV3JKAIz9B0rhuVPfWI3qZzwXMs4DqIY+/uSzP+PI71wkAg+nQXxyMq6d7c40JyCt/+TET37+7K7SQwIwOwnAlaj9aj/jngVoDXq30sdmGvzPZWCbJgLLjURgoWuTz5YACP6BsiUBoU8Lk4PvTPuxSpcE4OASzS+uPvsz20ps3pKAUyH5W0nrvXZ1vC5Bf5jou5v+fPEnP/+8xA8JwCy56fwbIXBdiXsG8GMNA6qm/56Y5eE+QyQBC40kYHlQAtClVAX/QOk9/9DvLcRHB4v21p79aX3WMfKNux5cjGpzRJLopz7/yV0lggRgdoP/lUbQGhWQAOykn3FiXo/690kEQpmG+QELGYcBCf4BAAkAEwn+w1GcKz0rZ7x5AGtf+/A7t45r2aZJQCjbS/Vbq/dNAAT/AIAEgIkE/wuN4H+xbwUNfxYgBLJ3pMH/7nEv48aQoMv1y+lF3YYB7cWCfwBgzv2QIiiNs9HQd7fNFPzfKPive2X1mrQ84nBN5b0uv3bkHwA4FpwBKIGbzr8RJqleylRB2c8A7DWCfwFtm5u3vnt0idXkMFG6/pW1q6tKBwCQAFB08B+C0dejHnexHXEegOA/axKQ1M663JgG/3tKBQA4DgwBmr6zvYL/EVM2wX8Gr6zWhvrcKPgHAI4bZwCm6Kbzb1Si+lCU4Sqp9zCg2lCWNPivKl0AALpxBmC6zub4WQcTfgX/AABIAMqmccOvpfE+pWVCQLjOv6EsAABIAEpqfeR3dg7c2kqD/21FCgCABKCEbjr/xkY0xDX/k/6/3kuD/zWlCgBAFm9RBBMO/l94YyGN6E/m9HH7aXpwh1JlGj74ye9Xmv4brmR1cIflMB+lZTjalx+8aleJTcedT7wR6mUhrh9KWIzrBx9C37EXHx1d2Psnj//IXFw57MHH/myxsZ41ca1dJguNnxvtMInCuj/95I9rl3Pm0n0XK/X6DY07abT39P9Rshs2gfp2EP4f7d16/i5Xy+PYchWgyScAq1GY/JuMWVH196997cPv2lKqFBvofy8E+uFxXSPQr/TtOvq37d168Bm91vh5L00O7IRz8vef/FY4wLCcBjmhripx0zyjuKli4qYguO21Wp2kP78a6ucfP35tqevmo4//uxDch/W8oRH0L0VJ0tFnHqx73NRID9Y9PmyXSTVutMsnn/wJ86lK7kv3/3pIakO/tJQG+2n9J0txrX9K6vWd1IL8poA/iVoTgIM2keylf7tXr/tk7+YX7pUUIgGgkAQg3PRrcewEIAz9+dC7rleiFBDwL6ZP4e7UtzcC/+G7juHa917jyOzFlx68SuA1pF9+8tsh6EmD/lp9LR8FOa01lTEBaH/PTvr0YvrY+cLji6VIBj7y+L87aJvLRwFf03pkSgCO/q6lPI5+Xa23yeTiE0/+DQFhSfzW/b+5UO+bkjvjeuIXNR3tb6rHowTgKNhvJARd/7YlMQjtfDf9u7TdJzsf+Nx9DlAgAWDs4H8lfbowQoDUrbJuTBMAOyZyceunvrfQCKhOpm1zaaQWOXoC0BJ4hWBzFpKB2z/x/1UOEqSOADLpEXS2BuHVLz3ytu1Rv/+Xnvx2SNTW43pAtNDtu/snAFFTkNQ9AWh6336aLJxLn7c+vz75ROCB9X8fDpqE/vNk3BjO0yNwbyQ1Sb9yP3ot6Zf8HL5Wbaz79sef+htTCQbPnPr9UNcrGdpUS522/X579dmfqY7y/Z/72KuV+tH2pKl8mwLppP7/pqPqTYF57f+7K8/fMvL+6p+d/Ofh+++slUHScQS/+9H+nsF+698erFOP9+7Htf4oOXfT5+6fWn/0f/3qY7W+5mD5W+s1yfRzqP/3f/65agQN5gBMVl5j/7cF/+QY+K822ubCtJYjOQpqFhvLs3rbs9/frSUCD121XdLiCzvl9SHWrV1Yv6HX7Ref/M5iumMP37vS9XvCP0nckYUlA474DPj9QmNdT961WT2XJgEbkyjgtfV/H773bFILfvulj8mA9Rm+PJqENhnu2bL++Ok/3kyTgGkMu1xsbmvD1eXhuu82EuzC2/rR99f/lxy196H85skvVeptPSQfzXUYtx1pOPqeuE+b6F5Gre8NYXNcz6LDfxYa29nK/3nPubD8a3/ncyf3ytrXDNg2xql/JACM6qYXahPxlgbss7LaVKIUFviP1zbz3ulVbnv2B2HHt/bSQ2/dKXu55hh0dvh7T34nHOUPgehK5+e0flf37zn6m9ZkYajKryUCv7r5ejgae+J/W39PYQciVtf/w2o96EkWBpVhy2tdViFbufcpw6Ng8Oz66ddq67751HV75WtzRX9PXAuVO9r4YdLZGpQf/e1wS/gbq79dT3iSZOXge/u2y7ZftyYi7e/t8lk920zLL0J/dOVf3bO1lS7X5v/wa2v706nr9mQnavs5PjzyP0xCxPHjMqCTk+fRf1k84wT/K+nT6/XgqqCj/rlGJEkIBi6licDl9LE0K+WcjPn7luD/qe8sN+psZZzPGWfZ214LdXI5TQQ2cu8o1//DUhr8X4nqR/4X8irDfo00GfA3bb8PbfBKmgisTr5NxUNvfElBG3VSUNrx66v/Ii3X+ErU5QxXfTHa6yQe2Pm0DISJ+/1t3LPum8ox1Pvr/+rus5WpdCxx1heN8EYCUBbLOe2UHf1n1MB/MX1cjurzUBbGD6gKPqLUuf8KO9wraRJwNn0slKlsk8z73uF2yv/LU99dSB+hvi6lb11IRvicZEAhD05U4o6vbHrP+t2br19JH7nUx8n1/xiCq8tRt7ukx9nWPRnwN8mA6hiiVZ/dOP3ahekFfT2WPZ7ssiRd29HwC/F/rF5a+PXVf5nWfXz2sH+K44EJTdKv3uP2gD7u00biTCveeG9Yvsv/+u7nN6KpNQBBPxKA0rvphTeWo3yOtDr6z6jB/0oInqOeV/UpYRDd22ojESjZ2YA4j3VrDv6XGsHwytBlGHdfnvzOSrR8du2I+N2bfz5yfdy//h8X0kcIps+OlpzGGdYnzqVe2t6zMrEkoOdyjLbuRbf1pE87bPdP13ZCv/R6mmxW+tdL9iP2Wb43aU9yeya9PT9rPU0CLky3j4kzvkdygARgGm4fsg/t5ZyiZMjAfyF9XIr6HPXPqW1O2mIjCVgt24LlEXT+Qhr8J72OhPf8nCxDP+IML8WjrG+oj8ujJAEh+G9PdEYpwySX9htn+MyOoUOTSQLiabbpnsNhjhbsMNjvdY2iXsH/iyuN+l9oX+G+R/c7jvb3SUSyHO2Pe59dGPDelX9993MXJtu/dA5N67XNGPmPBGC6lnP4jN2vf+hdrpHOMMH/wRHk5aksQL7zAHr9IgwHulC2IUHj7Hx/4ak3OwKiJNOwl3yXLRn+PbVA/p4hkoD7Nv5Tl0SnmDHso5/9iLO8P00C9s5Oa8MaLRkc9bvjKGu7HOR/X3spzPOoB89x9iP2nX9b5DyAuDPx6fz4lX9TeBIQD+hbuwX9jvojAZiaHIf/XFSajBD8D31EtlRHjLLtv2oBc+mSgBHmAfzPafBfD4jihV5vLcs8gB7rFZb7UpoEDKyLEPzX2mh81EaTzGUaZ0hUsgzJisedB9BsdfP0XiHJdjJsIhOPvjGN0rYHzwPo/O6La18OAfNq9/WKMyU0mY7YFzcPoD0BSpOAT21M9kCCeQBIAEos3KI8FzvKkkzB/3NvLkdxcjmayHX9k7J82tK0k4ChJp92D/7DOpwdtzzGnQeQ/Xt6rutiSAL6vffDG/9pofE3C0W3jyLGwvdZjgtpErA42TaXbb2S3Os7+zyA9u+++MCXV6PDIV/dzyoMc7Q/aQvwR5sHMCjpzdR21tMkoOAzroJ+JACzojL0ttwl+P/6h97lduRkCf5XRgmsxmibZTL1JCBr0NkebPz8U28uJl3HQQ8b1I0/DyAZofK7fE/lns0/3+gT/F9O6olClN8E3nikeQBDleHgMxBh3S4U1qbiaNx6ya1t954H0L6grQu9/cDLK40r/WTqhCY3DyAeYx5Ay/8v/Ju7P7lYfP8yzDwACQISgIm66YX/uhCNMASjixeVJhmC/+Wigo9yJBGZwpnSJAHDlVM8MGmbkXkAzdbv2eg6H+BSe784qTHs484DyNjYK0UNBRo2ISruu/sFl72/Nw3+Q2B8tv0Ife+j/ePU0TDzAPp9VrZ5AE1BeQFJYNyZxJgHgASg1Co57b52FSUDgv+lPHc6Q7TY/Ub77PWoTiGJyLUsxl32QWX5809/b6N7QBxn+Mw4a93kcAnQbPMA2u652nKk90Mb/3nj4FKPvep4lEuRtr0nXCxhN6k9jz4PYMwEotAJwaPPA8hxIxxmHkB8mCwcJboDj7YPmAcQd52c3b3f6TGMKOmS0Aw3D6BnYl75nbs/uTK9oyzx0AcQOH7eoggKlcfR/72vu/Y//YP/xajb8JE4CXvJvL8u7FxfbTzvffljb8s0NO2DZ74ftoWwnGFOzHJ0OPyje/CSw1IvhxuGvfTQW9cmWRf1ZY97hmhH61b/m7/79PfCVXDW4/HXPfQRO/W6iff+6aPv6Npn3PnEGwdnJZcadVGpt5t4YFjZbdkGLW/6+8q9G39eeWHjr+ymwX/4rvVx6zo06ThpSXBCe9z71Mf/254HSh567M8WG20uLMN1UYYrY2VYt36/X9w8vbex/tTSxmTa3FGbKj7YTPr8v3O5DraJCw+8shp1XO2p+2cltXckR+sWAvgkaU/yXqzXf1z9+U//Ys995KX7tg/6nkabDwlo0mdZu6xv3JxVZVn/2utn0yRg52//2sf2i6+HSdU/EgCyumHkbbk14IJewf9IkymH3M+EnW24B8VO1oC/3ZcfvGqvsdMOQepaIyG4M6pPBCxquM5qmgS8miYBU5lA3xpMdG7kYQx83Hymokc/MCDQ3E5/f+43Hn1HpksEX3zsXc1nBbbCayee+K8hGD6Zfknl4PsHJTLdg7YetxRIovV7N/5zWL4Lw3aCPcqw1h6f//hf285aF88+8d9VG0lSrT899difLjSSgJMhMOwZ+HVbjp7BYIfw2RvFtani3pP1s7rWT/fyuSEN6peOzg9kTySavqeaPl9M2+X2L5z7hWrWZb7jMyvNfU/04oe/eFD3d3YmA/XsMkl6JQRDJUPhe1bzawPd2mT9tTzrGAkA+cjjDMBripE+zubUznoln5tp0J97EnqQEKSJwGZjJ3kyWyIw9K4u3CNgN00CyjiJfnGYIwH1tY8PBlmE4HfzNx69pjruQlx47N0hMNo58cT/W+nWnkY58t8mfO6lRsIzcs2mv6+mvz9xdvOvjd0en3nir+83ynD74cf+tNJIThbHD7Jb6nDh46f3Vh5/aml7/KbS9Ll9msmgRGbkwL8WF7cfoY+i9iP2fb630r6M7WXW+2h/nNZVsvn3zv38Vh4b3e2f/YeHdf/Sh/7xYqPNLw9Obrsku22r2SUoP/k7d5/Z+tu/9mAu/U9HYt6lepvrorNe4Ig5AAVpTABeaN10R+LmX3TVmPS7UsBHh6Dyxi9/9G3hsVvkOqSJwH762Eh/fE8IaAv4isKuyjJM7Db6ZNuOUDQEEjf+5qPXnMgj+G9NBH5k9588/iPX96+H4ecBtAeAB4FJr4/u8cLm1uZffU8ewX+7Tzzx13c/8cSPh/a3NTgIH7ouTxbVrDJNCp/wYeG+Vwjq9v/B8wB20v+/5xe3/u5WEct72/l/VP3g+V+5I2xTYSjRoGXuNXm5T10sFNRHD9p4ouHmNSABIE+5HJV19196BP/ZAtt46MQz7Giv/0rBgf+ARGAvybJ/yy7MB6hMNgjKOPl0OKFO3vObp68ptG7SJCDUwx2NZCNjojJcchNlf08t4UmD/42i6+3pJ388zBc5kfO6LX389F5OZ+gKaVMjfHf7lWh6B/iDr7rT773x2i9t/Y93/NLW/1T42bsPnr8r3aaSkPxuJwOT3qxXPYpzTALjMV4DCUC5E4C45w4fugnBf55j58NO9o408F9LH1MbLpMmAdX0cX008GjsSOU1cUPfhCruGWRv/7PTV9+YPiZSN2kSEIYF3VgffpG980qGi1sHBa97jeB/Yv1gmgRsHyUBw90PoM+63ZlnOyricq+ZPiPu/ln967w1cUj6HpWOj/qiOL7+l7fu2Jrktnrr+V/dTx+h7jebt8Phyq5rUL74O3efKSQJ7HU/gGETSCQA5CuP4MzNv+jcUT33ZiXKcBWTIdvZjWngX5q7TadJQMfR2DEt3vbsD1bLVpcZr92+/c9PX31i0sv2xcd/JATga72Ci1ECoyGOqIezQDee2/yrEz8D2poEjFKXHXWY/z0B4rHb1NhfnHT8P/vlNHvffbfeF/3y2eWpnfm+9fzdG+mCrA1a38Pf974fQPP63Zlvn9H/fgCtCaPAHwnApF037i4zMgGY7vI8mr3XCP5LN9TspQev6hGIjXw8c31qNwgbfR7AVIL/piQg1MHWsEFolGHqYZ95ALUg8NOb/83UDoA8VU8CdnJIZGrJ58cf2VssJoHMfnO4JI9GPERiMdw8gPiw3v/+FIP/A7e8cHdo89v96j7pOBrftzyWx6vnLImcMf9IAMrCGQByd+tzb4aj2MMFE73nAYT2daKMwX/XJCDOZZucyFmAnOYB7PzW6befKEE1hEnB1X6BTo7zAKYe/DcJZb+f07otT61NFR0Lts0D6Dwz0PTcex5Ard7/wdnby9QXrUUdNxTrLNT+9XL4eo7DgAZVrkQACcA8MAGY5uA/BLDrOX3cwbCf0rexRhKwndPH3Tnp5R9xHkA1yncI1Mi++Pi1+9HAKzTlNg9gLQ3+S9Emn3ryx8N6n+tZl8PNA7ghmmGHQXzcOwnsXef9jpQf/nziH5y9rVR90S0v3LN/sA0ON4ymZ1BeKSLoH24eAEgAJqEy5nYN7cLR67yGsKzNQvDfvLw5JcSLtz3zg5UyBldtHcEdv3X67aU5A5gmASEBq+YRuPQJUnY+s/Fj2yVrd1uj1WXHUfil3NvMUPMA8gw6O49+t653pom+zWcGtu48+8GdqIRufuGe3ajpYhxjzgO4YZzyT3p8fpY2YB4A3bgR2FR295k3xrkaAvRzn/72xniRUTxcrjTWXrD7JS/iUau8bvvlB64eJ4jK6+j1Vhr8b89S23npwav2bzvz/XA07soI21G7cFm+ya9/4/5GGW6Gtfml028vXXKWLttO3DaEqn6DqH5BSzJgfQ9vVHR4tLVMnnryJ/ZPP/onoa2stPYCSZYblzX/PswDWHj86aX9/Osly82e8rkh2KC732a6U3Dr//dWnr91reTdTzgLVOlW953r27culvIv/34v51XnSACYuDm8B8CYw1eGDPoK6P/GvOV6qM+REoBbnnszBCCLo+83koPz9+H7N2ex8aRJwN5tz34/HJEddxz/0m3P/GDppVNvLXT76rhrZ8+21PI3IUDcKmkVXDwo+26BzpABcUeQ9ZmNHyvrAY8X02VficfvF0IAuFtkm+rW+dXek0Nf2Hcd40Y2OODOuV2W5UTZ+52bX7h355V7X6ge9r+Hyx8flkz/ejl8fbH4pe22DPH4ey7mkiFAMKg/zc84R4DyOvo/1ev852AzGvfMWJxreeZt7UuPlLN+vvj4tQMS2HjUban62Y0f2yhxm9ttD4SHXfdGvFh4AJgU2pk1hrQMMw+gx3c33ru98vwts3KQa2f8eQBR9Dt3n6nkszNqv7/C4O93LgAJwPEKOCmXHx7lTbc8/2YIHCo5dOC7ZbrW/yheeuiqjomZI1qe5HIPmgjc+H31tx8p/dCs3fEC0c55AGlgVeozUmEYUNRr/kk8VBC+mHubGmYeQFxk2+4xD6D3nYIzTCwvlVfb17djnQbOA6j9vJBXP5L0SAryvfQrEgAKDQcYPhlKZqmOjtZj1DMAJ/NZjmRzTlrGdg51FCYDL02jTfdZ6nMzUPavDbelDBydvn9+40e3Z2C9dwclMhnW/drieqt4so24z0TfjFvl9onnb67OUJ+z26vuh7zxWk7zALK+7IgiEgCOa/IUT30J8rCcw3rsfuUjb9+dhxbw0kNXhcAhjzMZd06mtWapvHg/msbE5OHXZ68j6IzH2ja2Z6TZ/Zdk/LJbzKPPyb4cce59VjLw6/pdIajp//FMJLuHbn7h3h5ngeKo/Sj/9A/vxRlfQwIATCqJqAz7hluefzMcMVrM4bvPzVmtvJhDnVamvRJNwcLObz9S/rkZX3z82t1xNpYkntl2uTe4Lid9FH4aByhGnwfQ9Lc7/+tzP1edwT6n2i3pHa6+4uvGq+/eNxwb8kwESADmPOBk9lVy2LlXv/KRt+/MWbnksT7hakALk1rgAfMAXpy3hpthHsDe+Y0fnZVAsNpz3YabB5B/GWccKpkUXtdx9zbeMQ8gntW2/lr7+na063hQUD7+fVySDEF/0uPvQQJQ8t3jgZvOv7Fw7Itp/uYBDOv2kgTLpdKYDLyXQx1VSrD17/+LR66amTpKukwETkbbkmYmEHzqyZ+oRhmCrQEb/mKRvVGRZyC6B5r95gH0XpZ/+NxN2zPa7VR71X3/o+/j36U3y+f33s8I/JEAzKIlRTDV4HuKyUeXAHX09Tg3pzW7O9VtLB6mrfTeSSf5rMeUkoEs8wDiuUlMk/Heszj55YgnWwYD5gEkM30wIq4OKudi5wHEBf0tEgAKPFrAzIbfU3TL829W8miHX/nI2+e1Lb6aw/70hplfjxnLuA+23hc2fnTWbnQ4cDtKJlqmszcPIH3vzLf1zqQ3zmW7GH/7MvkXCcB8JAD17dYQoNmIaYqSRwKwYxvra3F6qetho5q1QHh/tPVtXu14dwY7gWrPdesSDJZxHsA4HWC2YV4D5wHMzd3te84D6FNueQ0DSvp+vvsBIAGYmS6kD0OAJrJzG6uOikwirsthiV6d12bx0kNX7eVQR4sTrtOOevyXj1w1a8Hwa8kI7bLt93MSCA49D6DgIDyeyvp3W89uy/KPnvs7u7Na04NuvJX0re44x3Ie8HvzAMjoLYqgMGEHVxnzM35YMea4n8o5W0iK71aXcliPG2597s2ljg9JxivK7O/PL3uLC8rPbnvmB5WXTr210MCko60c1WN19g9jxPXQtKltdm4brQ03/ekvZzkQjMvXV0y086uvT4/PbXv54G+TKJn1pG8/SzkfrW+3lC3OsS4H1WsBOz0kAGSSxw7OGYCS7lInZDGHz1idl7IrZKknuo/s9mVxdT6b7oCCjWd34nNZeqa+QXghy9EZfIZ5AHHSlAT2q/842p/ler3lhXv2Xrn3cz2S3kkH272+r2sfc5iYQDNDgIrbPvdy+AwJQNlimkntbJ5/c0lZTMxEy7r9EqDHIVWf107geM0DyD7Ma07mugxc/yRT51jMELCkb5uM+9UD1DgDUJw8duwL4V4AX//Qu+YiSPjq/e+Y6R7o5q3vXo7GG9ZVHabuB+2IZr47z/Wg2VglsjCt9Uiabi40axXXrcQH1cIst9vey967PPJq7M2fPbgMp3k0Om4JQ1vPDMQzO+xr0PomjRkPh3XTYxhUUfXS8flG/5CBMwAF+fo9794d7ZhCB2cByqMydO2NngAs9d3/5LEPG2NnU6p98QwFkLO67IPXLc6wTvGo20L563Ji201csu0zzvTy/MSi2SbjHl0RKS7F8oAEYPJ9RTWHz6goyGOp4EvATnRwQrmXOo6ulbEUmBR08bn1v1Kd73Wf5PdkuR9AnHsC0n7Vm6SwoS+zkvROan1HCfolAkgAJi2PMY83KMbpu3nru0s59KPzdUnO+dmnLM5rgFiWyjcPoPg2kxS4TfYbe95rXPxcjj+Px50HMP5VgJIeP/dKDI0EQgIwHXmM760oxlKY9E3ZBiZ+c9Gx5xoXJLO3HjMYFw26wdA8BxzJgIpMJlTZyUgNK57QBhC3JUDzGIh2ru+g+wEkuX1fvzYRT6a6kQAw0G4e3flN599YVpRTV5lceyh/4GgeAD0rYsA8AEcki2/wZZwHcHzKP/95AEkOy6OjRAIwQbWJwPlsc4YBTV1ybQ4722q59mPmAUwncZrPHbGzAdNZ9+zzAPJa397zAPpfAjOewzqfpXkAIAGYtN0ctnVnAKZvady+9eW1q6tzVyr2MxKZjA3EPIDxv25qSUfcPxlIenz//CWAccs8gOGOzMe5DQMyDwAJwGx4MYfPWLzp/BsVRVmSBGBaieCcBZHFJBEjlcir5VuP2U5kjvOR/6kvRzz9DTnpMQ9g7pKBHglxUkBdJBkq2DwAJADlsjvs5t3DnYpyOm7e+s5yDrv+vXkrF0eV6BkUZb8fwNytezLJcu67fcaTr/djkxTHA+q+/cyI+wEgATh2vn7Pu/dyuR9AFC2HuwIr0anI44o8+d/xNZcbgs3JPICZuyHYfJ6an+uzAfHw65ZMaHufyDyAeMA8gAHB8fy28UHzAIq6c+NwQb8DNrR7iyKYiJ30sTrm9r+QbsEr6U9binPiKl371uF61N0pLPeNEwuMZnvvUtXERwuE4kyVf/Q3yQyHg53L3rruSXsMmOS3cTR/9qAynFQZH31PfR2TuH48of37k8O/mJdEoL6iSXJUu/Ew782ps20v/95tcvY7aCQAs+zi2AlA3UkJwGTdvPWdxWj88f/V4ScAJ3tp110ZLTA58pWPvH1XLU4uJDyu+9pubXCWg/1xtrl+75lYlp1zO8y+vu0B6rxvEIPWtykrKiDp6p0gNv2+JRmFI4YATUBtGFCmo4wDe4kwGXhFiU7USg678VGC8L9U9Mx8bDRvKxRnW+lJzQMYPAQprysRxSP8TTznjbr/PICkYwhOXPAGJcBHAlBW53L6nHVFOVGZJ1/32cG+WNjS9e/zF1VfOc3y/QCGCTrzCT5nvTxy/J54ym0qzjrPo/1KNPFc1fXgKzDFE6oXSQESgFmwndPnOAswITdvfafSN4jO2Le+vHb1zghfv5dD6CABmHr4J5HpHhDNS20Pdz+AvIK9pCTr3nHVm/i4bBXt9wOYzhWXul8aNJ6bgw1IAObC1+999/7YScDRNnzWFYEmIo+zLTsjvm8/hzD0OlU4ndhAKjT/gWBS9mWLp9WwO49+J8dkg+8ebMcTuR9AIuhHAlBq54bZvPsIwf+q4ixOY/JvJYdd/6jDf/K4b8CSmpQtFLHIyRyv3vgrVN55AJMvn3gOG8Mw8wDyqYuj94045EcugARgur5+b20y8G5OH7d+0/k3BHjFOTtaR91i/+W1q7dH+ZyXH7g6nAHIdhagd+e+eOtzbzpTVFLzfXR8jucBTPF+ALM1D2AeA9B4yHkA8QTqJWtSIAtAAjBtmzl+1gXFmb/G2P/lHPrenTEXJY+zABU1KpQvMuAYZR7APNe2eQDdk8BkTreDac8D6P5aPFTiiASACfj6ve/ejcY5C9C6ES/ddP6NDaWau7yutDTulZ9eHWa32eMvb1edU4+RrZ/CmE6wHk9/Xed6PHqcdX3HnweQ9Jj8m/TYB5gHgASgnDZHCuV6BKuGAuXn5q3vrESZjpoPrKPdl9euHvcIvjMAcy45Buszr0d++6/bcZ8H0OVodDxP7TseuL7dhwrFubY/2TkSgBkz9lmATpdcFSiX4D+U4dlxP6fR4edx34fsCUD/eQASRMH79ILOeD7KLBmwvRU5D6DjyG48/XaZHNttIsM8gC7JQVLwMumvkADMjrUcP2sxMh8gD6EMh0+kOvve6ojX/m/x8gNXV6NMd5Ae6KSqlQ4Uv/bmAUxm3bOfgcjr+5O+H9Xl6HfXeQDze2fgpE/SW1yAP0wdOyuABKA0GlcE2s5xP7J80/k3zirZ0dy89Z1wWdXlnD4uz4neOznMA1h2NSAKin3oUhhJAeWUjPqenG/ONcoVnpJ5bvRTmgfQ/Lnd5wHEjvojASixcBZgP8cuc9VdgkcK/sMQmRGSp651VH1lxEt/9vBqDp/hvhEFOR6XPhw/2DMPoPjlSUpXPnN49L/vmY/B8wCSidV3t7KXsSMBKI3G3YHXcv7YC5KAIYL/c7Vx/5dz/MgTeS7fyw/UhhKNez+A4OS8ngX44JnvL6ePitY8+WjIPIDpJDrTmAeQjPHa/CXAw1yONY5M/kUCQLckYDvKd0KwJGDY4D+O8gqMd19Zu3q3gEXdyeEzwjquz1sdpoH/YlSfu3H5tjPfDw+JQEkCo3kPVKYb6JagnIecBzC/V7ya1DyArHUsEUACMEvCUeP9sbd7ScDwwX8U5XOFnHp9rBW0uBdz2n2uzuEVgc5GRxO3K41E4PX0MYW2f3xG3CZijYGdchHzAEZpdUXcD2C0I//xXNZzr5d6zgMYu+zNA0ACMDe+fu+7q92Dx7E33QtuFFZ08H9YR5uvjH/d/65efqB2VqGaU0AwN1eLCkN/ou4TtxfDet72bJoIPFt8InAc5wEUEyDObiA4qXkAg8Z9J1NY9/5/E89fu477lUPW+wHkUe/D1LdMHQlAmZOA7WjUqwL1F24UdsF9AgYE/+P1jyE43yp40bPdV2Dweizd+tybM3+1qKahP/3KoikR+MFG+rANFBAIjjIPYG6SmxLPA5hmYpfMcXs/Wr/2BLDIMfpZJ/LO+2VXkQDMr3AWoIijyCsh6E2TgMVjHvyHoP9KlNewnyMnXlm9er/gxQ/JYV7fEYYCrcxw8B8C+UtR2z0b+gQdod2H+Q8SgSkEiNY3v8BzmICyIyiNi16srPcDmMf6HzQPIC5B25AQIAEorcZVgbLPBxhue64Fvx84/8bycSzbNPivJUGNYDBPW2nwv1v08r/8QC3BOJfjR56d4fkAF0ZM4haaEoGz6aOAhNg8gPkNNIafeFuqeQA5r3tyrFv/MPMA8vm6JEOAn/RJTkACUP4kYC/K+VKSbQHQpTQJCI9jcRT05859ZyEN/i9Eo97lt7+9V1avWZvg6mxlTQ6TbG3h8qwlAR888/1QjyMksUn7uof7IuQ2FMo8gGxlkszZ+mT7/fjzAJKJBvt5JkTztwEMPw8gzuk+AHHX4D7Joe0iAaA8SUC47ONaEZtu49NCAPX6B+b8KkFp8F9Jn64k9SFQee+nQiB+xyTX5+UH3p7tLED29ZipJKAR/A/XZvuXxbmIXALB4zsPIJ7gPIB4hGA0/+RnuMQu7mwDM97We80DyFb+k7gfgKMPSABmPQkIR3u3C/yKEPxdSJOAyx/47BuV+Qr8v72QPtJgMSliyM+BO15ZvaY6hdUL7aKaczsofRKQNfgfIvDaeemht+7qaYoNFucx2SlXuWafB5AUte7xgIA/Ph7tPRmY9E5qHkB8DLdLJADzlwScGJgEjN+nhOA/JAEX0sfiLJdXI/DfSH98PRr2SPFwTqTB/1SCx8ZZgLyHHR0kAStlq9Mw4Td9XMm5Posow2Ozq00y9UPH58hjMqAwkmnWyxS+Mzk2W0OXo/9xUesfjzAPIDYPAAnA3CcB+fRjIcB6/QOf/VaaCHyrMlOB/6fTwP/Th4H/etRlrH+OO6GtNPjfnub6pklAGCI28O7AQ65z7YxQmgSERynmh3zwk99fSttmqNOczk4c3bPhpYfeWp1oADZX+984cxszD6CYBjCNeQDJWOs1X3d/HmceQP7bnpt9IQGY4yTgXbkmAQM6i5AIXE6TgCvpYyV9lHaycBr0L6WPMDTkL2qBfxwVvazbE57020//q0WNvr8N9X8lTQKmerWoNPgPCd2VKI+J261lsZsG/1t6lckHx9ExmwdQdPLVu9zjEtT13Ga/Les0/DyAuLB2MPhvnQVAAiAJyCYcdQ3B9cFZgVJcPrQR9J9NH683AsSVPHdVffrIEPyfKEt7aAwFKmp5FtPHpTQJuHzrp75XmXDgX0kfV6L6mZy8g5Miy+yYB/vxOPUyk8HfNNa351H4eNB74sKLpNtwk2Quc4DeSVhSaNJr8i/5eosimK0k4KYX3og6gt44z71N0t55LDS+L5wNCAHUbvp4NTx/7cPv3Ct6ndNAPwSjIQi9ofG8OIWiL1Xw35QE7Nzy/JvhaPZqQV8RyruSJgGhzi9+5aNvKywBDYF/I+gvMuE4UcTQn4zb0Zzp0uk0vVRf+1w7ptInRHGf8plUayj+ezrrtNt3Hr1W//uj9jBv7b7L/+N0fZOj38Q5f/3BZ3d+/9HPzeWfzO1t2JAAHM8kYL/AoK+fkAwsNx5RIyHYayQEe2k/s/+1+965O1Kg/5laoL+YfsZiI8gPAf9SNOwQkPxjjlIG/01JwFqaBCz1Cpxz2gEdJALhuvkhCXgxTQZ2x/3QD37yewfLfbJvYpdHncbR5ksPXrVTdH30Le85jYcHtbF5S4VGX9945su9+2cen0SvuQxqz31XvTkgj5tSofySkO6B/vGqDyQAxy0JWEuTgNei+hCdfDry0fqMhYPg8OCFD3zmWwc/hsRgv/9uMI6iYo/4jrtD3EyD/40ZaBLhfgSXo9wmy/at75B4rqbJQGvyl9Z1v6SgEewftJfrGsu6OKHy2U6D/w09Rxm2sfkKTlqOdMdJYauWRL2O+vYq927lPM00bB6D0m5nN5JC1nf8xEtSgARgnpKA7TQJ2GsEfuWYqNvax2QIRkt6Yry+HiemfbWfrMJ8gFuef/PGqH4VpIVc+/xaUBNnSv7SpKB7spcUUEfZP20nDf6N+5/IVjW4wc3P2YBsG9fk1rd/AjKRswEtw1M6j1InczcPoHsS1nO7GKs/jtu+QdDP+EwCnu0kICQA74nCuPx56Vynvx7V9HH9rAT/zUlA+hSSgH11eihsH1MM/ud95xv3fSkpyQY9qdqc1P0Akqm3ujjTd87jNeizXQq19Zr9g6/dn2d/GvcpfzMBkADMWxKwnz5C4Lc5K4FLicOi3Vrwf/KavVlsC2kSsNctCZiLMHT4fVetLF568KqJJ0TH534AZQpK5399x72nQpLTd49+P4D5OUrV+34AWQLyfOsg6Rv0H49DEUgAjnsisBGC10bgM9oO4RicRejTEa6lgf+N6WN/lle9kQQM1Q7mMNnb/vKDV10/jeCfIe4HMHfrO937AfQLVMmr2Ltf8//obFfcp47iHOs8Pj5HF5AAkCEJ+NC79tJHCP42p7YQQ/dBk9pF9fye3ah+1H9ubg6VJgHVqH4mIJ+hYfHU62gYW1825n9itXTc7geQTKtVZ/2eeMrlEc/f3Z+H2dlN/n4Acea/lQwiATgeicBGdDA3YD761SKEo8MHR/335q0NhDkB6SMkAVvHpE5rN/lKg/+1ctWEeQDze2RyenflHTQMp/ghSNnW3TyAQYlBEf3p4CFBIAGY7ySgmj5CABguEVktW+Ay5bBoOyRI83TUv08iEALiO5IyTg7Ob6dXG++fBv/bEtzypjrmAYzfaMpydD05Tg27x7pmD+rjHMqof8KVCPqRANAlEdhJH+FswIluicAxmwew0wj8T8z6WP+hkoCPvH0nrp8R2pnG9xccoGw1gv9SncWZ9+P+yTFf/3Jkd5OcBxDbJvqVTdwr8I4L3O7MA2A87gNwfBKB7fRp+6bzb6ykz+tRkTdhGvryw4VfLTus+8Wvnrxm97jW/1c+UrtM6B23PvdmuIvz2aHrv/f9AAoILTN9T0hmw5CfXVt3GYPg5FitV0ur7fJnY/dwGYt08N1pJ7DFttwPYN6C08ZE76TXDb+O7shbzF6t1w3ekgzvkRzQyhmAY5gINJ0RKG/wNH5ftd8I/N/z1ZPvOJE+BIr1RCCcBTiYKL4/Y3V6UK9h2a+fneB/vo+HJwMqdr7vBxBPsLazXNqxoHkA8ajrfpyuRNTvCkGDt5PhPj/OPA8AenEG4BgnAlH9jEC4Y++d6WMl6rijcLFHDQr69DAU5Fz62EmDfpeB7J4EhHLZuPW5N8PwmdX0cTIqy92k+wf+59IGs/Xlj101H/MZ5jAyOtyme6zfTB+HHPnI/viV3Xxkv9t3TqNcu3/nfN99tvVuv513O550cTR/b1JbovblOTojARIA2hOBvUbQvPaB82+E4SG3p73FctpnLMzQalSj+vj2c1+9/x1VtTpSIrDSSAQWS5bshfq8GEWzF/jP+0n34zmoIEtElyEwnPDy5BMEzndwP942ENeGSR4NfWouq7jpr/MI9Jvb1ChDgkACQJuvfehdO41A+sQHPltLBm5IH5X0sVTCfUVYzlfDs6A/l0QgJAFbaTIQ6jucEQr135oETm4eQLo8cajfi2nQv1viotuOxh9GN4ttN8N6z9+Rx7T1r8V9zpQNmgcwpoO7fI/T/+6NVedxWufJWN8/D/30jVnmAfSp/P3xt7mR5wHM3eWuGT+lh74+8NlvLTQlAjc0ngefIUiGbYBxr/cfnKV4LXSCacCvI5uARjJQaUoEx0oA4v7tYvcgofvyx96mfgFAAkAJk4LFqD5cpNJ46YbG88HrmY+AxfUjQ9VGcwzB3182nve/ep/Ju6VKCJL4oH4P6rsyRGdTr+ekdhTstUYdVwX8ACABYB4Ths98qxYofu2+dwro5zlJ+NT3wpmhcIao+pWPvq2qRAAAAAAAAAAAAAAAAAAAAAAAAAAAAAAAAAAAAAAAAAAAAAAAAAAAAAAAAAAAAAAAAAAAAAAAAAAAAAAAAAAAAAAAAAAAAAAAAAAAAAAAAAAAAAAAAAAAAAAAAAAAAAAAAAAAAAAAAAAAAAAAAAAAAAAAAAAAAAAAAAAAAAAAAAAAAAAAAAAAAAAAAAAAAAAAAAAAAAAAAAAAAAAAAAAAAAAAAAAAAAAAAAAAAAAAAAAAAAAAAAAAAAAAAAAAAAAAAAAAAAAAAAAAAAAAAAAAAAAAAAAAAAAAAAAAAAAAAAAAAAAAAAAAAAAAAAAAAAAAAAAAAAAAAAAAAAAAAAAAAAAAAAAAAAAAAAAAAAAAAAAAAAAAAAAAAAAAAAAAAAAAAAAAAAAAAAAAAAAAAAAAAAAAAAAAAAAAAAAAAAAAAAAAAAAAAAAAAAAAAAAAAAAAAAAAAAAAAAAAAAAAAAAAAAAAAAAAAAAAAAAAAAAAAAAAAAAAAAAAAAAAAAAAAAAAAAAAAAAAAAAAAAAAAAAAAAAAAAAAAAAAAAAAAAAAAAAAAAAAAAAAAAAAAAAAAAAAAAAAAAAAAAAAAAAAAAAAAAAAAAAAAAAAAAAAAAAAAAAAAAAAAAAAAAAAAAAAAAAAAAAAAAAAAAAAAAAAAAAAAAAAAAAAAAAAAAAAAAAAAAAAAAAAAAAAAAAAAAAAAAAAAAAAAAAAAAAAAAAAAAAAAAAAAAAAAAAAAAAAAAAAAAAAAAAAAAAAAAAAAAAAAAAAAAAAAAAAAAAAAAAAAAAAAAAAAAAAAAAAAAAAAAAAAAAAAAAAAAAAAAAAAAAAAAAAAAAAAAAAAAAAAAAAAAAAAAAAAAAAAAAAAAAAAAAAAAAAAAAAAAAAAAAAAAAAAAAAAAAAAAAAAAAAAAAAAAAAAAAAAAAAAAAAAAAAAAAAAAAAAAAAAAAAAAAAAAAAAAAAAAAAAAAAAAAAAAAAAAAAAAAAAAAAAAAAAAAAAAAAAAAAAAAAAAAAAAAAAAAAAAAAAAAAAAAAAAAAAAAAAAAAAAAAAAAAAAAAAAAAAAAAAAAAAAAAAAAAAAAAAAAAAAAAAAAAAAAAAAAAAAAAAAAAAAAAAAAAAAAAAAAAAAAAAAAAAAAAAAAAAAAAAAAAAAAAAAAAAAAAAAAAAAAAAAAAAAAAAAAAAAAAAAAAAAAAAAAAAAAAAAAAAAAAAAAAAAAAAAAAAAAAAAAAAAAAAAAAAAAAAAAAAAAAAAAAAAAAAAAAAAAAAAAAAAAAAAAAAAAAAAAAAAAAAAAAAAAAAAAAAAAAAAAAAAAAAAAAAAAAAAAAAAAAAAAAAAAAAAAAAEri/xdgAPaGRn4k56vKAAAAAElFTkSuQmCC;" parent="1" vertex="1">
          <mxGeometry x="-300" y="100" width="80" height="80" as="geometry" />
        </mxCell>
        <mxCell id="x97okhzxq58m8EEzVJWr-24" value="" style="edgeStyle=orthogonalEdgeStyle;rounded=0;orthogonalLoop=1;jettySize=auto;html=1;entryX=0.375;entryY=-0.002;entryDx=0;entryDy=0;entryPerimeter=0;" parent="1" source="x97okhzxq58m8EEzVJWr-22" target="RZYDAGDR_G7YQ371wjqy-2" edge="1">
          <mxGeometry relative="1" as="geometry">
            <mxPoint x="-270" y="220" as="targetPoint" />
            <Array as="points">
              <mxPoint x="-270" y="190" />
              <mxPoint x="-270" y="190" />
            </Array>
          </mxGeometry>
        </mxCell>
        <mxCell id="x97okhzxq58m8EEzVJWr-22" value="AI API" style="text;html=1;align=center;verticalAlign=middle;resizable=0;points=[];autosize=1;strokeColor=none;fillColor=none;" parent="1" vertex="1">
          <mxGeometry x="-290" y="150" width="60" height="30" as="geometry" />
        </mxCell>
        <mxCell id="x97okhzxq58m8EEzVJWr-26" style="edgeStyle=orthogonalEdgeStyle;rounded=0;orthogonalLoop=1;jettySize=auto;html=1;exitX=1;exitY=0.25;exitDx=0;exitDy=0;entryX=-0.003;entryY=0.377;entryDx=0;entryDy=0;entryPerimeter=0;" parent="1" target="RZYDAGDR_G7YQ371wjqy-2" edge="1">
          <mxGeometry relative="1" as="geometry">
            <mxPoint x="-500.08" y="262.47" as="sourcePoint" />
            <mxPoint x="-299.99999999999983" y="269.4900000000001" as="targetPoint" />
            <Array as="points">
              <mxPoint x="-500" y="260" />
              <mxPoint x="-300" y="260" />
            </Array>
          </mxGeometry>
        </mxCell>
        <mxCell id="x97okhzxq58m8EEzVJWr-30" value="" style="rounded=1;whiteSpace=wrap;html=1;" parent="1" vertex="1">
          <mxGeometry x="-660" y="80" width="160" height="110" as="geometry" />
        </mxCell>
        <mxCell id="x97okhzxq58m8EEzVJWr-31" style="edgeStyle=orthogonalEdgeStyle;rounded=0;orthogonalLoop=1;jettySize=auto;html=1;exitX=0.5;exitY=1;exitDx=0;exitDy=0;" parent="1" source="x97okhzxq58m8EEzVJWr-30" target="x97okhzxq58m8EEzVJWr-30" edge="1">
          <mxGeometry relative="1" as="geometry" />
        </mxCell>
        <mxCell id="x97okhzxq58m8EEzVJWr-43" value="Database" style="text;html=1;align=center;verticalAlign=middle;resizable=0;points=[];autosize=1;strokeColor=none;fillColor=none;" parent="1" vertex="1">
          <mxGeometry x="-630" y="163.5" width="70" height="30" as="geometry" />
        </mxCell>
        <mxCell id="x97okhzxq58m8EEzVJWr-44" value="" style="shape=image;imageAspect=0;aspect=fixed;verticalLabelPosition=bottom;verticalAlign=top;image=data:image/png,iVBORw0KGgoAAAANSUhEUgAAAfQAAAH0CAMAAAD8CC+4AAAAGXRFWHRTb2Z0d2FyZQBBZG9iZSBJbWFnZVJlYWR5ccllPAAAAGNQTFRF+8uOrsPQ1uHnhqW5Z4+n9ff5mrTE+rJW6/Dz/eXGwtLccZate56z4ejtuMrW//nx+J4rzNnikK2+pLzK+79y/vLj/Niq+aU5+atI/uzU/d+4/NKc+8WA+rhk+JgdXYeh////+fphdwAAACF0Uk5T//////////////////////////////////////////8An8HQIQAAGZxJREFUeNrsnYmW4joOhslKyAZJ2KGA93/KrupaWOJFTmTiwP+fM3PPdF+omnyRLMmyPLlAb6cJHgGgQ4AOAToE6BCgQ4AOAToE6BCgQ4AOAToE6BCgQ4AOAToE6BCgAzoE6BCgQ4AOAToE6BCgQ4AOAToE6BCgQ4AOAToE6BCgQ4AOATqgQ4AOAToE6BCgQ4AOAToE6BCgQ4AOAToE6BCgQ4AOAToE6BCgAzoE6BCgQ4AOAToE6BCgQ4AOAToE6BCgQ4AOAToE6BCgQ4AOATqgQ4AOAToE6BCgQ4AOAToE6BCgQ4AOAToE6BCgQ4AOAToE6BCgAzoeAaBDgA4BOgToEKBDgA4BOgToEKBDgA4BOgToEKBDgA4BOgToEKADOgToEKBDgA4BOgToEKBDgA4BOgToEKBDgA4BOgToEKBDgN5TUeoFQVB7aQHob6IkPv8prNMI0F9f6flBdQroLy7v3FboJYD+wqrOYsUJoL9sCJedZYojQH9NlWe5Qi8C9FfUr6HHpdfkLexZBeivp+Ibbv69gCdly9kHCaC/aLp2rcn49aOPLwD9JfO1/PaPEi+8p54C+itCDx4i+vTey5eA/oLQw7bbz0a5sAM6Rf7jmv5n7Q9O/hx8KvY8zwf0sSv6SdgEf5XUkvQ9aKoI0Mesn9xc6L+rUFq3yRsf0Mees9XCv0xyVb0urgB9pP79x5rFhhupqJ/PmWt1WkA3id/PmQRfrKTuWnke0Immnqkc/OfCnmmwp4A+Pv1uqHuKf6eoPpO1r6RNFNoFBaCPTr+pGS0u88v2Ot9EgD7SWI68tdLejAsrQB+Z/N/km26w/mOAV0eAPi79ts/EBp9pbcaVgP7Ky/rvsvCA3YFtGUA34fcTnIVm3B6wD7+yA7qJih96uenb0ji1sgO6kVJCti5e24O7wqwP6CPSbzhuXmnx7xI4D9DHt6xn5h46ujsZFUSAPrplvYupFrkb/bOAbqrfIrwogo98v1LG5p4TnZSA3nVZD9rBWq73AXfGHgP6aJb1TNZQ4d0dhJF8+rYym0eAPhL50q11UpR321OXFYA+EtWyVf03tvfI8VzoA/o4lPzsj0tj+1Dttu9cfAroY4rlQpEV0xK6clDqgN4jbaukSZk2i79d2D1AH4XkXZLfDTZ6jkU4XOoG6J30s30iWrobeX+8MOgbgDqgd5InX46/oryMlO8PRh3QO6lQdMHH1NjsNoiPAd19ZXL/ntAJxsMU4gG9mxpFumVQZYsHydwAvZd/7+2VB6EO6L38e3jho/68DXZA76iyQze0K9QBvaMStqg7f/pOK6D3Y9Xfv9/m6wGgj8K/M7jkmxHTDaA7rYivqnJTh08B3WnVXP79LwF8VjAH6J2VcsXvl9sLYrII0F1WyFg1vyZuNaC7rFhef++TuJWA7rAKzsaXKHzesg7ova0z4/ky/1qjAXT3QzmmNMt7WtMcoPdRxmnql+sRdh/Q3ZXHGnol4ZPyNkBniL5CJkbVk8qxgN5LJS+j+jkOHtA5VnUuRte8LQd05wN4rliuekoED+g8IXfM+3XGs+oA/ZnyeRvXrxF8AOjuquGlfi3RVIDubtqW8VL/a6PJAN19B89kmpX9LhpAZ4vguUwzsG7qgM5IncfUC+umDugcKllz69h2AA/oLAo5oSd/pl4Aurv6ya65kqzY8ql1QGekxFVE+zP1MAJ0x717xv0S2QrlAJ0vU4+5v9DWZhugM8hjr5tmVkM5QGdQwHfA6f41shTKATqD+PnYDeUAvb8KCx1Ogc1mCkDvr9JCpTy1WYAH9P6qbRxByyxmbYDOtaQztzeVFgvwgN5blRU218ZYH9DdU2PngHFjL2sD9N7K7VRRrnttCaC7uaSH/N8bWzvjBOh95dsKt+wVaACdJ8y2UUOpbRVoAJ0n4LKxB+rbKtAAel8F9k6ZBpYKNIDeVyHjiKknmTqgswTvZ5tehN3UAZ0lxrZ0LqGy00ED6K5mbP+VWanFArrT0FMr2y6A7jR0O6YO6CzLrjXoVnZYAb2nPCmSKOe49cHGDiugW4Nes0zx9iyYOqDbgt7wlGwSC6PlAJ0lvg7Ef85x/MHCwWVAtxO9f9/Fw3KrD7+pA7oV6L/ThziaXgJ2Uwd0FuhnwYLOtRNesZs6oPN4X+GbwNRFlXGbOqD3lciP16yzglLuFklA54Hui9MsHuPMmLuhAZ0nzirbuTvfOuwxmzqg8+TRsdAymYzzWouNAd0JtUtyN96dyTg93gAe0PlztvQOOstRhYz1Sh9A7+17WyYY30FnOaqQsi4XgM5khTdlmPwOOs9RheudbYEP6K5EcvljEvf5RwGfqRc3b1HWJIA+sNKHgO2Pj+czmnpz5z3iBNBdWNT/MvXqeic2o6lHD4tG7QP6kHq4XNm7plecpl6E99TPeQrow6m8j9//HPE1/mIppKWP1M+hFwH6QPopxtQPgXZ+YZ4am8Tnljot7oDOoPrOnn+h1zf/g2k4SdK0rP3cRIA+hO7t+S4/97n726ome3TyKaAPV5/5MfX7rfSA/4BKUT5E8kEC6IOl6sFdmu7fJnDMx1oT787ewxLQh8ra/ufq/sP2Wna2M2euisOuxg7onKv61zqe3mRsN39lYYZ3lAbdjB3QWQP4c5DGj3MEGovj+m+zuCAC9OcqyloZ9KPvtzKL6FJcrT30AX0YBy/og/25tS239JPL0LRhA9CZI3hR74Rv75KG/y/V1djzBNCfqljeOvH9QoTJxbqxk1w8oPPptvM5v4+qGrvzKm6N3QP0p6oKJcx/3UBp72eX1532CNCfGsN7/7FnpcT523Pwn2H8X21WO/YE0Lmfve8n8iU/sPmj/zbywwrQXQr0Sps/wQ+vnVqA7hD1wuZPiGpSezygPzm8zyOrP6LKCEVZQH+mUls1+Btjb2QJBKAPpK9Vt7L9M7L7nj1AHzy4z89hYfln/K7sHqC7ksrXtpf1y19FuAJ0V1SyjA9VK1cW+wF9iHDOQjCX+JXnxcGPMmUwB+iDUGe9VLFI4+AsVgzoDlFnu4nnvj+ypRLQX426ryYum2MH6MOoCpv+Np6pgYdxijXdrYQ965e5VRobDzx5Dw2gD5awe732WWXM8yD2Sl+9bw/oA2Lvk6EJoOdNRSv2AfpoQ8H79bsu6V05gD5WNxHeWHhpVs4H9LEq7j5PENDHqqT7pGlAH62ubfamm7WAPl7lXakD+ogdfNhx7gygj1jV7X5aBOjvofJ2THAF6O+Wt311QiaA/n7Uz8SxoYA+ct1PjM1SQH8HFfe76kEB6G+g6wE26lQCQH+FIP5+n1U7WwzQX8LF3w+L1RXoAP015BH6IQH9xY3dA/Q3TN5iQH+PMN4LadQB/aWwlxmFOqC/mpPP9NQB/eVUBTrqgP6C8gP1ZDFAf03smWoWBaC/qL5Ls+LaHKDza7Zy4bf4HgwtPCX5ltBXs8lxOt2c/ms6/ZgcZvP+qA+T6fR01Xa6nOwHxV/KqEuhV55QXcYYp2zfxKD5erk5CbRZrrsT2h+3J7EWHweDr51NHtXr/+v/rXYBdem3BgbjLDQSn6r1h0C+/zgptD3uunzncnFSanug+pFJ67M9izWxkLoUumTKQYfbZ3yDwRh2td6cdKID+nEcB/13fmq5GwT6d0G+RV0KXTbhwPxQdSP+Is9B5P8d8pLuj+eTxYmo6W4Q6Jckbz9qGfTIaHKNUpnJtCt7wdv0RBYV+3pxMtBxPgT0r4bZjAjdl0E3nnZYyIaiPNfMjficJnPe1+jbh8wGgf5JPaVBr85c/r05s0UH3bU05HPa7Jlfo29jHwT6pclo0L0zl3+Xzr16Ypo2Neez0Hzn8dRF0/kQ0C8JDXpzZvLvxXlw6PPtidsou7xG39nBfAjoxDU9ODP5d/nb87REvROgFftrRKDuLvSUx7s/DfqyC5ulJeZq6gNDV8wirHm8u93bqm4Crk5oZraYf67rY4Ru5N/l3v1J1ZmVLMjeLCez2Sfbz//aT47TDRWMynVMP74r5h/TbuHCsNAL48nCxt79SdUZ8eNftKvs8/3kasF7o4X3+yU63nmH3UHuD/ZuQvfPPP5d9fI8pTozM6q9zNffmycb1f6K2MYFIFcyl7CYOwk9PfP4d4V3f051RmToW2UZfP1xOq0VC7pouViszYp2Syehe2ce/66cSD6QoW91JdaVaqftw6zkcliYxInDQm/OLP5dGRo8A/pHB+ZK7U3Tu52Q+tZF6MGZxb+r3x37ifpc4Il7dTDNN4bMZdTX44Oecnj3J0AX5OiHfo/LmLmE+sZB6JrrYIj+Xe3dn1CdWRIfNtnQF11Wiz05bXMaesjh3Z9QndkQ3Wr3l2ix6/QxSflnUOiJBjrxZmDNbUKNbeaCJX3ObOiTjp8T7+gMCv2xNpN1qqbde/f6+dWZmUndu9OKTlwt1sRi7KDQq8cbYTr59/tPpc+Hvu9mmFItOq8WG1ooNyj0h9pMUHTy7/f+IcqenqhPeKGvu4eFIlPfOQ790sW/P3h3QRo4Mugf3cNC0ap+dAx6/Ui4i39/8O4C6MmooK/oGydtHUn+fVDowWNu5Xfw7w/eXVDPv6/OFP6j9IW/pPUZ9TNc9nhUhz7ftiPF725Bb59Hi029uxZ63aF64yk90IS1NrOl74vTQrmDW9DbVZTY2L83j/xSTXWmS3jfKD8yIUVPnZP+hcnHBf79w2novujwQ2Xk3RNRY8Y99KjDxk6gLPh0qZQbBOAf/WoGArczJPRE4IZN/XvRapjwdSW52nxjJ1N+Ys25ybbsWdI9EcqDQ0L3BdBrQ//etFdnnftOzTd2Wp8oNNZlZp7qRdns/ZkSWilcgp4Iiaj9e95OznTQI+M+i0T9gblRV6JxwtY3f2wnkENCLwVPMjLrZk0E7XChzlnUpoGDr3mNRCfSF91iuX3fOv6e4HWGhO6JzMfMv5eCiE1bkktN26Q9zb+/NOpFtVvoWRG2V52Dbubfc8FKq4WenHsFDu3MXny6ZdvF1qe91wnBb+IS9EDUq2zk3+/x/RyPjrUNU7k6MNNnbL6+5N3Rwy96p/xTffjuEPRAQiSjevdG4oxb0EvDRotMF/jJjhsYN9DMT715LPXhu3vQSwMzFHl3AfRK698zo4wtICykPzGU4cI+6xu8C8N3l6CLH2VCN0Ohd9fWYYX+PTEJ3psL1dSlh1LIuy3GTThrfc7mEPTmYurfS+Ha7+uhl0abLqm+grdSHBme9TJTY+izUUH3Lqb+PRc6cV8fCiZGJ948wu8zYRgddhE1UExMH/VO30cxIHRfAr2g+vdEnHZFhG20zGTTJaAkeNO+o8Mk32IM/aJP1B2E3iaSmXh3fR1WlHmrNl0yylbsXDkockE88bJ9N+ipnEhh4N0F0NumWRhsukS00xO7Rc+JcWJg5jX8hcvQPVk2TfTviQwspR/WoGfWJx6O01AnRXRmU2moS8QYoBP9eymzVEo/bEOv9pbU5V9HXR/Rze1A34wBOs2/57I1OSB8vKBXe2NyoL/SzYNaaCK6mR3oJ3eg11LoFcW/J1LzqymnlTPypktO3wuYf2jHgq7fG3og98Ehwb9LvTuh+C70Jj6xCKtsrjpo5/duZ4AuhB4THLTUuwugC+ptFbUa4JudnVjpJ0dOV1ahL12GnsmhE4jIvbsAuijJCjtVAwhN2TP9kFjZIH4W6BOXoatCbD2RUl4v8UnQY2I1IDYfj6G/0UNSrHk76KEqyGsTyeX+2ydF5hVx0yXvMM2EcOnKZgboD8aq3R5NFOusTzvDEtI2XcyabAyWdoGPtwR94Qx0XwUm0m2DlYq/LGjQY9Kmut9tDs7lstMu7dvVk6BPxwFd4N8TqncXFN+FNlyRNl287hNr97qlvdVExwL9OFroqXrFTZQmSjvNEJE2Xeo+A8p0S/tjqWb26rX3Sgld0+ZQKg2ZeISlpmyqh52W9L+ITre0r98LuqeO1NRtbLkyiSduoVFa7JOuS/pfRKdZ2nca6BMG6MuxQFe2sSVq6wtoJVZKi33a/8qA2Za8rluCPhkLdKV/L9WFGyJ0yhGquOd1cfpizfadoMeaqpnKv6u9Oxk6wb/nLEOLlMWam2ez4hhvoD9zMRz0QANdsW0SaWKrmNgBF2lL/JHRoQjV0v5BupvN6NIlMvSZs9Afc6FC7t9TDQjajovIJWSaFKPHnNn9gnCZFgP0uX4CjjvQfd0u3NW31prYigxd22LfdJpQLKEx1Ufwi/5n2WYun1rNddAbmX+PdCDI0BPdv5izDp+UJe1LRRDGAH3jDnRtrCX176kucy7JDc65umAbda/BisN4Sdqmgm5anSGcjHIYutS/67w7dZtN+HokqvC+9yURa821ecf+je9Hl2fO6KHHYv+u9e4G0BN1iT9mnzI7Ud+QOemfqE/1p+TdgV4QtsFyknc3gN7277XC12QMT2KqjN8pY4I0IsyyGAy6TyiPh0LnW2uXWZ8+VMZTbbokFi4GEY8qUYTehnNmV4RQ0GnowiJLpC+7JPRJcYWqjlMSm6T7O/i5PFE3vA+GMpPMaeiVKApPCWeMDMYDqu4VqHvusNFN/S9E3/QN34+EKf9OQ7+IZvfWhCTKALrqXoH+O2w0LDdgP/pGcpTJ4YNBTylYBLN7I0pR/UwfVlTIN2cqxnKcumR2hT4hX5hKLsLO3YHuUaALZvdSvLsAuk/3743ECYRcD0MFfdZzUV9TivfOQA9p22DngHKCNDOA3kiLcpkV7y7ywDfrds9pdEvCxQ7uQBdn0m3/TiqRBQbQC1lRrrDj3TW11m2vTF0QJa5GBz3VQE+o0BXEQknSVlry7mrox17+fU2KCAaDHpOga25jlc0HCKjbbMJqQCws1rF5d7V7Fy3qhx7v08El6AGtUJp38e5m0CtxJ0Viy7tr5jQvehTlZjQv4Tr0sot3N4Pe9u+JVe++OykPmy17hHL67udRQFf694xeUVdBj4UBQG3Lux/UPVH7U2dTp56VcB260r83dOgqZpXoeyMbdXdZpfXu8Sw6r+pTYmHHGeg1mR+hzObR91ZF/j1o5w0Z26NQFuRk8TvpbpADdV0YDDrV/xYdvLsp9FpQKKrpy0Pv2P3+/PhK0zErjRUW1GXBeeiC6pp+e9sQetqO5CL2nhl5cf0x2vrQHImQ1GW25FYr96E35t7dFHrUrt+lBh//euKrHs79MdqadbkaRMR8ehkrdKl/Dw1MVznPXXQIPTA7wrYkDnUXThLdEkp2Ouoi5tI7f9yHLmia0gbkvsGGuugl8RKzJP3/MrzUdzusFySaM117fPsX2JqsCCOAHkugV3zQH/27V5o1x/0UVLZrZZA9P2qPrSoKNKphk4cF7XsHhu7ToVfG3t0YeqvOnhuFcTfx9sd+bmbmwvrJamEyR1oyrXA3ZugS/x5zQn+w7MwsjLs3zI+D4HHvjjKOR2LK/Rucre+5rw4b4zvhBIdgtPp7dSd/+vzhX//4fstn33/CBj029e7m0Atlib8iG/pv4j2d7Ge/Jr+bTT7kUwm2Ys+gGie9WX5++5f2k6X0i5eGaaNOgiDzJ/g4XH9hU+jpxdC/X8ygR2pwWZcSv3oFJkl2Ned8c+ql6eVp0DfXF98Uum+QRmvPEvomTXKaaoD2BNuqD5y9UXJH1nZuC/oP+NlNmjH7W48YoQubplKjaosWeiVnHkb2DH1tWMZhYc4KffG9kmwo0CsTKKKmKTUJY+iRHLqu7H6wwlx6wpWg5fzyNOjTzVejxu7zh+qheyZQIkPv3gG6YgtXW3bXT4HtcrXH5yPt6OG1jfKs0A9fodzxc6Fihi469MANXbqFS+meWHfBs9HejL7rGM1t1k+EvvoK5Raf/+GGXpoG4+bQq86G/j/Ynhhjp9yyrb8ISIZdeS0UK/SvZO34VW7ghp6Y7Z90gR71MPT/MbxZPLcgDpjYdw3iVbeB8UJf/7TXc0M3vl7BPByTZer0jfSVgbWTb9z99CEnduy80P/3d20v/NBLQxQdoAe9DP0b0HpLonFcmXzraslt7czQl995CDv0xMy7d4Hu9TT03xq7LvjSbMUJX6bDlhU7M/Tdd3s9O3T1TQ72oHdpjdtN5Cncx2F16aTVQZUXbjdG2JmhXzb/6zN66O7J61CMk6fYh+X0cQ/meJj1+w1nk4+tcG9npVz5F5P5ME90pNB7zo3bzX61Yvs1V7PZ4Xdvcz+7vkaqicMDYR8B9Np8e80tzRTRxGIF6MSUzb+MS/LbfZewdFL9p/8k2OdLdk/QAu5dqIYvihtS4s2fYR6/89CjkDuKG0qCKwA3F0CnGXpwGanamz8zQBep3RgZJpfR6iF9m14AXeTcM9MOWNfTt616vhSgX6K830aL2+nb8QLoJOZ5NHbof4eoFnNAF6zn+Ust6I/p2/oC6C2V4fhLcYr0bXsB9EfPnmamPfXj0mQG6JfEv67WRVqHZmNNoFFC/7+BmgWfOp97tkJCo4KuFJi/H3Qwfz/oYP5+0FOgejfooQ9S7wY9iADqzaCHJTC9G/Q4AaVXhV6FQP520C+XtNXgnnlA/uLQL5eoav52U8O6LIDnDaD/V+F/CWTeCjoE6BCgQ4AOAToE6BCgQ4AO6BCgQ4AOAToE6BCgQ4AOAToE6BCgQ4AOAToE6BCgQ4AOAToE6IAOAToE6BCgQ4AOAToE6BCgQ4AOAToE6BCgQ4AOAToE6BCgQ4AO6BCgQ4AOAToE6BCgQ4AOAToE6BCgQ4AOAToE6BCgQ4AOAToE6BCgv6P+CTAA5gBwDFQgymsAAAAASUVORK5CYII=;" parent="1" vertex="1">
          <mxGeometry x="-565" y="166.5" width="20" height="20" as="geometry" />
        </mxCell>
        <mxCell id="x97okhzxq58m8EEzVJWr-52" value="" style="group" parent="1" vertex="1" connectable="0">
          <mxGeometry x="-643" y="139" width="132.5" height="30" as="geometry" />
        </mxCell>
        <mxCell id="x97okhzxq58m8EEzVJWr-50" value="" style="rounded=1;whiteSpace=wrap;html=1;" parent="x97okhzxq58m8EEzVJWr-52" vertex="1">
          <mxGeometry y="6" width="128.5" height="20" as="geometry" />
        </mxCell>
        <mxCell id="x97okhzxq58m8EEzVJWr-39" value="" style="shape=image;imageAspect=0;aspect=fixed;verticalLabelPosition=bottom;verticalAlign=top;image=data:image/png,iVBORw0KGgoAAAANSUhEUgAAAgAAAAIACAMAAADDpiTIAAACzVBMVEUAAAAAAAAFAAUDAAMCAAUCAAQEAgQDAgMDAgUDAgUAAAAAAAAFAAUCAAUDAgMDAQQDAQQDAQQAAAAFAAUCAAQDAQQDAQQDAQQCAAQFAAUAAAAEAAQDAgMDAQQDAQQDAgMEAAQAAAAAAAYEAgQEAgQAAAYDAAMDAQQDAAMAAAAAAAACAAUDAQMCAQQDAAMDAAUDAQQEAAQDAQMEAQQDAAMAAAADAQQDAQQCAAUDAQQDAQQEAgQAAAACAQQAAAYDAAMDAAUAAAADAgUAAAACAQQEAQQGAAYEAAQDAQQDAQQDAAMDAQQDAQQDAAMDAQQDAQQCAAUCAAQEAgQEAgQCAAQDAAMDAAUDAAMDAQQDAAMAAAADAQUDAQUAAAADAQQDAQQCAAQEAAQAAAADAQUDAQMAAAADAgMEAgQFAAUDAQQFAAUDAQQCAAUDAQQDAQQAAAADAgMAAAADAgMDAgMEAgQEAAQDAQQDAAMDAAMDAQQDAQQAAAcAAAcDAQQEAgQDAAMGAAYAAAACAAQCAQQEAQQAAAACAAUEAQQEAQQEAQQAAAcAAAACAAUDAQQEAAQDAQQDAQQCAQQAAAACAQQEAAQAAAADAQQGAAYDAQQDAAUDAQQFAAUEAAQDAAUDAQQEAgQEAAQDAgUDAgMDAQQEAgQEAgQDAQQCAQQEAAQAAAADAQMDAQQDAQQDAQQCAQQAAAgDAQQAAAcDAgUDAQQEAAQAAAACAAQDAQQDAQQDAQQFAAUFAAUDAQQEAAQDAQQDAQQDAQQDAAMDAQQDAAMDAQQDAQQDAQQDAQQDAQQAAAAAAAgAAAADAgMDAQMDAAMDAAMDAgMEAAQEAgQDAQQDAQQDAgUAAAADAAUCAAQAAAcCAAQEAgQCAAQDAAMEAAQCAAUDAAMEAgQEAAQCAAUCAAQDAQQDAAMAAAAFAAUEAAQAAAADAgUDAgMDAgMDAQRUIZJyAAAA7nRSTlMAFzdVa36RmaCqFgU4bZvL9MoCNn/B9vV9NARGnOrpmkQDKo+NKFTCTQEIbN3QVmbkSNvaThyrum/y+ogG0SleZQmiC9LXLULx81H3+Vf9/nF3iodyW2BL+0kR4OITsLN2OhDh3w6VkDP8Mchq7uwUkhqYlIOA611Zw74mI8WCUywSedTVFXDW2NklB267Obb4zhjPPg+xK69kwC87Ya6BPKGfuYaJt81DDN7txLXTIsckpcxHHXS45fAwNbQ/58a/TKxYvObvregZISCX3Epcnj2Lyb2kDWJ4J3yFelBAaFKMQWl141obMkUKp5adtnqo5wAAEjVJREFUeNrt3fljlNUVh/ErCUQWlUR2REDFmghiURHC7pJCCUxehIqAWyQibhRXcAUFFWMDalFEWdS6oVStu1Rr3aq21rUquKFWu79/QydRkGVmcs977zvn3nu+n58zzJ1znsCQzLyjFAAAAAAAAAAAAAAAAAAAAAAAAAAAAAAAAAAAAAAAAAAAAAAAAAAAAAAAAAAAAAAAAAAAAAA4a482JaVt25Xt2V68PcvatS0tadOBeyNF07HTXnvv0zmGXXQu33uvNh25t5Oyin27dO3GPWmXde/ao2cF95bS0qv3fn24B+yD/fv268+9qxQccCC2r23/gwZw78uu/gf/hHumvul6SCX31qypOnQg9zh9NOiwMJ4NdBx8OPcofTVwcAD/K/jpEO4x+uyII7n3Z+ioodwj9N3RPj8d7DVsOPf8/Fc9YiT3HpM6YBT38MIwajT3JpMZg5/3WtJtLPcuExjXl3tsITnmWO59Ug04jntmYTm+hnujND8bzz2x0Ezozb1Tip9P5J5XeGoncW9VX+lk7mmFKFPHvVddEfeoQjWCe7N6pnDPKVwncO9Wx17cUwrZVO7ttm5ahntIIcv8gnu/rTlxOveMwlZ9EveGC+vUnXtCoevck3vHhcyYyT2f8M06mXvL+VWewj0dCU5198WCp3HPRoY67j3n06aWezQyVJ/Ovenc6s/gnowUsxu4d53TmdxzkWMO965zOWsu91jkmHs297Z3V3EO91QkKXfvPSPncs9ElrHc+95Vh/O4RyLL+fO4N76LX3JPRJqDuDe+s/m47EORTTyKe+c7uYB7HvJcyL3zHXXAi0CLbuIe3FvfwUXc05DoYu6t/6jqEu5hSNSninvv213KPQuZFnDvfbuF3KOQ6TLuvW9zOfckhMpcwb35H/RIdPzpV1519aLF3l78wJaRixddfdGVyV5Kew334X9wbYKzLxm2lPvYLulw3fUJhjiI+9jfG00/+Q0Hu/fbLGYVJcvoc7yR+9QtplKPXdujkfvMLmrsUk2d5E3cZ27xK+KpZ7bhPrGrmqgvqlvOfeJm41bQDn2zSz/CdMwtt9Jm2c2Fv0p/TTtz+UruA7ts5T60abrw+uBrSCc+3rUXMjhmKe2p4Gnc5826jXLgCT5f97Iobie9u3IV93GzSE9cnH93M787KPOczX1apeop1wNY7e7b2pxReRlhoJl67uOSngNOvp37tD64k/ItdRf3adUawmmHch/WD2sJI72U+7BqHeG0LvynxQPrCSPtwn1Ydbf+YZfhGYCWSsJnbNzDfVh1r/5hf8N9Vl/cpz/T+7nPqh7QP+yD3Gf1RW/9mZZzn1XpXxUo8xD3WX3RoP//gA3cZ1UPa591FvdR/aH/OWuXcB9VTdA+60Luo/rjEe2hDuc+qtJ/EcNG7qP6Y7n2UGu5j6q0j4ofA+kjfNhee1N7lrVrW1rSpkPSsxKOyj1Wf7TXn6o1ncv33qtNgk8qRQAp4AigRfeuPXoSX6+LAFLAFkCz/fv26084KwJIAWsAzQ0cpP/CHQSQAu4AsroeovmbGwSQAgcCiOPfjtH6lwABpMCJAOJ44GCN/xUggBQ4EkAcH3Fkq2dFAClwJoA4Prq1p4MIIAUOBRBXjyj8Fn4EkAKXAojjUaMLnRUBpMCtAOJuYwucFQGkwLEA4viYY/OeFQGkwLkA4uNr8p0VAaTAvQDiCb3znBUBpMDBAOLaSbnPigBS4GIAcaYu51kRQAqcDCCOR+Q6KwJIgaMBxCfkOCsCSIGrAcRTdz9rEAHMeLSmqV+JOx7jXnQ+mWmhBfD4YT1+98Rw7rn6o/rJgAJ4asyes7gH6p3OPQMJYP7Tx3HP0k8zZwQQQNW0Z/BBt0mdsvOLBfVv6EwADw17lnuIXqvzO4CG6HzuCXqueqdL/ejfzokAeg17jnt+/pvd4G0AZ5VzDy8IczwNYPF+lEvwQV5zn/cygE0buAcXjPIf30GqfyPmACqH1XKPLSBjvQvg5N9zzywo52+/7L/+bVgDmI+f+9l1kF8BjMYP/S2beJRPAZyufzE70HShRwG8QPoUDtDSbak3AdScxz2sIF3sSwCPvsg9qjD1qfIjAOLncIG2BV4E0PEP3HMK1kteBDCFe0zhylzhQQAnavz6Z8neT/9xwFEzzO/MRyMXL7r6oiunJyrgmuY/wO0Anjq/lUOtePkVfJaxUh2uuz5BAIOab+p2AK8WPtKycxdzj94VFSUJnizfqBwPYEHBA42aRLwsbtgau+hf+v8HNym3A2h4rcBxXi+lXBFXhCbSxwBnLVduB9CuwGn+hH/6d3fLrbQAujU6HUBN/tf+rziUe9ZuWrkPrYDTnQ4g/+duvLGJe9KuIv7c9DSXAxg9Od9JBj7OPWd33U76zekqlwPI+6G2y97knrLL7qAEMNvhAN7K99OtZ//MPWOnVV5GCCBT724Ac/IcY3yN+Z8dtDspb564y9kAer2R5xjTzP/swK0lBHCpswEckucUf+Eer/vWEwLo4mwAea6z9PY47vG6r3KI/lLvcTWAGRNzH+Kv3NP1wX36S73f1QDeyX2Gtdyz9UJv/aWWuxrAuzmPkFnEPVsvNOj/P2CDqwHMzHmEVdyj9cTh2ku9xNEAHs19hE7ck/XEI9pLHe5oAGNznmAJ92B9sVx7qbWOBpD7KUDEPVhfDNXfqqMB5H4zwFPcg/UF4WLVjgaQ893A13PP1RveB9Ah5wHO5J6rN7wP4L2cB5hk/gcL4X0Aa3IeYBH3XL3hfQBTc93/3CruuXrD+wDa5rr/gdxj9Yf3Abyf6/4/4B6rP7wP4IJc9/8h91j94X0Af8t1/6dwj9Uf3gfQnvn+fYcAhEMAwiEA4RCAcAhAOAQgHAIQDgEIhwCEQwDCIQDhEIBwCEA4BCAcAhAOAQiHAIRDAMIhAOEQgHAIQDgEIBwCEA4BCIcAhEMAwiEA4RCAcAhAOAQgHAIQDgEIhwCEQwDCIQDhEIBwCEA4BCAcAhAOAQiHAIRDAMIhAOEQgHAIQDgEIBwCEA4BCIcAhEMAwiEA4RCAcAhAOAQgHAIQDgEIhwCEQwDCIQDhEIBwCEA4BCAcAhAOAQiHAIRDAMIhAOEQgHAIQDgEIBwCEA4BCIcAhEsngKHMDwABaKMEUK39pRuZHwAC0EYJYIL2ly5kfgAIQBslgIe1v3QW8wNAANooAczW/tLMR7wPAAFoowTwhP7X9uN9AAhAGyWAe/W/9gTeB4AAtFECuFv/a4+oZH0ACEAbJYB1+l8b38X6ABCANkoAawgBvMz6ABCANkoA7xECmFzD+QAQgDZKAPUZQgFdi/QsAAGYoQSgZhICiD9mfAAIQBspgNsoAXQ+gO8BIABtpAA+oQQQL1vK9gAQgDZSAJRngVnlK7keAALQRgpg3ApaAYPeZHoACEAbKQB1NC2AeNbpPA8AAWijBVBHDCCevq6K4wEgAG20ADZTA4jjIa9UFP8BIABttADUcfQC4hvq9ij2A0AA2ogBbEkQQBzPfezTkpp5jcV7AAhAGzGAGyk/DeaDALQRA1CruXeLAOyiBjCNe7cIwC5qAFV9uJeLAKyiBqA+414uArCKHEDDedzbRQA2kQNQV3FvFwHYRA9g8XDu9SIAi+gBqPe514sALEoQwNLXufeLAOxJEICayr1fBGBPkgBG3sC9YARgTZIA1Auu/0YAAWhLFIDqy71hBGBLsgDqSe8QQAAOSxaA2reWe8cIwI6EAainuXeMAOxIGkDlKu4lIwArkgagZuhfMQgBOCxxAGpTZ+41IwALkgegHiS+TwgBuMggALVgMveiEYAxkwBUKfeiEYAxowDUCO5NIwBTZgGoiHvVCMCQYQBqzXTuZSMAI6YBqM8ncm8bAZgwDkB98Rz3uhGAAfMA1OZR3PtGAMlZCEBVteNeOAJIzEYASr2j/2EiCMAtdgJQA27m3jkCSMZSAKpi8HjurSOAJGwFoNQtx7jzUlEEoM1eAEr1c+bl4ghAm80AVMcxb3OvHgEQWQ1AqcYvh3AvHwGQWA4g+2xw62r+5wIIQJv1ALI2f/UiAvBFGgEo1f/rC1gbQADa0gkgq/Lszz5ke9koAtCWWgDNem0qLTuH44IiCEBbqgF8b96mrd9smVP2LuGuciL8qHEo91j9MTT9ALYz3H+nau2v3cg9Vn8s1x5qrfF9me2/Sen/ynEh91j98Yj2UIcb35fh/tXD2l89i3us/jhce6iXGN+X4f6V/rsRMx9xz9UXDfo7GGh8Zwb779R8+yf0b9CPe7C+eFJ/ph8Y31ny/Te13P5e/VucwD1YX0zRn+n9xndmuH91t/5NjijSJxf7rpLw69t7jO/NcP9qHeFGd3GP1g+UjwJta3xvCfffadvt1xBu9TL3aP1wCmGklxrfW7L9N22/PSXXyTXcs/XB2ZTf3Jt/CGii/Xf68fb1lON2xbOAVlW+RBhopsH4/pLsv2nHP4B0dcKPucfrvsGUeW4wvz/T/avbKLftfAD3fF23qDtlnmvN79B0/+oT0q2XLeWesNs60F6++XfzezTdP+lZYFb5Su4Zu6ye8IPVZk3md2m6fzWOeF2yQW9yT9ld84nv6e4+0vw+Tfev1NHEhmaZ/9clUOu/JY7SxkssjPev6oinjqevq+IetYvGXUS+ss+hFu7WeP9qM/XYcTzklQrucbum/3cJ3sB1hYU7Nt6/UsfRTx7fULcH98hdcsvUZQmGeLONuzbfv9qS4OxxPPexT0tq5jVyj55b47yakk/PmZtohJ/YOID5/tWN/G87EynzVjED2PHn/7tazT0KmV618leQ5p0V2r+axj0KmSYVMYDxBX/kVNWHexYS7W/n+ZPWfRX8/s/6jHsYEvWwsn+tAFrbv2o4j3sa8nSfV7QAxrf+K4eruMchTzs7+9cIoNXv/6zFHG83Fm3iP4oVgM7+lXqfeyDSTLG0/1YD0Pj7v9nS17knIsvDJxcpAL3v/6yp3CORxcbvAXUC0Pz+zxrpzAUpJbi2V3EC0P7+z3oBvxEomsnrre2/YACU/SvVl3sscpxpb/+FAtD/+79FPekdApDcBvO3g+gEQPv+z9q3lnsyMlRbeC2wRgDk/Sv1NPdoZLjJ5v7zBpBg/6pyFfdsJDjV7hss89xLkv0rNUP/ikGQ0BmLre4/TwDE53/bbWK7EK0Uw/9pd/+5A0j2/d/sQeL7hICm+knL+88ZQPL9K7VgMveMQpYZY3v/uQIw2b9SpdxDClmd9f3nCCDpv//bjOCeUrg+tb//3QMw+/5vFnHPKVQjUtj/bgGY71+pNeR3OULr5n6Zxv53DcDG/pX6fCL3tMKz4rBU9r9LAHb2r9QXz3HPKzQT/pXO/ncOwNb+ldpMvNYFFLbk9pT2v1MA9vavVFU77pmF5Jh/p7X/HQOwuf+sd/Q/TAQKmvBdauvfMQDT///vZsDN3JMLwwOXp7j/HwOw/P3frGIw4UPFILduF1u4FJhGANa//1vM/w/3/Hy38fFU1789gHT2n9UPLxc3cPxJKa9/WwAp/P2/TccxCS5/Bc3OGGzv5f+FA0jt+79F45e0C+BCi2Vj0/3Hf4cA0t1/VsXW1XjbCEnmpc+LdCnFuAj7b7b5qxe5h+qP16ak+j+/XQIoyv6z+n99wYvck/XBa//9opjXUS3a/ptVnv3Zh3jZaAETXv3k+SJ/rE4x99+i16bSsnNwQZHdjH+s7NyeRXjWv6ti7/8H8zZt/WbLnLJ32/vjGcMNf5v7j/1f2YFbvtna09IlnyBFhi91a899fjBlVgAC8J9RAQggACYFIIAQGBSAAIKQvAAEEIbEBSCAQCQtAAGEImEBCCAYyQpAAOFIVAACCEiSAhBASBIUgACCQi8AAYSFXAACCAy1AAQQGmIBCCA4tAIQQHhIBSCAAFEKQAAhIhSAAIKkXwACCJN2AQggULoFIIBQaRaAAIKlVwACCJdWAQggYDoFIICQaRSAAILWegEIIGytFoAAAtdaAQggdBECEC5CAMJFCEC4CAEIFyEA4SIEIFyEAISLEIBwEQIQLkIAwkUIQLgIAQgXIQDhIgQgXIQAhIsQgHARAhAuQgDCRQhAuAgBCBchAOEiBCBchACEixCAcBECEC5CAMJFCEC4CAEIFyEA4SIEIFyEAIRr4j4AAAAAAAAAAAAAAAAAAAAAAAAAAAAAAAAAAAAAAAAAAAAAAAAAAAAAAAAAAAAAAAAAAAAAACT1fw+V4k/8N1mDAAAAAElFTkSuQmCC;" parent="x97okhzxq58m8EEzVJWr-52" vertex="1">
          <mxGeometry x="9.5" y="8" width="17" height="17" as="geometry" />
        </mxCell>
        <mxCell id="x97okhzxq58m8EEzVJWr-42" value="Message history" style="text;html=1;align=center;verticalAlign=middle;resizable=0;points=[];autosize=1;strokeColor=none;fillColor=none;" parent="x97okhzxq58m8EEzVJWr-52" vertex="1">
          <mxGeometry x="22.5" width="110" height="30" as="geometry" />
        </mxCell>
        <mxCell id="x97okhzxq58m8EEzVJWr-53" value="" style="group" parent="1" vertex="1" connectable="0">
          <mxGeometry x="-643" y="114" width="128.5" height="30" as="geometry" />
        </mxCell>
        <mxCell id="x97okhzxq58m8EEzVJWr-49" value="" style="rounded=1;whiteSpace=wrap;html=1;" parent="x97okhzxq58m8EEzVJWr-53" vertex="1">
          <mxGeometry y="5" width="128.5" height="20" as="geometry" />
        </mxCell>
        <mxCell id="x97okhzxq58m8EEzVJWr-33" value="" style="shape=image;imageAspect=0;aspect=fixed;verticalLabelPosition=bottom;verticalAlign=top;image=data:image/png,/9j/4AAQSkZJRgABAQAAAQABAAD/2wBDAAYEBQYFBAYGBQYHBwYIChAKCgkJChQODwwQFxQYGBcUFhYaHSUfGhsjHBYWICwgIyYnKSopGR8tMC0oMCUoKSj/2wBDAQcHBwoIChMKChMoGhYaKCgoKCgoKCgoKCgoKCgoKCgoKCgoKCgoKCgoKCgoKCgoKCgoKCgoKCgoKCgoKCgoKCj/wgARCAIAAgADASIAAhEBAxEB/8QAHAABAAIDAQEBAAAAAAAAAAAAAAYHBAUIAwIB/8QAFAEBAAAAAAAAAAAAAAAAAAAAAP/aAAwDAQACEAMQAAABtQAAAAAAAAAAAAAAAAAAAAAAAAAAAAAAAAAAAAAAAAAAAAAAAAAAAAAAAAAAAAAAAAAAAAAAAAAAAAAAAAAAAAAAAAAAAAAAAAAAAAAAAAAAB8RAmSmIidBR+iBburrYTvxhQmvpBhYu0qYXlIebB1U5mlxdaFzA9AAAAAAAAAAAAAAACAk+AAAAa6qi0q3rXzM7BAAAAAAAABnYItGyeZfY6kVHaZkgAAAAAAAAAAAA1vNF80KXFZHK1wlkAGsNjWsJi5k4wAAAAAD2PF7eZ8gAAAAbHXC9JtyrYRdDy9QAAAAAAAAAACr6lncEH7+C4rI5WsQn1F43iAAACUkW97nmpRsqs8RLc7QfH2D8/Rr9NKRWsUvUcu4/UkIKSSSNgAAEkvbmXcHSTV7QAAAAAAAAAHkc7aP7+AAAAAZhhyqw56RmTAAAAAAAAAh8wHOWi6nq4ql9/AABt+guZpAdFPD3AAAAAAAAEdkVfFLAAAAG8Pe8833AAAAAAAAAAAAItRnTmmObm01YABO7v5VuosAAAAAAAACn7goAigAAAH7+C4rI5WuEsgAAABoK5LlU0LlU1tyzgAAAAAajnzpqNHPT18gBl4g6bz6WukAAAAAAAcw9F80AAAAAD9/BcVkcrXCWQAACFUVetFACTRmTHQgAAAAAAK0qDqnn0jAAPro3nCwC6gAAAAAAQ2h7ZqYAANhvyILO35SXr0Puznjf3WKzkEsAAAEKoq9aKAEmjMmOhAAAAAAAI7Ihyt+TWFAD18h07m1vZAAAAAABSWg6L/Sk9/ZoiO/zwAAAAAAABCqKvWigBJozJjoQAAAAAAAEUoDqrms1IAJV0Byx08ZIAAAAAAAAAAAAAAAAIVRV60UAJNGZMdCAAAAAAAAVBb8MKIAAvuhLZLRAAAAAAAAAAAAAAAABCqKvWigBJozJjoQAAAAAAADX7AcqsrFAE+gMqOgAAAAAAEI0JaqqhaqqhaoAAAAAAAIVRV60UAJNGZMdCAAAAAAAAA5x0cljQA3ui2x0oAAAAACkYHYVegAHVP7i5QAAAAAABCqKvWigB9/Ay2IMtiDLYgy2IMtiDL6Q5k6bM8AAHPUa3uiAG21O8OjgAAAAAVJWFxU6D0PNJ5YT3dYOcAAAAAAAQqir1ooAAAAAAAdN8ydNmeAAYZzdhAAlEXnZd4AAAAAI5BrcEPlGQAAAAAAAAAIVRXUWtOb3SA5vdIDm90gOb3SA5vdIDm90gOb3SA5v6bxNwfQAERl1TFXAAWtVN7E0AAAAAAANQbdXkULu+eZ7RLJAAAAAAAAAAAAAAAAAA5xuzncAA+um6G6GAAAAAAGo245p1e31AA3OmHVH1Ap6AAAAAAAAAAAAAAAADTFWQH7+AAfZa9oazZgAAAAAAFZ1D1DzUYYD2to0F0gAAAAAAAAAAAAAAAAoid0iAAJtCuhSSAAAAAAAAVjZ3mcs76dWaabfAAaHzJEAAAAAAAAAAAAABpsvnwwMUAB7EwvTUbcAAAAAAAAAAGvNhWsPh57e+EOh5Hy9d5MgAAAAAAAAAAAMHDog94+AAC3Ihfh+gAAAAAAAAAAjVEdJ0AR0ACURnockIAAAAAAAAABozeQGBRAycYAAG1x+gjNzgAAAAAAAAAAAYWaOdo91BRZEzLJxc+DnAGppfKhJec05YzTp1SktJ80u4PoAA1hs0Kipb8XpTUE5hHyAAAGbk3yee/AAAAAAAAAAAAAB8fYqDbWSAESlXOpogAAPv4GyydIN346oe3iAAAAA9zwl0xsow80AAAAAAAAAAAAAAAAAK1p/pitCsmXiAAAAAAAAA9Dz/Z3ZxV1ubUAAAAAAAAAAAAAAAAAAAAeMJngouJdQ/Byw6GjpTayNWQtJvEj6QehG0w2ZXi3ZAULJ74yCtZ3ngAAAAAAAAAAAAAAAAAAAAAAAAAAAAAAAAAAAAAAAAAAAAAAAAAAAAAAAAAAAAAAAAAAAAAAAAAAAAAAAAAAAAAAAAAAAAAAAAAAAAAAAAAAD/8QALRAAAQMDAwMEAgIDAQEAAAAABAIDBQABBiAwQBMUNRASFVARFjE0IiOAISX/2gAIAQEAAQUC/wCmnzxB6eySPbp3LW7UvLCKVlB96/ZZCv2WQpOTn2pGVlU3lqaZycBdMSYT/wBitaW0mZGCPRWUlOUTIFk7o5pI1CZQW3QeSAv02tLifqjTxgkn5UtVFFPlK4Qpb4i4/KlWoMwcxHNhZ5JRGwaaOE3J5M+9S1KWrjNOrZXGZOpNDvtEtcqSd6MfWOTnX1KvZNpfJkt0+84Q5ygjHwnYefZN5WWO9OG9McnOvoPOYAZl5l+RVvdNddNdXt+N6EyFY1NOIeb4+cO/6/XHJzr+k1LtRrZhTxj+y0046obHZB6h8TRTOPRzdNx4bdJQlHre1r04EK5T0BHO0RibN6Kxs9mnmXGF7MPLPRroJbJrHGzF33yugbJnm495xbzuwBBmmUFjIjNMstsI3HWm3kHYyI9UhDGA7MYe9HkRxrJ43FnHetL7kXCFH1HQgYPDkoAQypKLJj1a4w96PJAMaOG4bq7NtKvdStoUZ0p6Ix1kXjLSlaZnGqUm6FaoaSXGlMOofZ4WQu9KG2oeKeknI8FgBnkTMMzIpMFdDf1YxK9m/wALNHfbHbMMK0Yew0hhrlSkczIjyITwBOrFJTuWODm7v5K2scnOvzJQBqRGOFdCJ0ivrFIAKQaJwMod6s1t45OdfZnDVx4H7WVX7WVX7WVX7WVUVkRBkhuzsYmSFcQptzTiMh0CuAY71y9zHJzr7GX+G0Y35vey2L6iNKb3SqGN7+P3pN3ox29jk519eX+G0Y35vevb82yCO+PO04eb0Tt7LXenDbSEKcuzDyD1M4saumcTatTGPRzWvL/DaMb83vzwHfx+lpamnAiElCbucO/4aWQyX6Zx2RcpnE3b0zi4SKZh49mkISi21l/htGN+b4GVBdrI6cLK94u7lylPzDMRIPUzi5q6ZxNu1M47HN0yEMxwcv8ADaMb83wMmE7uK04yR28x9Hl/htGN+b4MqN2choQq6FDO2fH+iy/w2jG/N8HNh/aTpxR7qw30WX+G0Y35vg5az1YfTg7v+H0WX+G0Y35vgyDXXA04Y57ZT6LL/DaMb83wikdInRjCvbOfRZf4bRjfm+FNp9svog7/AIl9yZnvjS/26v26v26v26v27g5f4bRjfm+Fkfm9ET5TczLy2m1/zbfy/wANoSq6b9w/XcP13D9dw/XcP13D9dw/XcP13D9dw/XcP0B/6DqyTzeiJ8puZrb/AOlpFV7xt/L/AA3Aj/6GqcV7pfRCW90vuZwn/dphV9SJ38v8NwI/+hqNX1TNGMp983uZuj8h+iEqWoaCkH6GxO9AjIDF38v8NwI/+hpNd6IenDW/dLbmQBrOjRsTcvQ2Ox7NMstMJ4WX+G4Ef/Q05U90YbTg7X0b7LZDfxQFfFAV8UBXxQFfFAV8UBXxQFfFAV8UBXxQFfFAV8UBXxQFfFAV8UBXxQFJTZKdObkflzTiLPSh+GlVlW+lmie7k9Frfm4TPbib5MkGNROVCoonJzXKJNJJrCy/eP8ASZAX2cXpx4fuZfellvtxxMgWTpiDOxkE3spP0eXm9c7ThIv4b3v5qWF7KQ04if3AX0UubYAFSrrVoTa6lRo1gwd/NAvc1pxaOLuX9Fk8j3punEw+5kuASyggcwdYpPo02t1yGxtLVfx9FlMp2g+rHwuxjeDmMf7m6i4siRci4seOb+ilj244Ql9wl/Ti0f3Z3CcQlxsTFrWLabQy3olJQeObhpVqSZ5hpTQY8qe7IlaWm1POxQSQAuP/ABUzkiWqdcW64IS4IRDSrUkzyjSmgh5iTdkiNWIxnsTxzjGAmZmcfPv6jvODvQk40fbkSkkxHMycg9Iv6sei7yBVrWTbjTsleNGMKeMe048Bc6Q48zkTQ1EPuEO6o0J08oIVsMbjksNkszMY5GkaLWve8EBaPA4sjKigWlZ4k7YDGdLIiY5uOG5JgzRY8xFuxr/riMd1yfWUMSAEHPHDOAZIGRSFpcTunTgIlSOSFE1e9731hjOlkQ8Y1Gj8skdopmbhnY5dCsLJIBGQGL65TI94b6DFPjKFygtuh8oDXTMqC9SVWVbR/FPSAjNEZLHtUVlbyqLkSy9qNAekH4qOZjmOatKVpm8dU1WHx3Ta9clkexB1pVdN0nFor5U+vlT6VImqpbi3N2GhHpC4YrIbP0a1WQiZOvIHcdlpx9yHxpLdWt+LfSZhIdNrjxmOklUBHjgN/TGgjmokMWcTRA7wy+EhCnFR+NFv1HRAgH1bzTbyDMYDeovGzmaeZdYVuJSpahIGQIoPFWU0KGOIn69aErSRBx79PYoOqncTItS8bkU0qCkk18NIV8NIUmEkVUjHJJVN4qXemcTbtTGPRzVMstMJ/wCmf//EABQRAQAAAAAAAAAAAAAAAAAAAKD/2gAIAQMBAT8BAB//xAAUEQEAAAAAAAAAAAAAAAAAAACg/9oACAECAQE/AQAf/8QARBAAAgEAAwoKCAQGAgMAAAAAAQIDAAQREiAhIiMxQEFRcRMwMjRSYXKRkrEzQlBigaHB4RAUc9EFJFNjgqOA8JOi8f/aAAgBAQAGPwL/AJNZasRKdl1hpiu8nYX96ZKqu3aaymJV4hvJNMAgXcv3pyo/BTlR+CmHgTvWmPBCd1oplaoR2Xpj8LH2l/amSrMROy2w+0SzsFUayaEIxmb3M3fSyrxpENvKNMvWJGGy3B3cbkJ5E6g2CgE6pMPCaWSFoG9/N30DRsGU6wbfZdtZlVerX3UK1KK4HTfCe6l1WJXkPWdDuqvK0Z6jQLXorodNP2pdVaVXHzGnPV6xYrFjwbbRs4m7rMgQahrNClSHAp0jyqFnYsxzk6OHidkca1NAlfW6H9Rc/wAaCSB1dDrGl1iToxn8FqtcbK5kc+t974ljYBrNDF/D7Hb+oc3woZJnZ3Os6XwlXkKnXsNBHPZFP8m3aVIOmwX/AL3fitVrjZXMjn1vvecJWGs2DWaFfRwaox9eP5Dd1OQ3dTDxyw122SHU2tf3orxMGQ5iNIqsW0lrxarXGyuZHPrff8LOXOeSn70MtYe6Y/LirmJGdtii2mMixD3zT+YrLHqQWUwwlz7zGmJVYR/gKYqgbvxwi2mUq0Lb0FOb3J90kU/l6w6doW0tQJMPcNLmaNkbYws4rFxoTyo6CWrtavlo4T+mgH1vTG63dZGBJD9aNJKxZ2wkniQRHwcfSkwUBrBadu4UuYY1RdiizjbmVFddjC2hNXLQP3ihMkd3H00wjiRJCcHrLqaglgO8a1OjVp/fI7sHGhrOCh6bfSgIThJem+hlkHAS9Jc3dTLJamp1zcQJYT2l1MKLNAcBzjYdmiO5zKLaFjnOHixFV0LudlBJW7JptnqjRirgMpzg0M38O+MX7UKuCGGcG/uxhibA67aJLE10jC0HQ60dq3Pfg4vExIRypDTg6utm06zpN16OsDM+3fQxVhblx87/APLzt/LyHwnQ449byeXFRwzy8Gh/9uqixwqFRcwGl8HMLG9VxnWhinG46mF/+VmOWjGKekuhVeLopdd//wA4tarXGyuZHPrffTDFLgPqt0TRoZxYw+d8k0RsdDbSOePMwzbNBn2JYvy4xarXGyuZHPrffiTPGqs10BY1PQQ/OnoIfnT0EPzp6CH50hgeKIK5zi3jrBgnTkN9KMkguWU2EG+NVkOTm5PU2gzS9Ny3GrVa42VzI59b78Q3bF7Vd58uP/OwLjr6QbRtvgVNhFI5vX5L7+PrMnRjNnHrVa42VzI59b737dsXtV3ny4+w5qFVGRfGT9r41djiTZu1x7j+owX6/Ti7EUsdgFMSqyf5YvnTKPFH8baZasu3YWylvAlztZjft2xe1XefLQHQDKrjJvvldDYym0UinTM628dVYtpLG+yNXlfctMMQjHvtTLVlF7C20yjSyfGymJVY/wDLG86WIoUdXFt2xe1XefLQeEQZObG+Ou+lqzHDGbpdx47g0BYxoBYO+mJVZP8AIXPnTKNFH8baZasu3YWymGIyH32pkavEnWF0Fu2L2q7z5aDJYMeLHW+h6MmTPx+/sRu2L2q7z5aFPBqVsG7VehlzjCKRSjM6hvYbdsXtV3ny0KCsD11uT8L6Ma4yU9ht2xe1XefLQnbXGwb6fW+rUWwhh7Dbti9qu8+WhViPpIRfOvTjPsNu2L2q7z5aHLH0XK3tX67R8j7Dbti9qu8+Wh1sf3Cb2qfqDjeA/LcJi3Vt3Z9Kcy/2/anMv9v2pzL/AG/anMv9v2pzL/b9tBbti9qu8+Wh1rf9L2p/rJ58av6Q8zfAjQG7YvbVJB2inppPFT00nip6aTxU9NJ4qemk8VPTSeKnppPFT00nip6aTxU9NJ4qemk8VKuT/TXyv61vHle1P9ZPPjYT/a+pvom2oDoDdsaDVv018r+tn+4Re1T9QcbVG2qwvqof7YHdoDdsaDVv018r+eTpOT872rdVp+XG1eTovZ3j7fjcopY7BTBVyg2yYtP5msjdGPrRIIixRM11n0Bu2NBq36a+V9PL0ELXxboRk8a0UIBktBFtLazWFXqQW0xo2lPvmlkMaRj3RZobdsaDVv018r6Ua5CEF9Wpdyj2HcTIrpsanNIfDTmkPhpzSHw05pD4ac0h8NOaQ+GnNIfDTmkPhpzSHw05pD4ac0h8NOaQ+GnNIfDTmkPhpzSHw05pD4aBVFijABfVerjULs/T63yt/UYt9PpolqkEbR7GnlHJtsXcL2wZ6Qw9BAugZasxg7LbT3UsgiklPXiimSEcI6haaZeeR+onBSWqscMZul3f98/Yszg47Yi7zfQL6qm7Pw4+d6qbJVW6GC2mXrEjDZbg7r2Kb1QbG3UBU2g+xBV0OJDn7V9PWjrxF+vH4aTQ6gcXdqvvyznKQ5utfYckx5WZBtNCzG1jhJvQqi0mkMA9RcO/XoEdbQYUxH3ar6OtrkoRrPrjZ7DuIzkIsA6ztvuFYZODG+OrQZIZOQ4sNJIJOUhs/EJGpZzmAos38Qsd9Ueob6YPYX5eE5eQYfdW/RGGUfHffoS12MYVxZN238LIhZGOVIcwpkhbIc8hzn2GZXwtmRdpo80xtdzab7hXGRhw7zq0NkcWqwsIo5rL21cHEUZ2HXQJEoVBmAvcqbZDmjGc0tGJMvKTTWmnNiL86GWTAMyr0RfLHGLXY2AUSFc+djtOkYaND/D7HfXLqG6heRiznOTRZoGsdaWjFmXlJpZmrDXKj50unxYhyE2X/wCemGE+jHVt0jhKw9yNW00KJkqv0du+8WWFijrmIoI5bI6zs1Nu0m6mNrHkoM5pwkxweqozLf2uP5ePldfVQAYANHDrEXZsAPqjfQy1hy7eV8tvoo8ZzpBiqlks3S9VaGSdy7nWb9YYv8m6IokMIsVfnpDRTLdI2cUuTjRNyH23oAwk0VD6VsZz16NlpMfoLhNCi5GDorr3niFhgW6c04OPC5wu+06U0M63SGljY0R5D7bz83IMnFyetrySds4wKNpoSZOFUm0q9AJrYH97N30DIwZTrB44gy8I/Rjw0Kwfy8fu8rvpaTaeIWGBbpzS5TGlPLfbpjRToGQ6qXa2vVzmfZv/AAjhiFrubBSOCLkoO+84KM5GHBvOv8bqryvGfdNLJ0SYeE0yyyRHdaKZOtRfE2edLVII6r3DTKVmFeq6piM8p91f3pZVoETrY20/mJ3YdHMO7iuDgXtNqWlxFhY8pznOnFXAZTgINDNUAWTXHrG6hrkox3wJ1C8IQ5eXFXq2niLVJB6qYlanG6Q053N4qc7m8VMat1j/AMhpjuzbzxod7Y6v09u6giq6BUHz9iFmNigWk0eX1MyDYNIEcKF3OYCgl/iFjt/S1DfSwYB7FFTjOM+F92kB6xkIuvlH4UuavHZtbWfY9zWYg+w6xQtUZLsdB8B76XE8bRt7w0MKilmOoUDViyBOvC3dS2KO6k6bYT7LuJUV12MLaWwFoG6sIoTGFmX3ThpczRvGdjCzjbEBY7BQZHg12yYKW1uZpD0UwCllWiSPd7QuXUMNhphqyqfcxaZGeVO1jUyVYibtWimBEfc9MNVb4EGnNJKc0kpgqr/GymGFV3uKZSaFd1pplq07dlbKehMh99qWQxpGPdFn/Jr/xAArEAABAQUGBwEBAQEAAAAAAAABEQAhMUFRIEBhcYGhMJGxwdHw8VAQ4YD/2gAIAQEAAT8h/wCmlhFTBsiy8p4vg2xI9ILGe/GTKuqPf+ta9IuhYP05mWMdiCmxDIe5R1Mkgom2he0f0I1bEQDIR+Q9R3JWXKrvjsxMq7B5DuKlJ9Vsg1TPlN0O2ZJpyHQ7o0GryYdfy18WUZ5RMhF8EgG7UexCGQgLnWnkI5iBZBSBDOvg1dxAbgiL8WmRUFnFj1zjwNZmGQJsUkLEPsPXsVtClqTrd4VYEhDU/tFzJPRp8NG9vLQkjNHMChURZN8KU+lzjZCUCUkQAMSEgSJ3JPOGbR6aHU3sdkmkUImz+zcAS+xdjennoRfNen8AoVEWTfClPpc4/wBMU+S8tAGNAvXmOafH+4b7hiEgEGh4xYiFi+Nv0YYXVLUG8ICmLjIADqf6ChURZN8KU+lzi0GA3J3oDHWQ1AoBIcIDP0wWzJpK5pnkFLBgGuh7ivRtXEdsHNH7q85sKQXgT+jUEFCG38h2aJBW2xUZTJagh2RlTVl5FGxJMS34T6Ce8LjiKFlXtETOhxu6eFyJiV7hYBQqItgvwCVqI36lANMieC/0sJoIlsOVnpjy2BJiG3FOD/IBuwWjodMv3Z3I/wC5Ma8F6nRS4ofLOVsD6A3Z5ShKcP8ADioytlxyTYQPC9JSuAgLmMX2S9n8NH8maPxrwHCCBdAWWqupk4rpGTZ6BWO6pFHHhysMSYmgaraO7c9WhdQtRQBQQwEjIlPX2Y1FEAQg2xxXKNXMMPEjC51t3by4c3i4OGAqWD0Ke89SbybigTsclQYk3lAqKi3hgBPPyNzS4uR0A904QKXMFRiWDVZJK9kCAeA89kz1bEeoFuJN6C/yC5PPjcxOEBQqIsm+FKfS5xvYSpgw+o0kazIJEYWnd4HhpkeNSYuLgFUHQF3XhgoVEWTfClPpc48AIIPAj293yb3fJvd8m93yYwdAL0HE1w4zmABPeYFj5SkUBFp1iaL1fDlcfoVFeIChURZN8KU+lzjxA+ir46u4Lr0J0ytFCFKCJFhFpEKDHzrx30IScyO34wKFRFk3wpT6XOPDD6KvjgIAEnEGbEPUdwno8WoF1FIIcwu3HqPufDM++osmIgZj4GSCKoSLYJuydlwOtWIhCwLbBzAIABww+iruAJzPglrBiCCQQhFlE8xqENAUSaGY58ZAUwNkgHU2k5AMzkc2SyWTCNgpblmE60ZOJ+hENgu7JCsiYeRsDyiguAfRV3FfQLjQSu+tr/Yghv14wQnCqlSvcGTEYM/AM/g1CZbDuydlgOtWS0ZMp2CBkpQEmDzuwfRV3FULbVEcl2tPYU8A6OMAASQApjew+iruJAIIIUFqqLWfsIskMQ4JQtCLZqF/ID6Ku5IBcTPg2O1pTipJzUbEfkB9FXckYChPVaKHmBs1B6D8gPoq7k6FU7NHWlhgFqCD5/ID6Ku5yW2opZw6q1/Ig+irueNXPFe9lbihz4qDEji6uRVL27u7h9FXcxARp6LPrqeKJC0yi0ChghbqEHEcCIQ32bfZt9m32bfZt9m32bfZt9m32bfZsZLCSTEnJb9FRZ9dTxU60R7Z2vZqH4IfdUWxBv8AA6ymUV/yK8VP/CBHm0/demJ2/BD7qi3NDfyNlFo4uWZ4uKzvP6CiLAKkshknmOaF+zOZEqt3eGV2AoleJPf8EPuqLTyE2YWqFakSB34qMw+SCL9iWSsXbeUZNIHNfYIGwRSPo/ED7qi09RNQCp2BtRMV3Mnt+G/nSpKG+Xb5dvl2+Xb5dvl2+Xb5dvl2+Xb5dvl2+Xb5dvl2+XYXoFBAC0oaIPN3RaKMENz8JQKYMLnuBFH4y/FPbA6LrZIACk4AMEd3gB9wXwLRHYHss1QeOp2ZbFYbkXbNAZq9kGkqSxx5H8U5QD6lAp0tL0F0O91QccSdeDADy7JWUVNh8h1kj5dETOPuDBCBKCJj8R/QNETKPJw52kAvPSD+zlxyABAKDEFioMfiN+y0oKnatDlDl+Gl0kLJsPOjGtEkiZslQFIAJlk2leBOIua3DueAi59bVTFjzAHf8OLdVOE7s+2kRUBfS76XEKKktAdfyxodY/0i/UDUlkoRMXvMoZsAAABAIAfhYxUHMzNqLO6NIKWgS5So9CcmiGop/Hyc9I84Mnk97Rww/DKKC4nxM8I4WkteUHSS73Ma84dMFox8zgFSYY3UDQCyvk97RwxYzRmNUxFRfdx7CkBixQUXOHpO0aSKGmSyf5FznxN4JAEkgESWWhAxO8zhmxF+qWpLLTMoocDgzpo0eGIqL3uyUVAKs9VApcFc7csehpTarwVDy02gE2VToy/O7WCoyVl7NiHwvPpqk4YsWIxdBHs7aywMp1UsIsAIAJC7n9Oui+oMWGawCgErQ0AuxNhr5vAGV5i8haN8u2DZi8kJhLJZ1GZTJxvADw6EZ+16QgocbImSQgAmwVh/gmkLsTpGV86S1ZZ6jln9RwCouRAqcGF50EfFhegouZBqMWJBktyHYDQ4WFh7UX6O8WE6SDE8Ay4xn2H0MR0Z6N5vbFGhVsVA8WDBAA8bzgGBIyVKXZoxkUR5JnwCouRAqcGcqiUPKmV8jFHJjJRoT8H8ffoIwaIBapnWxEaYikJrt9/tREOAcxNk+qybgdsyeJuJ3QfsyW9GAX8kNjdolskgFJAJlollQryZQGVodDKAbjvbuy+qZDsncIFdBEgVLIviox8YX4L0UBQQ085xe6G7OL1BnVOvsbDjdSqHY6ngYmaJGHIDwPdvt2+3ZZUCjjqx7nMeLX6ZB+Hzg1A4kSqTM/iBnGiIACbFqoF8kw83h2YkNS1axAP7zKGbCEEACACX4sP7XEpRr2xu4BJAAUln5DvdcYSaslMZiPzz+O68sDIMWOhK9yIDs2GXEFyrc3VbANSdGUSXJ47NWBBEf5tNPyyovxEBlin3Rl+7I56aXIeytjlllvxRg0wApZVLNPd0jsybSA3onZkjSZB5zMT+gREWIVDKRrIzsDmXlXAA7NsRPK22dd0ZQUJ6wLfFb4rdWQOpb0J+BLQ08ROjI2MAXWrJJICZjtBsEUj6P+mv/9oADAMBAAIAAwAAABDzzzzzzzzzzzzzzzzzzzzzzzzzzzzzzzzzzzzzzzzzzzzzzzzzzzzzzzzzzzzzzzzzzzzzzzzzzzzzzzzzzzzzzzzzzzzzzzzzzzzzzzzzzzDCwzyywzTTzzzzzzzzzzzzzzzjzzzzCRzzzzzzzzzwzjzzzzzzzzzzzzyTTzzxzzzzzzjDzzzzyxzTzzzzzzzzzzzyzCzzzziCwxyxxxTzzzxjzzzzzzzzzzzTzzzzyRzzzzzzzzyzzzzwzTzzzzzzzzzzzzzhzzzzzzzzzzzzxzzzzzzzzzzzzzzzzzyzTzzzzTzjzzzzzwjTzxzzzzzzzzzzzzzyzTzzzzyjzzzzzzzjzyjzzzzzzzzzzDCgyxzzzzyjzzzzzzyzTzzTzzzzzzwwzzzzzzzzzzyjzzzzzzzzDzzzzzzzzzzzzzzzzzzzzzyjzzzzzzzyzzyzzzzzzzzzzzzzzzzzzzyjzzzzzzzyzzzzzzzzzzTzzzzzzzzzzzyjzzzzzzzzxTzjzzzzzxzzxzzzzzzzzzywwwwwxjzzzTyjzzzzzzzjhTzzzzzzzzzzzzzzyjzzhzzzzzzzzzxzzzzzzzzzzjDDDDDDCDzzjzyzzzzzzzzjgjzzzzzzzzzzzzzzzzzzTzxTzzzzzzjzzzTzzzzzzzzzzzzzzzzzzzjzzzzzzzxzzTTzzzzzzzzzzzzzzzyzzzDzzzzzzzziDzzjzzzzzzzzzzzzzyxzzxTzzzzzzzzzzhQzDzzzzzzzzzzzyBzzyDzzzzzzzzzzxjzzDzzzzzzzzzzizzzzhzzzzzzzzzzzzxzzTzwzzDzzDjSzzzzxzzzzzzzzzzzzzzwzyjzzzwxxzzzzzzRzzzzzzzzzzzzzzzzzzzzzzzzzzzzzTzzzzzzzzzzzzzzzzzzzzwwjDjzjzSzzzzzzzzzzzzzzzzzzzzzzzzzzzzzzzzzzzzzzzzzzzzzzzzzzzzzzzzzzzzzzzzzzzzzzzzzzzzzzzzzzzzzzzzzzzzzzzzzzzzzzzzzzzzz/xAAUEQEAAAAAAAAAAAAAAAAAAACg/9oACAEDAQE/EAAf/8QAFBEBAAAAAAAAAAAAAAAAAAAAoP/aAAgBAgEBPxAAH//EACsQAQABAgQFBAIDAQEAAAAAAAERACExQVFhIEBxgaEwkcHwULEQ0fGA4f/aAAgBAQABPxD/AKajVpF72V8KXBZhBeYWkk0p8RRl84iw+zTGiFpMdJK/zn91/nP7oey7N07WKZt2z91TgGzPPsds6YDdssF7lHam8Dw7dI/ChAIiNxPyBg6kw2qtir0mF/LeCG9DTOwFLux5KzwAa8YPb1XYByBdZy7lLh3EkUrKCtdt2kA3oDhkldELP4uQwkm9qSjeI3pu7cAF3C51eirphmQ+ENgOTuxWRB12xsjSVqCEHdLPcdGofwX8dRjuHPYLuzWemCQD6IlEAyMnQ7/oZxSKHwQHbHsy6Cp/Dgv1VdeXSwssd8VPOcApvYPVB2WraViYDomI7MPN2+S334e8UgIgZExKMtCCltD+DxBe+DAF1VsFACCz5fJ3dgpDx3voGgZBY5uwiwN9UrD9ZRS54buSGC9TReajQLb3z3P4QEQMiYlGWhBS2h/B4AVFZP3WTvgZpT5wkjEGznfBkZ+v9O+K+nfFNzvEIT1jjuMKspzHTAYTBQKjjANnmLvm00w++H8oCIGRMSjLQgpbQ/g/wE7v3AN4/scDNLcKg2y2GDTuyy+lhMCeewWjctbQdodkKZBOQvS+9lGCOiPOA8KNIZgW9wnzVgNBBiO385jlhJQqSubnuyzaCVZp3s/RQOMQ6dTKHvQ5bvIBN507E08N/wB4QC3pAoEvWjbc8HObQdS3e0UU8hPySX5e8430Mj7ezwICIGRMSl+FGBUcHGyjdfBou+akq+4ZeiZi/vMawdwI3oUKwqouzS90OlHDf94QC/q42cHnsEpwwuOq7tDsA0o3FHIkaiO6A3fRWosD23NbsYj3GcI7mWFz13wS5y10klGZsu0H1c9kzgOtl67G9RFlhj1fqSd3kkkhwo8V1Dl7Y9SWq0kLQTtOTErYDpJf0JQzh1uPc0cR7jjqMMMEHJJOoiWTlLr154si/VSgn1SZX07mhgrDNMA1bUZEcBSXZY97NC00AAAAsByru6F3skbJThIutJ1k/bs4FPsU0CxEbjxzacBbaLTGHqYLQtPYej+kwTEROThtiEJxiXh+mtBAExsunllmlpMO0MMLus7WCbBzJmxCxQwM9zEytI3/ALJN5ED5kY/PGpILj2axssDpZ1kZJMOShuEBOLT5eld18ssAiHwNR7SwMO3+wD5c1brd5vCyFG5NRzwOzCRhDY24s+m2I2eNcWhYhY62TchyXkoykJhk470qAiBkTEoy0IKW0P4POArQ2o6RqOCZmjCOlbIY/F5r+xhE4n0mrk6rUSRNFpxbZDKdl3GTzyMPgW3sHv8ATICIGRMSjLQgpbQ/g+iBm6cBSLZGv8Ov/Dr/AMOv/DrDr5llaSj1jwHiWvmmwdGHUQU2VC0I9+KzMLJaCD2h1G7kFglwq+qwq6OP36iAiBkTEoy0IKW0P4PoD7/V5TjeeKBuZbe2D3cQNgnoQZEdRptjAGjOgbDYevD6UhbHPIesgIgZExKMtCCltD+Dxj7/AFeU4l7VAkDiJmUABIu4SxNWx0VnxNF9nVgr0WG766O2AzN8zwvTCq2CG7FT65gExrdSYHlwvtQSbW4H3X60kEowQm4eFFOICCWeL7/V5XifJ3lB4iepHKmZIhEhHhQ4T+aEfcqIAiBmY9wkdvWhebqXII7+PinWB3X2BAd6iRiT3kgdyoR1+R7SvfFO5jVPsFEycJFsdZVCI1gUux6f3+ry3E208EiRa7p/48TzIIl6Q2CvrZrEazCMF8PFWmuIVNZVlQmb4n2YpLNe8kX61KsKPMhPam3hd4NS+/I/f6vLcRxI0F2LvMuzNOJPXS38bP1etGAuILvXlvv9XluJMgQiSJSQSXpnwwFvmjiDI+5UPMTGQUPP4P7/AFeX4jHKgFppTuw9OKs3950hdhfg/v8AV5fidlH2MT7EJ7cWElqxBH3x/B/f6vL8TTkH7nLsw8SPmIGxn2Pd+D+/1eY427wRpP8ADhZub7ZeY/B/f6vMcROAwFXG4ZxArf7o+fV8tBwP2Cc+WiIiPv8AV5jiKECeDVd88kncQgw1If2PFO1GE6JPIff6vDeNih0CV9p+a+0/NfafmvtPzX2n5r7T819p+a+0/NfafmvtPzX2n5pfDISqzK8amPkrTtIER/ReJC6NwCBkvzyH3+rzB6BiC2ZupfrhUcQguxLtE+qkaxM2zvFI0ISzMoPvK5D7/V5g9CzCf1/uOHFUkUkILyHqrEWldJP5LNo0ekC9M40RB1foqmp7mEukMVE8QBaVlAMVkch9/q8ueBgIhmLqnk4ptLNdP0NeqDgEmYJJcIZ2oEBxUiaWg9mtXSOJ753GtueVewOT+/1eXPEF1PrBxe1av1F/B1i8GF0wYa+v/FfX/ivr/wAV9f8Aivr/AMV9f+K+v/FfX/ivr/xX1/4r6/8AFfX/AIr6/wDFfX/ivr/xX1/4oEmQYEQAaAcXkDsXvHk4rojM4wIPEu+/JgiACVcCpOAQCQwwm4/hjn+WmRKY6nCG9NAJVcAomy5JmAXdl78gtlDn9ZfCkC9gx0y+QVLt8PdkvsFJM/Zkh0nDsUU5TFmthtd/Cgzg3vEkm/EDNeIJMGOyO566HLCLkEQixhbGKaOKqXhB7cM0+0VjGaFw1FBsE9IhIjon4QBdDIeVgbDxEisTuNhuip7vXMoKASJo0v0PV3BOdwO48RQCCVdW/u7Df+DW1yC0Q3C62VOESCVmVd1eE5AzpUYA3mrJgGEXyEuQR0XEDOlNhp26cSHKWauEWOR1WGElI/Bi8/JXyctDYkxcVukESypOtI8jxI6WYJiaJiOSFQEEKIDkbBBsn8iKU5ToBRANgqJxuwdAygoBAGh+ClTihF2kdlwNpcjiBQAq2Apc0sFwkPoDqOvJRWQCF0YbqZbZH8MG8AJtn6G0wXq2LAUdYP1Nplv+Dn3DIiHY6MVyN0FlLi8JyAyAgDIA4mWEGmJndhJbAOPJh2+OQ0I9mibPyBjsBEIELqMJZYLjsg2DhviwtHSX9zeJbUDeIcxmzWl1izZynnI34wLsweaf7YBaddKUmbYNVxczsAcOPOSBEBUT3xEQjsWA2DmDKClEAatRgSWAnBhg91CilOU6q0miaMQzDNFkqShCa5ed1ywcp5o5FmBdmGeWnVYBaaIikhqmrzexbjUYDzbtJDqJDaXM5gH1kxe4S/WLBeri2gsvUseixvE8EsmgQmpoiWRslOschnEOa56q+kmHMOI6ZpPsZalY3YG9QK2NwDN1V3pAcQ40MPnCauehulGTIdABABkcu6eYEAJlF75DGG5FW2FmDQKw2P3xF6ooSw20wUdYFly6wS4U24ZMyephaFtW0Un1ZfL0MgMgsccafBElf6QZqFWajSxeKzTfwWA5j9F2so5IwiXEGms3NmPYA5ncx4RSkGlTYA1q2XZryzPoI7Fz5aK5Ex9His3QUUleGp9h6CDZx9Bdp2MM02Qzfmj8IIGC8DLJ1VeZHadzDJNkMn4pu2LIfgTHuLcF7qKC0Mj0KPV0PBfxAn6K7sLlV3HZJlL1lsPRQa4wRzuxLG4oYOpMNqJZ9VQKoBdWreBCGTRn7zO1DpaJUm9vsDu0ry1OVOKri+gu07GGabIZvzRQARgNE0OR3b84Qp41uSOImSXqzi8LlwMwchwdmxUDJiyJxWwSrkDVhYbcOIu6V78ExdEWj3QiHRT+U/WZk+Cdw0GRcXJ7NJ7twA+iyofM4Kv7jxQ5/wACj3OFyQUqQFBsQzP2mfFCETAeTrgbk0Ow7CuuBAetGTid+iHh6S6mBHDXE94MXKrePBrM8C8ZJzVXnWJ1HrWRGybU7P1Ootc21g3yV5CJuDEOSiDY04FhawXAeEgbGj6B0lwajuVaJUQR4p9f+a+v/NXEplXjWVIHpmf2ru+qRg2bFmIOOkrL4pFXSKJdmMUmr+ETXZsDSp0AWm+Y14ODJbrd25hAHSNOxlvgUjFMOyN+fZQF0wUALAGR+Fsri1jxdUS7aOXMyRABKtYewxP1CYaw1FlUfPimxAZB+HgihCnZ9nSYcxq4KCCHb9h3NM7uwyAzWA3JOTQmcpfoC7SsYyjA2DHcE0aNYK8fcRHaN5/F4lozPZKZbuCX9VvAG1M3BgcG8bOyos1hC6AJ9W0FtNugXpAMTe4r6mQlf2GqQ6Um1JFj92e4v5DChMLdRtSSVwiG8p7hqaOMAZ2Bx3pFjcpV9is/YjKzb/yrDyJfCSzX+Y/uv8x/dBSC8f0pT3ckVHhY5Au0TzTyC+DBXvim8CbxMi9q255V7A/6a//Z;" parent="x97okhzxq58m8EEzVJWr-53" vertex="1">
          <mxGeometry x="8.5" y="6" width="18" height="18" as="geometry" />
        </mxCell>
        <mxCell id="x97okhzxq58m8EEzVJWr-41" value="Chat sessions" style="text;html=1;align=center;verticalAlign=middle;resizable=0;points=[];autosize=1;strokeColor=none;fillColor=none;" parent="x97okhzxq58m8EEzVJWr-53" vertex="1">
          <mxGeometry x="26.5" width="100" height="30" as="geometry" />
        </mxCell>
        <mxCell id="x97okhzxq58m8EEzVJWr-56" value="" style="group" parent="1" vertex="1" connectable="0">
          <mxGeometry x="-643" y="89" width="133.5" height="30" as="geometry" />
        </mxCell>
        <mxCell id="x97okhzxq58m8EEzVJWr-45" value="" style="rounded=1;whiteSpace=wrap;html=1;" parent="x97okhzxq58m8EEzVJWr-56" vertex="1">
          <mxGeometry y="5" width="128.5" height="20" as="geometry" />
        </mxCell>
        <mxCell id="x97okhzxq58m8EEzVJWr-40" value="User registration" style="text;html=1;align=center;verticalAlign=middle;resizable=0;points=[];autosize=1;strokeColor=none;fillColor=none;" parent="x97okhzxq58m8EEzVJWr-56" vertex="1">
          <mxGeometry x="23.5" width="110" height="30" as="geometry" />
        </mxCell>
        <mxCell id="x97okhzxq58m8EEzVJWr-32" value="" style="shape=image;imageAspect=0;aspect=fixed;verticalLabelPosition=bottom;verticalAlign=top;image=data:image/png,iVBORw0KGgoAAAANSUhEUgAAAgAAAAIACAMAAADDpiTIAAAAA3NCSVQICAjb4U/gAAAACXBIWXMAAAuUAAALlAF37bb0AAAAGXRFWHRTb2Z0d2FyZQB3d3cuaW5rc2NhcGUub3Jnm+48GgAAAu5QTFRF////AAAAAAAAAAAAAAAAAAAAAAAAAAAAAAAAAAAAAAAAAAAAAAAAAAAAAAAAAAAAAAAAAAAAAAAAAAAAAAAAAAAAAAAAAAAAAAAAAAAAAAAAAAAAAAAAAAAAAAAAAAAAAAAAAAAAAAAAAAAAAAAAAAAAAAAAAAAAAAAAAAAAAAAAAAAAAAAAAAAAAAAAAAAAAAAAAAAAAAAAAAAAAAAAAAAAAAAAAAAAAAAAAAAAAAAAAAAAAAAAAAAAAAAAAAAAAAAAAAAAAAAAAAAAAAAAAAAAAAAAAAAAAAAAAAAAAAAAAAAAAAAAAAAAAAAAAAAAAAAAAAAAAAAAAAAAAAAAAAAAAAAAAAAAAAAAAAAAAAAAAAAAAAAAAAAAAAAAAAAAAAAAAAAAAAAAAAAAAAAAAAAAAAAAAAAAAAAAAAAAAAAAAAAAAAAAAAAAAAAAAAAAAAAAAAAAAAAAAAAAAAAAAAAAAAAAAAAAAAAAAAAAAAAAAAAAAAAAAAAAAAAAAAAAAAAAAAAAAAAAAAAAAAAAAAAAAAAAAAAAAAAAAAAAAAAAAAAAAAAAAAAAAAAAAAAAAAAAAAAAAAAAAAAAAAAAAAAAAAAAAAAAAAAAAAAAAAAAAAAAAAAAAAAAAAAAAAAAAAAAAAAAAAAAAAAAAAAAAAAAAAAAAAAAAAAAAAAAAAAAAAAAAAAAAAAAAAAAAAAAAAAAAAAAAAAAAAAAAAAAAAAAAAAAAAAAAAAAAAAAAAAAAAAAAAAAAAAAAAAAAAAAAAAAAAAAAAAAAAAAAAAAAAAAAAAAAAAAAAAAAAAAAAAAAAAAAAAAAAAAAAAAAAAAAAAAAAAAAAAAAAAAAAAAAAAAAAAAAAAAAAAAAAAAAAAAAAAAAAAAAAAAAAAAAAAAAAAAAAAAAAAAAAAAAAAAAAAAAAAAAAAAAAAAAAAAAAAAAAAAAAAAAAAAAAAAAAAAAAAAAAAAAAAAAAAAAAAAAAAAAAAAAAAAAAAAAAAAUtinDgAAAPl0Uk5TAAECAwQFBgcICQoLDA0ODxAREhMUFRYXGBkaGxwdHh8gISIkJSYnKCkqKywtLi8wMTIzNDU2Nzg5Ojs8PT4/QEFCQ0RFRkdISUpLTE1OT1BSU1RVVldYWVpbXF1eX2BhYmNkZWZnaGlqa2xtbm9xcnN0dXZ4eXp7fH1+f4CBgoOEhYaHiImKi42Oj5CRkpOUlZaXmJmam5ydnp+goaKjpKWmp6ipqqusra6vsLKztLW2t7i5uru8vb6/wMHCw8TFxsfIycrLzM3Oz9DR0tPU1dbX2Nna29zd3t/g4eLj5OXm5+jp6uvs7e7v8PHy8/T19vf4+fr7/P3+Zv0bpAAAFGVJREFUGBntwXtgz/X+B/Dn97vYBds0aUMLx1py7yLqtCLHp4uQSqXkbim5tKLUr8idFHXIqWgpUaEO5XpqSMjcynJbrSFzmctms+35389xHGdbaJ/v5/P9fj+f9/v1eACaiW7ZsVtyyquTZ85dnLZ5T05BQc6ezWmL586c/GpKcreOLaMhFFUpseOz73xzgH/iwDfvPNsxsRKEOiKS+k1Y9HMRTSj6edGEfkkREG5X+a8vrSqgjwpWvfTXyhBu5b0hZfFJWnRyccoNXgjXue7pz47QJkc+e/o6CBdpOXUfbbZvaksIV7j6hR30ix0vXA3hcJE9V5bQb0pW9oyEcKyQu+bk0c/y5twVAuFEjSfsY0Dsm9AYwmlaL2IALWoN4SRtlzPAlreFcAhPh7UMgrUdPBDB530onUGS/pAXIrgq9chgEGX0qAQRPCH9Mxlkmf1DIILk5o10gI03QwRDzIwSOkLJjBiIQPP0yaFj5PTxQARU87V0lLXNIQIn6o0iOkzRG1EQAfLYfjrQ/scgAqHuKjrUqroQftfpCB3rSCcI/6o0iY42qRKEH129lg639moIv7nvMB3v8H0Q/lFpAl1hQiUIP4hfQ5dYEw9huw6H6BqHOkDYbFQJXaRkFISdLnuPLvPeZRC2iVhE11kUAWGTy1fThVZfDmGLq7bRlbZdBWGDhr/SpX5tCGFZq0N0rUOtICy65yRd7OQ9EJZ0P01XO90dwoJkul4yhM8eLKbrFT8I4aO2BVRAQVsIn1x/jEo4dj2EDxocoCIONIAwLW43lbE7DsKkqHQqJD0KwpSwVVTKqjAIE0I+o2I+C4GouBlUzgyIChtEBQ2CqKCbCqmgwpsgKiR6D5W0JxqiIj6loj6FqICnqaynIf7U9QVUVsH1EH8ichcVtisS4tLmUmlzIS7pSSruSYhLaHaKijvVDOKiIjKovIwIiIsZQw2MgbiIawupgcJrIS5sObWwHOKCHqEmHoG4gMh91MS+SIg/mkJtTIH4g2ZF1EZRM4hyPGuokTUeiLJ6Uyu9IcqIyaFWcmIgSptBzcyAKOWaYmqm+BqI/3mf2nkf4rx6p6md0/Ug/uttauhtiHNqF1BDBbUh/mMStTQJ4qwrTlJLJ6+A+LfR1NRoiDOij1FTx6IhgBHU1ggIVD1EbR2qCpFCjaVAe5691NheD3SXRK0lQXczqbWZ0Fx4LrWWGw69daXmukJvX1JzX0JrsUXUXFEsdDaY2hsMnW2i9jZBY40p2Bj6Gk/B8dBWSDYFs0OgqzspzrgTuhpPccZ46Go9xRnroanoYooziqOhp44UZ3WEnl6nOOt16GkzxVmboaUrSijOKrkCOnqA4pwHoKO3KM55CzraQXHODmioFsV5taCfbhTndYN+3qE47x3oZz3Feeuhn2MU5x2DdmpRlFILurmDopQ7oJtkilKSoZvJFKVMhm7+SVHKP6Gb3RSl7IZmwoopSikOg14aU5TRGHrpQlFGF+hlOEUZw6GX2RRlzIZeVlOUsRp62UZRxjboJZOijEzo5TBFGYehl0KKMgqhlVCKckKhkxoU5dSATupSlFMXOmlMUU5j6KQVRTmtoJO/UZTzN+ikM0U5naGT7hTldIdOBlCUMwA6GUpRzlDoZABFOQOgk8cpynkcOulMUU5n6KQdRTntoJNWFOW0gk4aUZTTCDqpS1HO1dBJDEU5MdBJZYpyKkMrhRRlFEIvhyjKOAS9ZFKUkQm9bKUoYyv0kkZRRhr08j5FGe9DL8MoyhgGvdxPUcb90EsjijIaQS+hxRSlFIdCM7soStkF3XxJUcqX0M0kilImQTf9KErpB93cTlHK7dBNHEUpcdBOLsV5udDPOorz1kE/MyjOmwH9PEJx3iPQTxzFeXHQ0HaKc7ZDR1MpzpkKHd1Pcc790FFMCcVZJTHQ0iaKszZBT5MozpoEPXWgOKsD9BRVRHFGURQ0tY7ijHXQ1ViKM8ZCV20ozmgDXXmzKJjlhbbGUHAM9HUdBa+DxjZQexugs2eovWegs5qnqbnTNaG1hdTcQujtQWruQegt7Ci1djQMmptOrU2H7m6l1m6F7jy7qLFdHmhvMC0o2h90RbRgMETEQfquKB5BFl9E3x2MgMAwWjAeQTaeFgyDACKP0HdHqiCoqhyh745EQpzxCi14CkH1FC14BeLfLj9O32V4EESeDPru+OUQZ42jBR0QRB1owTiI/7gyj75bhiBaRt/lXQlxzhRacCuC5lZaMAXiv+oU0HeZ0QiS6Ez6rqAOxHnTacE8BMk8WjAd4n/qn6YFfREUfWnB6foQpUyhBXkNEQQN82jBFIjSovbRgi1hCLiwLbRgXxREGd1oxTQE3DRa0Q2inJW0oh8CrB+tWAlRXsNCWpGCgEqhFYUNIf5gHC0ZjQAaTUvGQfxR1V9pydteBIj3bVrya1WIC+hCa+ZUQkBUmkNrukBc0BJa80U4AiD8C1qzBOLCGpyiNd/Gw+/iv6U1pxpAXMQrtCi3D/ysTy4tegXiYsK306ol8fCj+CW0ans4xEU1yqNVuX3gN31yaVVeI4hL6E3rlsTDL+KX0LreEJf0Aa3L7RcC24X0y6V1H0BcWtUdtMGufqGwVWi/XbTBjqoQf6JpPu2QPbQqbFN1aDbtkN8U4k/1oz0O/18MbBHzf4dpj34QFfARbXJiYm1YVnviCdrkI4iKiPyZdilY8EQMLIh5YkEB7fJzJESFND9F+xQte6oOfFLnqWVFtM+p5hAVNIC2KvnuuQSYlPDcdyW01QCICnuTdts2uUeLUFRIaIsek7fRbm9CVJz3Y/rB6a2pKe1jcQmx7VNSt56mH3zshTCh8lL6y+9fTx05tM8D7W5KqBmKM0JrJtzU7oE+Q0dO/fp3+svSyhCmVFvPAMjfty+fAbC+GoRJNTOojIyaEKbVy6YisutB+KDJUSrhaBMIn9yWTwXk3wbho05FdL2iThA+61VClyvpBWFB1wK6WkFXCEvaHaeLHW8HYdENv9O1fr8BwrIGu+lSuxtA2CBuE11pUxyELaJW0oVWRkHYJHQ+XWd+KIRtvG/TZd72QtjpxWK6SPGLEDZrd4CucaAdhO3iVtAlVsRB+EHIK8V0geJXQiD84879dLz9d0L4TexyOtzyWAg/8r5cTAcrftkL4V9t99Ox9reF8LvYBXSoBbEQgXDfXjrQ3vsgAiTitQI6TMFrERCBk7iMjrIsESKwHs6mY2Q/DBFwka8X0RGKXo+ECIZma+gAa5pBBInniZ8ZZD8/4YEInpCHtzCItjwcAhFcno7rGCTrOnogHKDdSgbBynYQTnHLlwywL2+BcJIW80oYMCXzWkA4TcKoTAZE5qgECCfy3PHuMfrZsXfv8EA4VsQji4voN0WLH4mAcLi4oen0i/ShcRCu0HTCXtps74SmEC5Sv1dqNm2SndqrPoT7JD45L4cW5cx7MhHCtTxNBy3MpY9yFw5q6oFwu5CmD7304YbjNOH4hg9feqhpCIRC6rR98vUle0t4SSV7l7z+ZNs6EKoKb9K+S4+Bw8dMnfX5snU/ZuXmZv24btnns6aOGT6wR5f2TcIhhBBCCCGEEEIIIYQQwm889e4eMum5x26vDIVVvv2x5yYNubueB+J/LkvsPDx140n+x28pUVBUVMpv/I+TG1OHd068DNrzNB08b3shyzo22AsFeQcfY1mF2+cNbuaBthL6f3KQF5SWAOUkpPGCDn7SPwH6uar7+7/y4vIGe6EU7+A8Xtyv73e/CvrwJE3L4J9JS4BCEtL4ZzKmJXmgg4avZbIi8gZ7oQjv4DxWROZrDaG42EEbWGFpCVBCQhorbMOgWCirSrfFRTQjb7AXrucdnEczihZ3qwIV3Tz7BE1LS4DLJaTRtBOzb4ZqjJX0Sf5r1eBi1V7Lp09WGlBISNcf6LP9fbxwKW+f/fTZD11DoIaw/rtoSXpbuFLbdFqyq38Y3C/q+f20bEECXCdhAS3b/3wU3K36mFzaoXBydbhK9cmFtEPumOpwr5DkHNrl0MBKcI1KAw/RLjnJIXCppHTa6ad74RL3/kQ7pSfBjeLn0m5rO3ngeJ5Oa2m3ufFwm/CX8+gHP/asDEer3PNH+kHey+FwlQcz6SdZQ6rBsaoNyaKfZD4I92i4in50ZGRNOFLNkUfoR6sawiUG5NG/8qfVh+PUn5ZP/8obADeo+QX9r2hOMzhKszlF9L8vasLx7jnAwFjdNwoOEdV3NQPjwD1wtvCpDJy81HZeBJ23XWoeA2dqOBys2XYG1i+jGiCoGoz6hYG1vRmcyjO0gIH3be9IBElk728ZeAVDPXCkGksZHCdnt/Ug4DxtZ59kcCytAQdK3MngyZ7ZuRoCqFrnmdkMnp2JcJw2RxhchcsGJyIgEgcvK2RwHWkDh+lVSAfY9YYRBr8KM97YRQco7AUn8YylU5xcmBwPP4lPXniSTjHWA8eImE9H2fnR0KRqsFW1pCEf7aSjzI+AQ8R9T+cp/nH2wNYRsEFE64Gzfyym83wfB0do8gudqmjzP5JvDIXPQm9M/sfmIjrVL03gAK2P0dmKs9I+HN3/roZVUGFVGt7Vf/SHaVnFdLZjrRF0LY/RLXLWz5/4TKfWzRrUiq6EP6gUXatBs9adnpk4f30O3eJYSwTZDUfpSoVHf8vYlPbV56mpn3+Vtinjt6OFdKWjNyComh+mCKrDzRFETXIogiynCYLmuoMUQff7dQiSaw9QOMCBaxEUCdkUjpCdgCCol0XhEFn1EHDVtlI4xtZqCDDvQgoHWehFYI2lcJSxCKjHKBzmMQRQy1MUDnOqJQKmzj4Kx9lXBwESvoHCgTaEIzA+pnCkjxEQL1I41IsIgFuKKRyq+Bb4XZWdFI61swr87S0KB3sLftaewtHaw6+qZ1E4WlZ1+NMHFA73AfyoC4XjdYHfXHmQwvEOXgl/WUDhAgvgJ90pXKE7/KLqfgpX2F8V/jCSwiVGwg/q5FG4RF4d2G8WhWvMgu1alFC4RkkL2G0FhYusgM06UrhKR9jqsh0UrrLjMtjpaQqXeRo2isqhcJmcKNjnRQrXeRG2Cd1P4Tr7Q2GXnhQu1BN22UrhQlthk/YUrtQe9viKwpW+gi0aU7hUY9jhXQqXehc2iC2gcKmCWFg3ksK1RsKyiBwK18qJgFWPUrjYo7BqIYWLLYRF0QUULlYQDWt6UrhaT1izhMLVlsCSGqcpXO10DVjRn8Ll+sOKFRQutwIWxBVTuFxxHHw3kML1BsJ3qylcbzV8VquEwvVKasFXXSkU0BW+mkahgGnw1RYKBWyBjy4voVBAyeXwTQcKJXSAb8ZRKGEcfLOGQglr4JOIQgolFEbAF20oFNEGvniJQhEvwRdLKRSxFL44TqGI4/BBLQpl1IJ5t1Eo4zaY14tCGb1g3mgKZYyGefMolDEP5qVTKCMd5p2gUMYJmFaLQiG1YNZtFAq5DWb1olBIL5g1mkIho2HWXAqFzIVZX1Eo5CuYtYZCIWtg1hYKhWyBWXsoFLIHZh2kUMhBmJVPoZB8mBRCoZQQmBNFoZQomFObQim1Yc41FEq5BuZcT6GU62FOEoVSkmBOewqltIc5BoVSDJhjUCjFgDkGhVIMmGNQKMWAOQaFUgyYY1AoxYA5BoVSDJhjUCjFgDkGhVIMmGNQKMWAOQaFUgyYY1AoxYA5BoVSDJhjUCjFgDkGhVIMmGNQKMWAOQaFUgyYY1AoxYA5BoVSDJhjUCjFgDkGhVIMmGNQKMWAOQaFUgyYY1AoxYA5BoVSDJhjUCjFgDkGhVIMmGNQKMWAOQaFUgyYY1AoxYA5BoVSDJhjUCjFgDkGhVIMmGNQKMWAOQaFUgyYY1AoxYA5BoVSDJhjUCjFgDkGhVIMmGNQKMWAOQaFUgyYY1AoxYA5BoVSDJhjUCjFgDltKJTSBubEUyglHuZ4jlMo5LgHJq2jUMg6mPUehULeg1mDKBQyCGbFnKBQxokYmDaRQhkTYV6tAgpFFNSCD/5OoYi/wxf18yiUkFcfPnmghEIBJQ/ARyMoFDACPptD4Xpz4LuwNRQutyYMFoSOLaZwseKxobCm1Q4K19rRCpaFT8incKX8CeGwQ8yQDArXyRgSA7t42n5SSOEihZ+09cBWscMzKVwic3gs7Oe9d1ExheMVL7rXCz+Jf/Z7Ckf7/tl4+FX95zZSONTG5+ojAP4ybBOF42wa9hcETMILmykcZPMLCQiwxBFbKRxh64hEBEXDoV+fogiqU18PbYggCjcmbqMIkm0TjXAEX+0eH+VQBFjORz1qwzG8Nw7/12mKADn9r+E3euE01TpO3UnhdzundqwGp6rf/5NfKPzml0/614fTxXUavfw4hc2OLx/dKQ5u4W3Ua3p6EYUtitKn92rkhetUSUqZn0VhSdb8lKQqcLHanceuPE7hg+Mrx3auDRWENO49I72AosIK0mf0bhwCpYQkdHp+1vcnKC7pxPeznu+UEAJVeeLbD5r+zSGKPzj0zfRB7eM90ELNpOQpX2dRnJX19ZTkpJrQT2TLJ8Yt3FlMbRXvXDjuiZaR0FtY066vpK7adYoaObVrVeorXZuGQZznqdnivgGjZ6/YmU9l5e9cMXv0gPta1PRAXFyNZh2SR81anpFHReRlLJ81KrlDsxoQpsQ0vaffyPeW/nSSrnTyp6Xvjex3T9MYCIuqN76777Dx78xbtmH34WI6WPHh3RuWzXtn/LC+dzeuDuEPnqi6ze/o3HPIq2+mfrF6+758BlX+vu2rv0h989UhPTvf0bxulAci0MLirm1996MDXpgw89PlP+w5WkK/Kjm654fln86c8MKAR+9ufW1cGITDeKNj6yY2bZnUvuNDj/cdmDJi1ISpM1PnLVq66tvV363fmL51+46duzOzsg/kHM49kVdQVFJSVJB3IvdwzoHsrMzdO3ds35q+cf13q79dtXTRvNSZUyeMGpEysO/jD3Vsn9SyaWLd2GgvFPP/Ttgm6Tbn2NMAAAAASUVORK5CYII=;" parent="x97okhzxq58m8EEzVJWr-56" vertex="1">
          <mxGeometry x="8.5" y="7" width="17" height="17" as="geometry" />
        </mxCell>
        <mxCell id="x97okhzxq58m8EEzVJWr-58" style="edgeStyle=orthogonalEdgeStyle;rounded=0;orthogonalLoop=1;jettySize=auto;html=1;entryX=0.429;entryY=0.883;entryDx=0;entryDy=0;entryPerimeter=0;" parent="1" source="RZYDAGDR_G7YQ371wjqy-1" target="x97okhzxq58m8EEzVJWr-43" edge="1">
          <mxGeometry relative="1" as="geometry">
            <Array as="points">
              <mxPoint x="-600" y="220" />
              <mxPoint x="-600" y="220" />
            </Array>
          </mxGeometry>
        </mxCell>
        <mxCell id="x97okhzxq58m8EEzVJWr-60" style="edgeStyle=orthogonalEdgeStyle;rounded=0;orthogonalLoop=1;jettySize=auto;html=1;entryX=0.625;entryY=-0.008;entryDx=0;entryDy=0;entryPerimeter=0;" parent="1" source="x97okhzxq58m8EEzVJWr-30" target="RZYDAGDR_G7YQ371wjqy-1" edge="1">
          <mxGeometry relative="1" as="geometry">
            <mxPoint x="-560" y="230" as="targetPoint" />
            <Array as="points">
              <mxPoint x="-560" y="200" />
              <mxPoint x="-560" y="200" />
            </Array>
          </mxGeometry>
        </mxCell>
        <mxCell id="x97okhzxq58m8EEzVJWr-65" value="" style="group" parent="1" vertex="1" connectable="0">
          <mxGeometry x="-300" y="230" width="80" height="80" as="geometry" />
        </mxCell>
        <mxCell id="RZYDAGDR_G7YQ371wjqy-2" value="" style="rounded=1;whiteSpace=wrap;html=1;" parent="x97okhzxq58m8EEzVJWr-65" vertex="1">
          <mxGeometry width="80" height="80" as="geometry" />
        </mxCell>
        <mxCell id="x97okhzxq58m8EEzVJWr-10" value="Agent API" style="text;html=1;align=center;verticalAlign=middle;resizable=0;points=[];autosize=1;strokeColor=none;fillColor=none;" parent="x97okhzxq58m8EEzVJWr-65" vertex="1">
          <mxGeometry y="48.75" width="80" height="30" as="geometry" />
        </mxCell>
        <mxCell id="x97okhzxq58m8EEzVJWr-9" value="" style="shape=image;imageAspect=0;aspect=fixed;verticalLabelPosition=bottom;verticalAlign=top;image=data:image/png,iVBORw0KGgoAAAANSUhEUgAAAgAAAAIACAYAAAD0eNT6AAAACXBIWXMAAAsTAAALEwEAmpwYAAAAAXNSR0IArs4c6QAAAARnQU1BAACxjwv8YQUAAC5dSURBVHgB7d1NjJzHfefxfz1P91AWSWe4cRitEVhN5JTLcmZDZnXYhXpIOvFNQ1u2qBOHx5xIwkAAryNwCK2kYC/i3BZIAA4PhvwimqObV6Y4TcRYCCIdtk7JZaG2DvZa8oJjckaU5unnqVQ1Z2i+zSu7nqp6nu8HoGdE2xLVT0/Xv/71qyoRAAAAAAAAAAAAAAAAAAAAAAAAAAAAAAAAAAAAAAAAAAAAAAAAAAAAAAAAAAAAAAAAAAAAAAAAAAAAAAAAAAAAAAAAAAAAAAAAAAAAAAAAAAAAAAAAAAAAAAAAAAAAAAAAAAAAAAAAAAAAAAAAAAAAAAAAAAAAAAAAAAAAAAAAAAAAAAAAAAAAAAAAAAAAAAAAAAAAAAAAAAAAAAAAAAAAAAAAAAAAAAAAAAAAAAAAAAAAAAAAAAAAAAAAAAAAAAAAANgmJUDk2m/caaU6G9NaRs1buiWSPGt/XyndEvN7WtnfN7S2//2oOKKTz6S/85eSf+nfJB/5WIrm7wa/h6gsaPPLfmM+HHty95sFJaqnC/l9IUUvkaSnUrVw7Ts/6QoQMQoARGFyWo8uPb3UyrNiLFHJfi2qpUWPmQG+JZ4Vjd/J8h/9b8m+/AsG/PqxRcCCUqprCtBfmfdj9/rLb3cEiAAFAIJkZ/VJkbVF0ueVGejNrGxMAmMH+y/2XJLl0XcFeEhX2eJA66uSpl26BQgRBQCCMBjwdT4pWu03c+pJl636YbCz/s+++sagzQ9sxC4nmKWorir0O6mMdN5/+Yc9ATyjAIA3R9643TYD/guF6fCH0MrfrGLHx/LZn84w+ONJdM2yQUcX8g5LBvCFAgClujfoaz0V+iz/cZj5Y9hWwoYdrdUFigGUiQIAztlBv5DkeSmKUzEO+vdb/Np3GfzhzGoxkOrmWZYJ4BoFAJywqf1bI0tT5g32gtbSlgr4/I9/QOAPZeoqrWd2PlXMdY7OLQgwZBQAGKpvvHGntSzF8SrM9u9nW/+Lz35XgLLRFYArFAAYCtvmN2uYZ6oy23/Ynb3/KNnuXwjgk/nAniUrgGGhAMATqfrAb9n9/rf3/a0AAeloJTO/fOninADbRAGAbanDwL8q2/3PpgPwTwKExi4PKCWnP6AQwDZQAGBL6jTwr6L9jwh0Grp5gowAtoICAJtiw32Zzs/XaeBftfRnr0i+42MBQmczAoQFsVkUAFjXYDvfjs9OVi3VvxV2/Z9LfhAVpaf7I8VMl+2DWEciwBoOv7o0eWtk6YYUerqug7/F4I/oaDXd/CK9cfCtb04JsAY6AHhEndv9j3Prz48LECuWBbAWOgB4wOF/+OzkctG/weD/B6p4WoBYaZGpvspuHPjhN08JcB86ABhg1r82QoCoEHYL4B46AJDDr985zqx/bcny1wSoiHausnmyAbDoANTYyoU9Z0yPkNbgOjgICFWklD6XjRRn2SlQXxQANTW4tEfn82bwbwnWZXcB2IuA2A2AqrEnCaa6OcGSQD2xBFBDqy1/Bv/NsSHA5q3/KkDVaJEWAcH6ogComUOvL76pdT5b53392zHy+78RoKLMZ4F688CPvnlGUCssAdSEXe+/PbJ0iaDf9n3+lR/I8h+9K0BlKZnrj+QnyAXUAwVADbDePxw2A2C3BBbN3wlQVeQC6oMlgIr7+muLYwz+w2GzAE//+nuSZF8RoKpsLsBuFXzurWMtQaVRAFSYvbo3F83gP0RJ/yvy9G9PUgSg0lbDgX/5o29NCiqLAqCibNK/KNQ8Yb/hS774Gp0A1MGo0nLpr370LS7DqKhUUDn2PH9dFP9L4Mxga+Dt/2aqgUzyp/6vAFVlugGTX33xL37/67f/9X1BpVAAVMyhN5bOSKH/QeCc0k1pfPafBoWATj+TgvsCUFnqG1/99l+IKQKuCiqDAqBCVgb/aUGpBt2Apb8cnBWQZl8d/PVge43pDojKBKgG1aYIqBa2AVbEoO2fF+ekzpT0zH90Tc9yQaT4lWle9lQhC3mS9CRJB/uaO9/7Uk+ANawm3/vSH3wtpGglkrSU0s9qUeb39JgMDs6pM336+rGf1vuzpiIoACrABv7unu5XI3aw16pj+vAfFlo6ku3sdaYVh5fAufalydHFzxtj5j04prQe00rtXykMaiNRMvXBSxcvCKJGARC5w68uTepEX5KqGwz4+h3zQdstst1zDPYIyXNvTbayJB1LCpk079Xn7TY6qTqtJq6//HZHEC0KgIgNTvizl/pUdKufUtLRub5aJGqu8/1dXQEicfDH3x7ThW6bb49XuDuwoJJk4tp3fsLPZqQoACJV3eN99YJZeJ0pGo1Z1utRBbY7kKvU3rb3QtU6AxwbHDcKgAjZi31ujSxV6jpfO9tXuT57+ZXdHQEq6sBbL7aV6CmtpDKH69giINuRj3OBUHwoACJ0+PXbl7RWFTiic2W2n+86x5o+6mTQFZB02hQCL0g1dhV0rh+7OCGICgVAZKqx15+BH7BsIdCXxpRS+njsywPm3+HctZd+eloQDQqAiMS/15+BH3ic1UJAlD4jEWN7YFwoACIRe+JfFXomz3dNM/ADa7tvaSDWjMBCQzfHCQXGgQIgAjGH/gj3AVu3snNgPsZlAUKB8eA64AiYwf9MfIO/afdrOf3ef981weAPbM37L8/1rh27uM8Mp6ftgCoRsUVLczmJeimjLugABO7Qa4tT5st5iYid9ZvZywn28QNPLtZlAfIA4aMACFh8h/3YWb86e+Xvd3FRCDBkB3744inzM/amxIM8QOBYAghYpvPzEbX+e0XSGGfwB9y4fuztcw2d74toSWC0r7Koupd1QwEQqMGWPy1tiYBN+BfZznFa/oBbNhtgA3ZmnX1G4tA+8MNvnhIEiSWAAEW15U/LaWb9QPkOvPXidCTnBrAUECg6AAHKivxM+IO/XkgKPcHgD/hx/eW3p+2VvObb0LfbsRQQKDoAgYkk9W/W+9MJWv6Af7GcGaCVHP3lSxfnBMGgAAhIJAf+MPgDgYmhCOCAoPCwBBCQWzs+Oxny4G9+gLsM/kB4bDgw1bldDuhKoGxx0vi8QSAwIHQAAnE3+Jd/JIGyg3+e7ZzgLH8gXGOXJkcbX6Tz9lsJE4HAgNABCMTd4F+YGPyBONj2en9H0J0AAoEBoQMQgMBn/6z5A5EJPhOg1cT1l9/uCLyiAxCAwYl/YWLwByK0mgkI9tTAOM4vqDw6AJ4dfv3WpNbJJQmOXrBH+zL4A/GynYC+Sm+Yb8M7V4QugHd0ADzTkgR5uUdSyFEGfyButhNgBtqjEiK6AN5RAHh0+NVbk0Fu+yv02cuv7O4IgOjdnWWr0xKe9oG3XmwLvKEA8ClNTkpg7MU+V17ZPS0AKsPeJBjkBUJ0AbyiAPDkyBu32wHe9tfL813TAqBy8h35dIChQLoAHlEAeKILdVwCM0j8s9cfqCR7RsDKaYFh/YzTBfCGAsADu+/ftOOmJCRaThP6A6ptEAoUdVbC0n7urWMtQekoADwI8NS/Wa71BerB5gHMl44EpC/9KUHpKABK1p6+OapVUGv/9rCf0GYEABxq6PyEhLQUoPRJe4+BoFQUACVLms2wtv5pmaH1D9RLgEsBo40vGlOCUlEAlEyJhLT1r0frH6in8JYC9AuCUlEAlGgl/BfMNZ029S8A6ksH1QVgS2DJKABKFFj4b5bWP1Bv9pTAwA4IagtKQwFQopDCfwT/AFj2gCAJJRCodHCno1YZBUBJ7Ml/wYT/Cn2W2T8Ayx4QZGYnoXQBRlkGKA8FQEkCOvmvVzQaswIAK/pP9W0gMIgugFZ6UlAKCoCSBNP+L/QFZv8A7hdSF0CJBHdMelVRAJQgoPb/ArN/AI8TUBeAZYCSUACUoCgklJbWHLN/AI8TUheAZYByUACUQIl6XgJA8h/Aela6AN6ZgYlDgUpAAeBYQIf/sO8fwLoGXYAATgc0n5ktbgh0jwLAseUib0sAkkJfEADYSCCnA/ZVn2UAxygAHFMqiPOte5df2d0RANiAPR1QAggDKtH7BU5RADimRXlv/5sfpHcEADYrgDCgWQagA+AYBYBDX39tcSyE7X950uDGPwCb1pD+rPg3Sg7ALQoAh/IAwn9KpEv4D8BWvP/yXE8CCAPmEkaGqqooABwyg6/37X9aCeE/AFun1VXxTRVBbKGuKgoAt7x3AIqG/yoeQHxUqubEvxC2UFcWBYBDAez/73X+bldXAGCLrn3nJ13zGdYTj+xn6NilyVGBExQAjgzO//evIwCwfd53EDWzZkvgBAWAI4UOYPufUmz/A7BtWmv/HcScZQBXGgI3tG4NYoAe5Sqh/f8Y7TfutBKdT4pW+0XptnlWpsWoVtqMekGJ6pnqqadFXx1R6dzP2EURNZ739hVPFXPJF+l58ahQBQWAI35HqAo7/PrivNbSFk/s9r/3vr9rXHDPodcWp5SS41t9Lva1NGuRM1e+v2tWEA2e93D85Q+/9ZF5TVrizzvXj13kUCAH6AC4osVrcMV8gDH7X2HzGGZJ5rw9lMkMBlu2EuY8bwaUM+brWQaGsPG8hyvRclUrfwWAKT44EtgRCgBHvO8AUPKh1NzktB69NbJ0pijklAxHy/w6f+T1xf27lrOzc9N7vJ+Xjj/gebuhlTKTCX1cPNF+uw+VRgjQgcERwJ4leQDhHY/sNcy3m0vz5tNjWIPBPYX5e95qNm/Yf4YgCDxvd1SiOuIZRwK7QQHggE60932ru/J+bQsA+0G9rPN5x12Y1nKRz1ME+MfzditrZj3xrEgygoAOUAA4UBR2B4BXC3VtV9o2sB0MSrqEqZUV+aXJ6ZscVOIJz9u97tG5Be8HAhUJP2MOUAA4oVrikVL1DQDaNeAyb2C0s87FkeYZgRc873Ioz1uKtXifVFUSBYAbfncAaNWTGrLbvlysAW/ErhEfeTWIkx9rheddHlUUvxePlNLPCoaOAsABMwP3/GYtfiV1pMTbzKxIlNfDUmqJ510aLfWcVFQdBYATyvN6Vf1+WFdmgy3xpzX4M6AUPO9yFVL0xCNTgLQEQ0cBUEFJoXtSM0rkpHhmT50TlILnXS6VKK+hYiX+d1ZVEQWAAxxcUS67NSuAq5fFHjnbZlugczzv8iUq6YlfFAAOUABUUL/R6EmNLNuLXgKRBPRnqSqed/nSPOPUywqiAHBBU62WybQHn5dQ2Bvn4BTPu340HQAnKADc8Ppm7dTtOlOtWhIM3Ra4xfMu3fsvz/XELwoABygAEL3AMhd8UDnG8waGgwIAVRDShzADgns8b2AIKAAAAKghCgBUQUgJZdLS7vG8gSGgAED8VDgfwsrzrWm1wPMGhoICwA2vH1B1O4xGS3FVAlGIruc9DCXieZfvubcmW+IXnRYHKABcCGiGUgdK/F5Vej+lVEfgFM+7fhQFgBMUAFWU5rVKJhcqnZNAhPRnqSqed/n60mgJKocCwAGl/VaraV+1pEbswUdKSUc8M7OUbu0OYfKA510/XEfsBgWAC56XALSu381ZWssF8UyLzAhKwfMuVyFFS1A5FAAOmB8Wz8Eg3ZKaufL9XbOm8OqJP73BnwGl4HmXK5GkJV7p3wuGjgKgkpJnpYaSXJ8Qf84KSsXzLo/yPKnQbLd0ggLAAaX9rldpKfZIDV1+ZXdHCl16W1aZfyaz//LxvMujlXidVJjPVHYBOEAB4ITuiUdK6ntFaZH3p204S8rTy/Nd0wIveN6lGROPFCFAJygAHFCF9z2rrcnpm7W8pKQzvWchT9KjJa0P94oknehMMzvxheft3tilSftZ4vXzRHueVFUVBYADeaPp/aCShaebLakpuzWrUOmEy0HBzjoHgwHbwLzjebvV+LzhdfZvqZQi2wUKAAdC+JBI+tKWGhsMCsvZuIs1YrsGnGc7GfwDwvN2SIn3AuDad34SzOmPVdIQuGFnI1pa4ouubw5glW0Pmy+nDr222DXP48wQnkcvKfSJQfgMweF5u6FE79fiT8kZj1qhAHDE/NB0taiWeKPbgoGVxPasGRimzIfJSb3FQJM9dc4ePEPSPw487+Eyn2Njg414/v75tP8dUQInDr12+5x5eU+KR1/Osj1zd2dFuI+9LTHR+aR5Ps8rrVt6sMdZrYSc9IIZARZMB6UjSn9oz3qn1R83nvf22VsA+yr9SDyyJy7+8tjFU4KhowPgjO76rq9uNZvmQ09mBQ9Y+YA/t/ILFcfz3r4sSceUz/6/sAXQJUKAjqQBXFlqliG8h3cAxCvR8oL4pskAuEIB4EiWZT3xzKyd+f/hBRCztnh2/eW3OwInKAAcsYnkANKrrfb/XKQLAGDLDv7422Om+98Sj9gB4BYFgEOFKj4Uz5JMTwoAbJEugthJRAHgEAWAQ0pLRzxTSj0vALB1x8U3ra8KnKEAcKhImh3xTGtp221QAgCbZLf/SQgh4jSlA+AQBYBDK9uPvO/DT4r+lADAJmUq9b7vXon0OALYLQoAx7Qq3hHv/B5IBCAuZmDwvoNIi3jPUFUdBYBjKoDzAIzRI6/ebgsAbODAWy+2faf/LaX1nMApCgDH7NGiEgCdqjMCABtQSvsP/4k9TG2kI3CKuwBKcOj1xY+83gy4grsBAKwnhLP/Lbv//9qxi+MCp+gAlEHrAHIA9m6ABhdqAFhTrtIgOoWFCNv/SkABUIKkkEDWstTJyembowIAD7Gzf7P2H8TBYUor1v9LQAFQgsuv7O5IANsBjVG6AAAep58kdu3f+wTBbv/j/P9yUACURl+QINAFAPAgO/s3s+4pCUNHUAoKgJKEswxAFwDAg+zsP4Stf5bWKpDJUvWxC6BEh15bvCkBtNiMhS9n2T52BAAIJflvDU7/O3Zxn6AUdABKpWckDKOLI03OBQAQTPJ/RUdQGgqAEpllgI4EotByitMBgXpbSf5PSSBS3TwrKA0FQInsbgClwikCOB0QqDcz+5+XQNjDf95/+Yc9QWkoAEpmqu0gDgWy7FXBh15fJBAI1NDBH3/rZCjBvwEdzBJpbVAAlKxYzmYljDMB7tJy5htv3GkJgNqwrX8pJJji34b/sqcKDv8pGQVAyTqD5H1Qle5opvPzAqA2bPAvqNm/+WjsHp1jV1LJKAA8KJLGrASEpQCgPlZa/1MSEMJ/fnAOgCeHX1+ctwOvhGNhJEnHf/a9L/UEQCWFtOd/lRmEZq8du3hCUDo6AJ6oXIdW8Y4uF/k8xwQD1dS+NDkaUup/FSf/+UMB4EloWwJXtDggCKimxeUktHV/Q3W4+McfCgCPAuwCDA4IIg8AVMuBH33zjGgV3M91otj65xMZAM8CzAIMJIWeWLnGGEDEDrz1YluUDq71z7n//tEB8CzELoBVJOoS5wMAcRvs91f6kgSoUHJa4BUFgGeBZgGsQSiQIgCIkx38V0J/AQZ7VeeXL13k4B/PKAACEGoXwGhRBADxWR38wwv93dXQDbb9BYACIAABdwGsVlbkl9geCMRhZbvfpVAHf7vvn0t/wkABEAjzA2sr4iCPwjQfJGO3m03OCAACZwf/pS8GM/8xCRSn/oWDAiAQncEJfOFuiVktAlgOAMJk2/6hD/6i1Vlm/+GgAAhIkfXPmf5YTwJlP1jIBADhuW/NP9jB32772/WU+YxDMCgAAmJvClR5EfrWGIKBQEBCD/zdo/XZDjf+BYWDgAIU6uFAD1lICn2Uw4IAf1YO+bH7/IPO53DhT5joAAQo5EDgfUaLRM0femOJuwMAD+y1visn/IUezl0g+BcmOgCBOvQ/Fk+Zp/OmRCBRcm7XcnZ2zixhCACnbNLfXuwT4tn+j6dOXz/2Nmv/AaIACFgkSwGreiNJOvGzwW4GAC5Es95/j+qYwX9CECSWAAIWyVLAKhsO/IibBAE3bMu/r9IbsQz+NvXPiX9howMQuEOvLU6ZL+clIjbw00zSs3QDgCdnZ/1m4LefAW2JiNL6xLWXfzorCBYdgMBd+f6uWSniujPbzFCm7FZBugHAk1md9Utkg7/5DJhh8A8fHYAItKdvjiYjzRvmp6ol8SEbAGzRyvY+u8OmLZGxrf+dO/Jx9vyHjwIgEu037rSSIrczgSjP42dZANhYfAn/Ryw0dHOc437jQAEQkRjzAI9I1PSIJBcoBIA/WBn4T64M/BFfusWWv5hQAETm0Ku3z5lB9KTErWf+HWYpBFB31Rn4ZXDRz/WX354WRIMCIEKRnQ+wDr2gRM2xNIC6qdTAbymZu/7SxaOCqFAARCjyUOBj2YyASvSFy9/jbgFUV8zhvrUQ+osXBUCkBqFAnc9XqQhY0UvMbKKh0hm6AqiC59461uony8crM9u/jx38U92cIPQXJwqAiLVfWxxLRGK4DGRbzJuzq5VcSBvS+fnf7eoKEImDP/72mNb5C2bQb0uFZvsPIfEfOQqAyB159Xbb3son1dczb9aOqOKdpmp26Q4gJHZN/9bnyWSaJPsLrSdVNGf1b5/p1B394KWLc4JoUQBUQCW2B26R7Q7I3Q7Bh4nS3V1f7OrOTSvWIOGcHeyXsmZLF7qtRO8vzG/VYcC/H8f8VgMFQEXEdH2wO3pBKdXVWvVEil+Zv+4lif1epC+NwdcOnQOsw67X2695mo8WurCD/GgiSUsp/awpNke1lrG6DfaPYq9/VVAAVMihV29Pm77cGQFwj04+E938neQjH0v/S/8q/Z3/Mvg9bAN7/SuFAqBiKAKAjWW7fyFf7LkkhSkMsEkM/pVDAVBBLAcAm7M8+q58/sc/EGyEtn8VUQBUVB2DgcB2FI3fyWdffYNuwBoI/FUXBUCFHX711qROElsEVPKcAGBYbBFw55kZyXd8LLhnwbT9j5q2f0dQSRQAFVfhEwOBoaIT8AdqcGFXcvTad37CAVwVlggqzW57K1Q6YX6iewJgTUn/K/L0r78nqnha6mz1eF8G/+qjAKiBQRGwnI2LUpzaBazDFgE7btb5UjvVsRf7cLxvPbAEUDNsEwQ2tvi179ZuKUCLzPzy2MVTgtqgA1AzV17ZPW1+0k+LDfgAeKyR3/+N1MiCTfoz+NcPHYCaIhwIrM2eFLj47Hcrf2Ig1/nWGx2AmrqXCyj0jAB4gA0CNpb+s1SZbfmz3l9vdABw99AgJWfoBgB/kO3+Z7mz95+kgmzL/zSH+4AOAOTK93fN2q2CSklHAAyky89K9ahOQzfHGfxh0QHAA1buEbC7BDg9ELVm1/9v7/tbqYgF83F/lvP8cT86AHjAlb/fda5I0nGtiwsC1Fh1DgS6O+tn8MfD6ABgTWQDUHe3/vy4xMom/M2y3ukPXrrIAWB4LDoAWNMgG3B3p8BZAWom4i2A9hKfszbhz+CP9dABwKbYcwNUnk0rlcQ7JQK2oNjxsSz+2SsSF9vub5xgax82gwIAW2ILgVTn57WWtgAVFtc2QNUxS3VnuboXW0EBgG05/OqtSZ0mb5IPQFXd2fuPpgj4hYSNgR/bRwGAJ2ILAUmTk3QEUDV2C2C4OQAGfjw5CgAMxZFXb7dzpafICKAKwm3/M/BjeCgAMFT3woJJ8jzLA4hVYNcB21T/TEMas4T7MEwUAHCiPa1Hk+bSpHmDndQiYwJEYvmP3pXPv/ID8c/M9kXe2bWjP9s5Osf13Rg6CgA4R1cAsSgavxtcA+zRYLZvvnZo88M1CgCU6l5WgGIAgbGD/2dffcNH63/BfBBf0FrNMeijTBQA8MYWA0UiZplAPc8yAXyyg/+dZ2Yk3/GxlMG833uJae8z6MMnCgAEwS4TJEXeFqVeMB+PY3QHUJaSZv52lj+nRX3Y0I05wnwIAQUAgtR+bXHMzJDGtC7aiUr20yGACzbw98V/uORgv7/qKtHdXOurIzLSYcBHiCgAEI3BkkGqTHdAt5RS+02XYJTCAFtlB3u7z98O/k8669eDG/eSrtLFr8xg303TtLuzmfVI7SMGFACInu0WNAo9WiS6Zd7S5peMikqeNTOwUfvfmw/p1uB/qO1fq1FBrdgBXzc+Hazv51/6N8l2/st6M/4FbZP4Yj8clf1qWve6N/j7aPWrQoqeStRCs2h2mdUDAAAAAAAAAAAAAAAAAAAAAAAAAAAAAAAAAAAAAAAAAAAAAAAAAAAAAAAAAAAAAAAAAAAAAAAAAAAAAAAAAAAAAAD4ogRBW363OSaptBMt+7XoMa30qNKqJaFQsiBaekqpbiFytZnsnFMTCwsCAAgaBUCAsp832pKoF0T0lBlcRyUyphiYTZP0rJr4vCcAgCBRAARkMPArOWO+bUsVKHWueTg7LQCA4FAABKByA/99TDegZ7oBE3QDACAsFAAe6fnR0X6xeMa0+U9JhdkioMjl6MhfZ10BAASBAsCTO/NPtdIin1dat6QG6AQAQFgoADxYnm+OqULPxxjwexJ3i4BsXE0IuwQAwLNEUKr+5eZxlesbdRv8LW26Hf2ieUYAAN7RASjRYOZvB/+aa6SNfSwFAIBfdABKYtf8B21/SD/vVzr0CAAxoANQApv2z4qlG3UJ/G3CQiPt7yML4N7NyfZotrQ0KUXyvKhizL4HtajB8pMSvaCV6pnlqK75dbX55Z1ze+Y6PBOHeB4ICQVACbL3Gm9WfavfVimlTjQOZ7MCJ25+47lW1s9PmgFmanWA2aTZZjM9u+dn7/cEQ8PzQIgoAByzrf9G3v9I8AAlarZxJDshGCo7w+zfWjqj1ZMVnErJucau7OyeuS4z0CfA80DIKAAcW36v+RGt/8dR3eaRbFwwNINZZpbbnElLhqNnZp8TzD63h+eB0BECdMgM/lMM/mvhdRmmT4881+5nfbvDpCXDMxjAPvn6wTHBljgY/K3B39M+awGGgALAITP4nxSspXbnILjy/w8fPKl1Pr/FteXNakkhl+yAJtgUR4P/qpZ91p8e+ivO08ATowBwxO75N1+YOcGpTw8dfDMXOSduDQa0m5NjFG2b4HDwv0crPU0RgCdFAeBIUgiz//URZnoCNlz2yeGD808aLtuCVn+RUxw38umRA/Y1akkJbBFg3wN0Z7BdFACOFBW82ne4VE+wLYMW8+0lu97flhJpLacYbNZmXxut1bSUqz3ozvBcsA0UAA4Mjvwl/LcupYSrgbfBUdhv08xgQxdgDR5fG8KB2BYKABf6zP43YjokVwVb4jjst1mTZAEedbM9eE2mxB/CgdgyCgAHlGL2v5Fmks0JNq2ksN9mjGZLzUnBA7IkjNeEcCC2ggLAjf2CNSmlZrkHYHM8hP02Zs+xx4OUBPOaEA7EZlEAOKDpAKwrTdKzgg35CvttSBVsb32Y8pPJWAfhQGyIAsABpVVLsJYZNfF5T7Au32G/dekA/0y+6SDP/CAciHVRAKA0pvXfax7pcyviBgIJ+62HEOCjQn1NCAdiTRQAKIUd/E3rf0KwroDCfqgQwoF4nIYAjtnBv0jkaIPW/5ps2M+s91/ScRwgRYDzUfY1CbozshIObDeb6QluFIRFBwBOrc78RyYyDv5ZQ7Bhv7Uo6QkeoOJ5TQgH4h4KALg0kyY7xwn9rS3osN9aNKc4PqzQ6kOJB+FADFAAYLiULGhRM420sc8G/tTEAu3iNUQQ9ns8zSmOD1OJ7khcCAeCAgBPSA3WPrtK1KxZYzzRSHbtGzmSnWLWv76Yw37NL3OK48Oa2eA1ia7YJRxYb0owdNnlhhaPzMyb5xqo1bCfxHtb5Oze966dEDzik8MHbUEX6zXgHcKB9UMHAChJdGG/x8hzTnFci3ltYt6+STiwhigAgBJEGfZ7SCEy8x87zBDXcve1KWYkXoQDa4YCAHAs2rDfA1TvTr5zWrCuZp5P29dK4kU4sEYoAACHqnGyn+rleTKxr9NhR8cG9nS6C/a1irwIIBxYE4TFHCAEiAqE/VaYgSzXR/d2rrH3fwt+036ulabFvBlKWxI3woEVRgcAGLIqhP3uujvzZ/DfOpsHqEInQAgHVhoFADBEVQj7DSjpLOVPjxP62757RYB5LSVuhAMrilaxAywB1JMN+1XhJj+b9n/mvWtc2zxEvz1yYFppFf2auvl3mP6TKx+wFbQi6AAAQ1CVa3wLpU8z+A/fn16+Pq2Vjn7gJBxYLcwUHaADUB9VCfspe4yt0kf/5PL1jsCZT48caGudnCcciBDQAQC2qUphv36ejjP4u2dfY8KBCAUFALANhP2wXYQDEQpaxQ6wBFBthP0wLIQD4RMdAGALCPthmAgHwidmig7QAagewn5wiXAgfKADAGyAsB9cIxwIHygAgHUQ9kNZCAeibLSKHWAJoBoI+8EXwoEoAx0A4DEI+8EnwoEoAzNFB+gAxIuwH0JCOBAu0QEAVhD2Q2gIB8IlCgBACPshXIQD4QqtYgdYAogLYT/EgnAghokOAGqNsB9iQjgQw8RM0QE6AOEj7IeYEQ7EMNABQO0Q9kPsCAdiGCgAUCuE/VAVhAPxpGgVO8ASQJgI+6GqCAdiO+gAoBbMmukZwn6oKsKB2A4KAFSenflrM7OQiNmwn1J64pnL16MvYuCGLQLseyT2XIAtAv7fof9CkVsCWsUOsAQQjkHgL8s/kqipwVov6/3YjN+0n2ulaTEf/Q6BRMb3/vxaV+AMHQBUmg0XScwI+2GLKhMOLOTSzcmxUYEzFACorE8OHZySiNP+Nuy39/K1iX2dzoIAW2CLAPveiTwX0Fq+NcJSgEMUAKguJdGGiQj7YRhiDwcqpU/SBXCHAgCVFOvsn7Afhi3ycOBofnukLXCCAgCVpJR6QaLDyX5wI+aTAwvRJwVOUACgkrTotsSEsB8cizgcOCZwgu1iDrAN0K9Pvn5wzEwbbkgkONkPZYvu5MCkOb735/+HLYFDRgcAlZMURUsiQdgPPsQXDszoAjhAAYDKKZIk+NQwYT/4VpWTA7F9FACADyo9StgPvtn3oFLFCQmc1qolGDoKAMADrfPzXH8K3wbvQS2XJHCmU9ETDB0FAOBHyxQB89x8Bl/uXpKVz2tRwS+ZJYXiNEwHKABQOXmWdiQSXH8KHz49dPDNmK7HLpJGTzB0bAN0gG2A/n1y+OBN8yWmI0Q7zWZ6Ys/POAcA7tycbI9mt5dsy78t8VjY+961PYKhowOAalIS257htr250F5fLIADg6uxby/Z8zHaEpFC1FWBExQAqKREFzMSn5YtAggHYtjse6qf9e3g35LIJFrPCZygAEAlpXneMV9iDA4RDsRQxRT2e5Tq7b1ybVbgBAUAKmlPp7uglY6xCzBAOBDDEFvY7xE63quMY0AI0AFCgOH45PBffWQ+RVoSL8KB2LJIw34PMbP/9z7YJ3CGDgCqLddHJW6EA7ElsYb9Hnb3+mK4RAGAStvbudYttD4tcSMciE2JOex3P63VWa7Gdo8CAJX3zJXr5+K6+eyxCAdiXXGH/f7ADv5/euWDaYFzFACohfiuP308woF4nOjDfivs9dgM/uUhLOYAIcBwfXrkQFvr5HzkwUCLcCAqEva7ez22KM0NmSWjA4BasR8wd8NF0d+BTjiw5qoS9rM/i/08HWfwLx8FAGrHhosGRYCSjsSNcGBNVSXsZ38Gl/Knxwn8+UGr2AGWAOLx2yMHppVW0a+pm3+H6T+58gGHptSADftVYr1fZOaZ966dEnhDBwC1RjgQMalS2I/B3z9mig7QAYgP4UCEjLAfXKADAAjhQISLsB9coQAAVhAORGgI+8ElWsUOsAQQP8KB8I2wH1yjAwA8BuFA+ETYD2VgpugAHYDqIByIMhH2Q5noAADrIByIshD2Q9koAIANEA6Ea4T94AOtYgdYAqguwoEYNsJ+8IUOALAFhAMxTIT94BMzRQfoAFQf4UA8CcJ+CAEdAGAbCAdiuwj7IRQUAMA2EQ7EVhH2Q0hoFTvAEkD9EA7ERgj7ITR0AIAhIByI9RD2Q4iYKTpAB6C+CAfifoT9EDI6AMAQEQ7EKsJ+CB0FADBkVQsHfvL1g2OCLRkM/ua1E8J+CBitYgdYAsCqioQDe2Y5YILlgM2pyuBP2K/66AAADlUkHDgY0G5Ojo0KNlSJwZ+wXy1QAACO2SJAKR17LqDVX2yyO2ADNu0vEQ/+Nuxn36vPXL4e/Y4FbIxWsQMsAeBxftN+rpWmxXzMOwTMUsA+lgIeb6X1/5FESw2yK6z31wcdAKAkVQgHfpHltIXXYAb/eDskhP1qiZmiA3QAsJGIw4ELzd3Zvj1z3QXBPTfbY6NZ2rwpESLsV18NQeWUWoAoWRAtPaVU13yQXG0mO+fUxAKDwwZsLsAUARJhETCaLTUnzddZwT1ZMnhNojMI+7HeX1ssAeDJaLHJ8DGt9ZTS+nw/X7zZf695Xs8/1RKsK9pwYJE8L3iQkqheE8J+sCgAMHS2GOjn/Y+y95pv6nlh69g6ojw5UBUcDPQwFVPyn5P9cBcFANzR+lReNG/QDVhfdOFAHfnpdi5oiaMoIuyH+1AAwCnTDWjlRT6//G6TWeM67Afy3svXJiI5NIiuzqOCf01s2M++x/Z1OmR0MEABAOdsEZCkcolOwMaqcq0wwsLJfngcCgCUYrUTQCZgYxGEA5lBPirI14SwH9ZDAYDS2CKgX3Cc7GYEHQ5U0hM8QAX5mhD2w/ooABwwLdye4PG0PsVSwOYEGw7U0hU8oNDqQwkJYT9sAgWAA0orWqTr6Od91iI3KchwoJarggeoRHckEIT9sFkUAA5oCWw2EJ7jZAG2JqRwYPPL2ZzgAc1s8Jp4H3AJ+2ErKABcoEW6kdG8iPPoVJ8CCQfOcg/Ao/Z0Bq/JBfGEsB+2gwLAhUa8t72VRsd1dGoofIcD8zxli+IazGvjafAl7IftoQBwYGQisx0AZknr0BLJyWkB8hUOtGvLhMrWdve1KWakTIT98AQoANzx1g6Mg24Jtq38cKDq3cl3TgvW1czz6bK6M4T98KQoAFzRQlBqfYQAh6CccKAadBwYaDZmswBlLNEQ9sMwUAA40vx6v2O+dARwzG040Pw9c32UFvPm3VuicfA8CPthmCgAXNJCYGptzCaHyE048O7Mf2/nGrtatshNEUDYD8NFAeAQXYD1BHvOfbQGuYD3Ptg3jCUBu75MuOzJ2NeumS+PDyMYyPOAC0rgVPbzRtu8yvOCByilZhuHsxMCJ37Tfq6VpPm0+QE/vtn/j20v5yIXdJ6eY6AZru0+Dy0yZ7de8jzgAgVACbLLDbted1Jwj1bqxMjhbFbg1Eft9ujOZGlSK2krJfuVlpZeCWAOBhh7iY1OupIUV5eynXME/dzieSAkFAAlsMfeZkXzhtJsfVvVSPt71AQ5AADwhQxACexAlyfphBB8G7DtfwZ/APCLAqAkX5r4vKcLNSGQNOE4WQDwjQKgRCN/nXXt2rfU24wyxZAAALwiA+DB8rvNMZVouzOgVqfhmdZ/r3E42ycAAO/oAHhgOwH9tDFuugE9qQk7+Kd3cxAAgABQAHhiMwHNJBs335Z7e5gHdvAvEjlK6x8AwsESQADuzD/VSot8vorbBFdn/gz+ABAWOgABsN2AEbM2vhIQrNK56zNpsnOcwR8AwkMHIEA2JGhKs1Pm6TwfXVdAyYLW6kIzTc8x8ANAuCgAAjcoBlJpi5aWEr1fK91SWrUkFGbAN3+2nhLVLVRxtZnsnlMTCxzyAwAAAAAAAAAAAAAAAAAAAAAAAAAAAAAAAAAAAAAAAAAAAAAAAAAAAAAAAAAAAAAAAAAAAAAAAAAAAAAAAAAAAAAAAAAAAAAAAAAAAAAAAAAAAAAAAAAAAAAAAAAAAAAAAAAAAAAAAAAAAAAAAAAAAAAAAAAAAAAAAAAAAAAAAAAAAAAAAAAAAAAAAAAAAAAAAAAAAAAAAAAAAAAAAAAAAAAAAAAAAAAAAAAAAAAAAAAAAAAAAAAAAAAAAAAAAAAAAAAAUFX/Du0Pb3YK4QMtAAAAAElFTkSuQmCC;" parent="x97okhzxq58m8EEzVJWr-65" vertex="1">
          <mxGeometry x="16.25" y="6.25" width="47.5" height="47.5" as="geometry" />
        </mxCell>
        <mxCell id="RlYOseo9_Ji_c8jJ9TJl-2" style="edgeStyle=orthogonalEdgeStyle;rounded=0;orthogonalLoop=1;jettySize=auto;html=1;exitX=-0.001;exitY=0.372;exitDx=0;exitDy=0;exitPerimeter=0;" edge="1" parent="1" source="RlYOseo9_Ji_c8jJ9TJl-1">
          <mxGeometry relative="1" as="geometry">
            <mxPoint x="-220" y="260" as="targetPoint" />
            <Array as="points">
              <mxPoint x="-220" y="260" />
            </Array>
          </mxGeometry>
        </mxCell>
        <mxCell id="RlYOseo9_Ji_c8jJ9TJl-1" value="" style="rounded=1;whiteSpace=wrap;html=1;" vertex="1" parent="1">
          <mxGeometry x="-160" y="230" width="80" height="80" as="geometry" />
        </mxCell>
        <mxCell id="RlYOseo9_Ji_c8jJ9TJl-3" style="edgeStyle=orthogonalEdgeStyle;rounded=0;orthogonalLoop=1;jettySize=auto;html=1;" edge="1" parent="1">
          <mxGeometry relative="1" as="geometry">
            <mxPoint x="-220" y="280" as="sourcePoint" />
            <mxPoint x="-160" y="280" as="targetPoint" />
            <Array as="points">
              <mxPoint x="-180" y="280" />
            </Array>
          </mxGeometry>
        </mxCell>
        <mxCell id="RlYOseo9_Ji_c8jJ9TJl-5" value="MCP server" style="text;html=1;align=center;verticalAlign=middle;resizable=0;points=[];autosize=1;strokeColor=none;fillColor=none;" vertex="1" parent="1">
          <mxGeometry x="-165" y="280" width="90" height="30" as="geometry" />
        </mxCell>
        <mxCell id="RlYOseo9_Ji_c8jJ9TJl-6" value="" style="shape=image;imageAspect=0;aspect=fixed;verticalLabelPosition=bottom;verticalAlign=top;image=data:image/png,iVBORw0KGgoAAAANSUhEUgAABAAAAAQACAYAAAB/HSuDAAAACXBIWXMAAAsTAAALEwEAmpwYAAAgAElEQVR4nOzdd5RlVZmw8YcGmpyjZCSLSFYyiIgooOAAOiqYA6hg7jGDqIOYEIdBUBFRVEBUgiJBEEmSo+Scc+iGhqbDfOsMZz4p9y66uruq3vfc+/zWev5xzVqjvd9z6+x7TwBJkqT85gQ2At4PfAf4M3An8D991iTgWuA44CvAbsDLoxdHkiRJkqSZtQywM3AQcD4wMcHmO3NPAmcC+7f/botHL6AkSZIkSbVf97cEvgycCjycYEPd9aYBNwI/B/YGVo9eZEmSJElSf2ouW/8QcHz763X0hrkfeqD9927+3ZeLHgBJkiRJUu9e0v9e4FjgwQSb4X6vuULgGuB7wJuAeaIHRJIkSZLUXSsD+7X38E9NsOm1wWuesXBKe3XAktGDI0mSJEnKb+32QXSXJdjU2sw1pf3SpvnyZtnogZIkSZIk5bEhcAhwV4LNqw1vzZUbFwKfBJaKHjRJkiRJ0uh7WfsL8RUJNqk2elcGNK8a3AuYN3oAJUmSJEkjZ672HfPNk+QnJ9iQWlzNmxuOAbYDZoseTEmSJEnS8NgAOMLX9dkg3QR8HlgielAlSZIkSTNu9vbX/jMTbDCtG01qrw7ZLHp4JUmSJEnT17wCbhxwd4INpXW3y9pXCs4dPdCSJEmSpPJJ/ke074OP3jxa7/QgcBCwXPSAS5IkSVK/2wI4JcFG0Xr/9oDmoYGrRQ+8JEmSJPWb5untFyXYGFp/NbV9TsCa0QeAJEmSJPWyMe2D/S5NsBG0/m5qe+VJc+uJJEmSJGkYn+j/LuD6BBs/sxc3Dfi9XwRIkiRJ0vBc6n9Vgo2e2fS+CGhuDVg1+oCRJEmSpK7ZCDg7wcbObEZ6vn0bxVLRB5AkSZIkZbdCu4GammAzZzazTWhfHzh/9AElSZIkSdks2m6YnkuweTMbru4FPtQ+x0KSJEmS+lqzMfoY8ESCzZrZSHUlsGn0wSZJkiRJUdYH/p5gc2Y2Wg8KPAZYIvrAkyRJkqTRshDwA2BKgk2Z2Wj3OLAfMCb6QJQkSZKkkbQzcE+CTZhZdOcB60QfkJIkSZI03NYA/pJg02WW7bWBBwPzRR+gkiRJkjSrZmufgv50gs2WWdZuB7aOPlglSZIkaWatBJydYHNl1oWmts/GmCv6wJUkSZKkGbEXMD7Bpsqsa/0D2DD6AJYkSZKk6VkaODnBJsqsy00GDgLGRh/QkiRJklTzjvYVZ9GbJ7Ne6VJgregDW5IkSZL+z9zAkQk2S2a92LPtgzQlSZIkKfz1flcn2CSZ9XrH+LpASZIkSVHeCUxIsDEy65euB9aOPvAlSZIk9Y+52teVRW+GzPqxCe3zNiRJkiRpRK0IXJxgE2TW7zW3BMwb/YEgSZIkqTe9GXgqwcbHzF7ocmCF6A8GSZIkSb1lP2Bqgg2PmQ3sEWDL6A8ISZIkSd03FjgqwSbHzAbvOWDP6A8LSZIkSd21GHBOgs2NmU2/acBBwJjoDw5JkiRJ3bI6cFOCTY2ZzVgn+HBASZIkSUO1PfBEgo2Mmc1cV/pwQEmSJEnT8xFgSoINjJnNWvcCr4z+QJEkSZKU07gEmxYzG74eBzaL/mCRJEmSlMdswMEJNitmNvw9DewQ/SEjSZIkKd7swI8TbFLMbOSaBLwt+sNGkiRJUpyx7RPDozcnZjbyNc/2+HD0h44kSZKk0TcfcHqCTYmZjW4HRX/4SJIkSRo9iwGXJNiImFlM347+EJIkSZI08pYArkqwATGz2L4f/WEkSZIkaeQsCVyTYONhZjnySwBJkiSpBy0FXJtgw2FmufJLAEmSJKmHLAvclGCjYWY5+1b0h5QkSZKkWbc8cEuCDYaZ5e6L0R9WkiRJkmbeCsCtCTYWZtaNPhX9oSVJkiRpxq0I3J5gQ2Fm3Wka8P7oDy9JkiRJQ7cacE+CzYSZda/JwE7RH2KSJEmSpm8N4N4Emwgz624TgU2jP8wkSZIkDW5N4L4Emwcz636PAKtHf6hJkiRJKq0F3J9g02BmvdNtwFLRH26SJEmS/mn99te66M2CmfVeFwJzR3/ISZIkSXph8/9ogk2CmfVuxwGzRX/YSZIkSf1sQ+CxBJsDM+v9/iP6A0+SJEnqV5sBTyXYFJhZfzQN2CP6g0+SJEnqN1sB4xNsCMysv5oArB39AShJkiT10+Z/QoKNgJn1ZzcDC0V/EEqSJEm9bms3/2aWoJN8KKAkSZI0cnYAnk1w4m/d6HngQeB64DLgPODMtmbzdjxw2ov+s4vb/7tbgScS/Pe3/PlQQEmSJGkE7AQ8l+CE33LUfBF0BfA74BDgk8BuwGuAFYEFhmHmxgCLA6sD2wB7AV8Gjmy/OLgNmJrg38LimtLOhiRJkqRhsgswKcHJvsXU/CL/a+Dz7SysCsxODvO2r6LcEzio/WLg8QT/ZjZ63QcsET2IkiRJUi/Yrb2UO/ok30anZ4DTgQOAHdtf4LtmtvaqgeZLgR8CV3qlQM/3J58HIEmSJM2a5n3bkxOc3NvIXkJ9Wfvr+XbA3PSm5ouM3YEj2lsHov/dbfj7TPSQSZIkSV31rnZzGH1Sb8Pf08BvgXcCC9OfVgM+B1wETEuwJjbrNVcqbRQ9WJIkSVLXvNdLpnuu8cDPgbcA80QPWDLLAPsA5zj3ne8G51uSJEkaug+4CeqZmnU8H/gQMH/0YHXEcsA44OYE62cz16HRQyRJkiR1wd5eDt0T3Q18CVg+eqA6rHmg3ObAT4GJCdbUhl7zGfb66AGSJEmSMtvXzX/nO6d9a8Mc0cPUYxZrrwq4M8Ea29C6t4+fbyFJkiS9pE8nOGG3mWsS8GNgnegh6gOzA7sC5yVYd5t+zdUbkiRJkl7kswlO1G3mNv7NK+28zD/GFsApCebAXrrtowdFkiRJyuJLCU7QbcZf4fdtYOno4dH/2gQ4NcFcWL3bgfmih0SSJEmKdkCCk3MbepOBw934p7UZcEGCObGyQ6KHQ5IkSYr0tQQn5Tb0zvQe/87YDrgmwczYwNdhviZ6MCRJkqQI305wQm5D6/L2VXTqluYtDPsAjyeYIXuhS4Ax0YMhSZIkjeZ7zb+f4ETchnaf/7j2qfPqrkXbBzX6es0c7R09EJIkSdJobf5/kOAE3KZf82R5n+zfW7YErk0wW/3ek8DLoodBkiRJGklj2l8ho0++7aW7G3hD9LBoxMwJfBl4PsGs9XNHRQ+CJEmSNJKb/6MSnHTbS3d8e7m4el/zMMcrEsxcPz8QcOPoIZAkSZKGW3P/+NEJTrht8B4Cdo0eFIVcDbA/MCXBDPZjF7S3RUmSJEk98xTyXyU40bbBOxVYInpQFGrz9taP6Fnsx3aPXnxJkiRpuH5dPD7BCbbVm9w+4d9fINVYDPhjgrnst24H5o5efEmSJGlWjAVOTHBybYNf8v+66CFROs2XQfv5gMBR71PRCy9JkiTNrLmAkxOcVFu9s4Alo4dEqW0FPJBgVvulR4AFoxddkiRJmpnN/0kJTqit3pHtrRnS9CwLXJZgZvulr0UvuCRJkjQj5gHOSHAibWVT2vv9pRkxP/D7BPPbDz0NLB294JIkSdJQzAf8JcFJtJU9CbwhekDUWWOAgxPMcT90SPRiS5IkSUP5lfDcBCfPVnYfsHb0gKgnfLi9kiR6pnu5icDLohdakiRJeqlf/s9JcOJs9deLrRo9IOopuwDPJpjtXu670YssSZIk1SwEXJTghNnKrgOWiR4Q9aRtgfEJZrxXa75g8SoASZIkpbIIcGmCk2UrOx9YOHpA1NM2AR5LMOu92rejF1iSJEl68eb/kgQnyVZ2bvtMBmmkreuXACNWc4WFX+JJkiQp3BLA1QlOkK3sr27+NcrWBx5PMPu92KejF1eSJEn9bUngmgQnxlZ2GjBP9ICob28H8JkAw9+dwBzRiytJkqT+1DyU6oYEJ8VWdgowV/SAqK9tCTyT4FjotfaIXlhJkiT1n6WBfyQ4GbayU938K4kdgckJjole6sLoRZUkSVJ/WR64JcGJsJWdAMwZPSDSi3wwwXHRazW3WEiSJEkjbgXg1gQnwFZ2nPcHK6mvJzg+eqnfRC+oJEmSet8qwF0JTn6t7Bhg9ugBkQYxWzuj0cdJrzS5/TJWkiRJGhGrA/ckOPG1smPd/KsDmudSXJzgeOmVDo5eUEmSJPWmNYH7E5zwWtmRwJjoAZGGaDngwQTHTS/0hK/5lCRJ0nBz85+3I9z8q4M2AyYlOH56oT2jF1OSJEm941XAwwlOcq3skPa+aqmL9k1wDPVC50YvpCRJknrDesAjCU5wrew70cMhDYPjEhxLvVBzlZYkSZI00zYAHk1wYmtlPvhLvWIR3yoyLP1n9EJKkiSpuzZpHy4VfVJrZV+LHg5pmG0DTE1wbHW55hktvgVEkiRJM2xz4KkEJ7RW9tXo4ZBGyDcTHF9db7voRZQkSVK3bAVMSHAia2X/ET0c0giaE7gqwXHW5Y6OXkRJkiR1h5v/vH0hejikUbAu8HyC462rjQfmjV5ESZIk5bc9MDHBCawNbBrwiejhkEbRwQmOuy63R/QCSpIkKbcdgGcTnLhaufn/ePRwSKNsHuCWBMdfVzshegElSZKU187AcwlOWm1gzRPRPxQ9HFKQbRMcg12+DWCu6AWUJElSPju5+U+7+X9v9HBIwU5IcCx2tTdGL54kSZJy2c2HbaVsCvDu6OGQElgeeCbBMdnFDo9ePEmSJOXRPCRqcoKTVCs3/3tGD4eUyNcTHJdd7D5gtujFkyRJUry3u/lPu/l/Z/RwSMk0r7S7K8Hx2cU2jl48SZIkxXpfe3959ImpDWwSsGv0cEhJfSDBMdrFDoxeOEmSJMWeRLv5z7n53yV6OKTEZgduSnCsdq1rohdOkiRJMZrXybn5z1fzBoY3Rw+H1AF7JTheu9jK0QsnSZKk0bUfMC3BiagNbCLw+ujhkDp0FcD1CY7brtV8/kuSJKlPfCbBCaiVPQ1sGz0cUse8LcGx27VOjl40SZIkjY7PJTj5tPrm/7XRwyF19CqAWxIcw13qyfbfTZIkST1sXIITTyubAGwTPRxSh30swXHctdaLXjRJkiSNnP0TnHBa/Ze4TaKHQ+q4eYFHEhzPXWrf6EWTJEnSyDgwwcmmlT0BvDp6OKQe4efcjHVi9IJJkiRp+H0nwYmmlT0KrB89HFIPWRqYlODY7krNFROzRS+aJEmShkdzYndIgpNMK3sYeFX0gEg96LcJju8utXb0gkmSJGl4Nv+HJji5tLKHgHWiB0TqUW9IcIx3qX2iF0ySJEmzvvk/LMGJpZU96C9u0ogaA9yZ4FjvSr+JXjBJkiTN2snvUQlOKq3sHmC16AGR+sCXExzvXen+6MWSJEnSzJkd+EWCE0oruwtYJXpANGzmB5YAVgIWAcZG/xfSACsA0xIc911p+egFkyRJ0oxx85+35nLkl0cPiGbqvfLbAl8Afg5c2D68cbB1ngLcDpze3oKzT/ush+aqHI2+CxIc+11pl+jFkiRJ0oxt/o9NcBJpZXcAK0cPiIZstfby8YuA54dpBh4HTgbeDSwU/T+wj+yX4PjvSl+LXixJkiQNTXPp8e8SnEBa2U3ActEDoumaD/gYcOkozMSzwO+BHXz/+oh7WXtVRvTnQBf6Y/RiSZIkafrmAk5JcPJoZde3GxDltTTwDeCxoBm5pr0qwOcHjJxzE3wWdKEHohdKkiRJL21u4LQEJ45Wdh2wVPSAaFBj28vDxyeYlaZbgN2j/1F6lLcBDL3moZaSJElK+nCyMxKcMFrZVZ5Ip7Zr+1yG/0nYn4HVo/+BeswaCda1K20TvViSJEmqb/7PSnCyaGVXAotHD4iqFgCOSDAj02ti+6u1hs9tCda1C300eqEkSZJUPqzs7AQnilZ2ObBY9ICoauP2Mvv/6VC/BRaJ/ofrEf+dYD27UPPvJEmSpCQW9L3WaWteGefr3fJe8j8xwYzMTM2XFqtG/wP2gJ0TrGUX+lv0QkmSJOkFCwN/T3CCaGXnt1/OKJ99gakJZmRWn86+YfQ/ZMfND0xOsJbZezB6oSRJkvTC5v/iBCeHVnZee2+58vlmgvkYriYAW0T/g3bcZQnWsQv5eSZJkhSouQf4kgQnhVZ2bvvLovL5RoL5GO6eAjaI/oftsB8kWMMutG70QkmSJPWrJYGrE5wQWtnpwDzRA6LCbD2+0Wsu0V4t+h+5o/ZIsH5d6N+iF0qSJKkfLQ1cl+Bk0Mr+CMwdPSCqbv4PTTAfI91NXqY9U5ZLsHZd6HPRCyVJktRvlgFuSHAiaGUnA3NFD4iqm//DEszHaPXr6H/wjro7wdplz1cBSpIkjaLlgZsTnARa2Slu/lMaAxyVYD5Guw9E/8N30KkJ1i17J0UvkiRJUr9YAbg1wQmglR0PzBk9ICrMDhydYD6iHgrYXC2k/nwzxEh1efQiSZIk9YMVgdsSnPxZ2W+AOaIHRNXN/y8SzEdkx0YvQsf8e4I1y97D0YskSZLU61YCbk9w4mdlv3Lzn1JzNcYJCeYjQ6+NXowOeWWC9creNB9yKkmSNHJWB+5NcNJnZT9t7y9XLmOB3yWYjyxdGL0gHfvi6PkEa5a95oo0SZIkDbM1gPsSnOxZ2ZFu/tNu/v+QYD6ytU30wnSIt1pNvw2jF0mSJKnXrAXcn+BEz8p+5OY/peay5D8lmI+MnRm9OB1yVoL1yt4bohdJkiSpl6zbPmgp+iTP6u/Abt4pr1zmBc5IMB+Za24n0vT9OMFaZe+d0YskSZLUK9YHHklwgmdl34keDg26+fdX2+n31eiF6ogvJlir7O0XvUiSJEm9YGPg8QQnd1bWvB9c+cwHnJ1gPrrQrV69MiTvSLBW2TsgepEkSZK6biPgsQQndlZ2UPRwqGpB4PwE89GlmtuL9NK2TbBO2ftu9CJJkiR12ebAUwlO6qzMy6ZzWgi4KMF8dK1PRC9cB6ybYJ268BYUSZIkzYQtgfEJTuis7EvRw6GqhYGLE8xHFzspevE6YNkE65S9X0cvkiRJUhdtBUxIcDJnZV+IHg5VLQZckWA+utoTPgdgSK+TjF6n7J0SvUiSJEld07xHeWKCEzkb2DRg3+jhUNUSwNUJZqTrLRO9kB3gF7Mv3TnRCyRJktQlbwKeTXASZ+Xmf+/o4VDVksA1CWakF3pt9GJ2wH0J1ilzF0QvkCRJUle4+c+7+d8nejhU1fxifUOCGemVPhK9oB1wR4J1ytwl0QskSZLUBTsBzyU4ebOBTQXeGz0cqloa+EeCGeml9o9e1A64McE6Ze7K6AWSJEnKbnfg+QQnbjawKcC7o4dDVSsAtySYkV7Ld7hPn8+aeOmui14gSZKkzN7RbjSjT9psYJOBt0cPh6pWBG5LMCO92I+jF7cDfM3kS9dcISFJkqSKvdz8p6y5GmO36OFQ1SrAXQlmpFc7NnqBO+CCBOuUueaZHJIkSfoX72/vL48+WbOBTQJ2jR4OVa0O3JNgRnq5I6MXuQMuTbBOmWueyyFJkqQX+aCb/7Sb/7dED4eq1vD1a6OSzwCYPl85+dI1/z6SJElqfbh9rVz0SZoNrHkDw87Rw6GqNYH7E8xIP+RbAKbPtwC8dFdFL5AkSVIWn3Dzn7JngO2ih0NV6wIPJ5iRfulD0QveAbcnWKfM+RpASZIk4LMJTsys7GngtdHDoar1gEcSzEg/tXX0oneAt6K8dBdFL5AkSVK0zyU4KbMyN/95bQA8mmBG+q2loxe+AyYmWKfMnRW9QJIkSZHGJTghs7IngU2jh0NVm7TrEz0j/dbj0QvfAfMmWKfsnRy9SJIkSVEOSHAyZmVPtptM5bM58FSCGenHfh+9+B2wXIJ1yt5vohdJkiQpwoEJTsSs7Ang1dHDoaotgPEJZqRf2zd6ADryUMrodcreUdGLJEmSNJpmA76X4CTM6pc4bxQ9IKratn0mQ/SM9HPrRA9BR+Y0ep2y9/3oRZIkSRrNzf8hCU7ArOwh4FXRA6Kq7X2wWng3t59femnvSrBW2ftK9CJJkiSNhubk+YcJTr6s7EHgldEDoqodgGcTzEi/96XoQeiILyVYq+x9PHqRJEmSRmPzf1iCEy8rewBYO3pAVPUmN/8pmga8PHoYOuInCdYre++MXiRJkqSRNDvwswQnXVZ2N7Ba9ICoaldgUoIZMTgtehg65KwE65W9N0YvkiRJ0khu/n+Z4ITLyu70V820dgOeTzAj9kJbRg9Eh9ySYL2y51tWJElST5qjfd9x9MmWld0OrBQ9IKraA5icYEbshc6JHogOGesXV0Nq+eiFkiRJGm5zAr9NcKJlZXcAK0cPiKr2AqYkmBH7573//vo/dK9KsGbZm9r+fZQkSeqpX4F+l+BEy8puApaNHhBVva/dHETPiP2zo6OHomPemWDNuvC6VUmSpJ7a/P8hwUmWld0ILBM9IKr6oJv/dD0OLBk9GB1zUIJ1y96V0YskSZI0XOYB/pzgBMvKrnUzk9ZH20vNo2fEBtbcjqEZc2qCdcveH6MXSZIkaTjMC5yZ4OTKyq4CFo8eEFXt7eY/ZT+NHoyOujfB2mXvsOhFkiRJGo7N/18SnFhZ2RXAYtEDoqpPJ5gPq18t03ymacasmGDtutBnoxdKkiRpViwA/C3BSZWVXQwsEj0gqvp8gvmwsvt8Q8ZM+/cE69eFdhvGf/OF2qu7Xv4vrQls+C//2Urt34MFh/H/vyRJ6jPNyceFCU6orOzCdn2Uz7gE82FlTwLrRQ9Hh/1XgjXsQhsN8vycZpO+efsFwb7A14EjgBPaK+yahwfe2T6c8rlh+O8xoX0jwW3AZe3ze44FDgW+2t6etCPwSr80kCRJjYXbX5ijT6as7Lz2ygzlc2CC+bCy8cAm0cPRcVckWMcu9Dngm8Cvgb8DDyb47zTUL8iuAU5pn2PwH8A7gM28zUySpN63aPuLQfQJiZWdA8wfPSCqcvOfd2OzafRwdFxztdGUBGtpcT3c/v05HPg4sJVXoUmS1BsWby9FjD7ZsLKzfHhZWt9IMB9W3/z7y/+s2zXBWlq+mjec3NrexvAF4LX+jZIkqVuWbC8BjD6psLI/t/eRKpfZgEMSzIeVPQG8OnpAesQRCdbTulFzpcg/2pnZHVgienglSVLd0u0f7eiTBys7FZg7ekBU3fwfmmA+rOzxQR7GpplzZ4I1te52A/AT4N3AqtHDLEmS3Pxnzs1/3s3/YQnmw8qaJ5+/KnpAesgrEqyp9VZ3tFcI7AzMFT3gkiT1m+WBWxKcEFjZicCc0QOiwhjgqATzYWUPtq810/D5VIJ1td6teV3h74D3Ay+LHnZJknrdiu07gqNPAKzsN8Ac0QOiwuzA0Qnmw8oeANaOHpAedGGCtbX+eajgpcD+7S08zZVWkiRpmLj5z5ub/7yb/18kmA8ruxtYLXpAevQKsWkJ1tf697j+AbBe9IEgSVLXrdTegxf9x93KfuXmP+3m/9gE82FldwGrRA9Ij/pMgvU1+5/2OUXjvE1AkqQZtzpwb4I/5lb2k/b+cuUytr1HNXo+rKx5Ov3Lowekh12SYI3NXtxU4HzgQ8AC0QeIJEldeJrzAwn+gFvZ4d7vmHbz/4cE82FlzVVMK0cPSA9rvljx8n/L3DPAL4Etow8WSZIyWgu4P8EfbCv7kZv/lJrXU52cYD6s7CZg2egB6XFfT7DOZkPtBmA/YL7oA0eSpAyaB+g8kuAPtJV9z81/SvMCZySYD6uf6C8TPSB98MyLuxOstdmM9mT74ECvDpIk9a31gUcT/FG2sm9HD4cG3fyflWA+rOx6HwI2KnZKsNZms/qsgDOBnf2SXZLUT14NPJHgD7GVfSN6OFTVXD56doL5sLIrgcWjB6RP/D7BepsN5xeHH2qf6SJJUs/atL0ULvoPr5XtHz0cqpofOCfBfFjZFcBi0QPSJ5pnKzyfYM3NhrvmtpZ92ue7SJLUUzYHnkrwx9bKvhI9HKpaCLgowXxY2WXAotED0kcOTrDmZiPZQ8C49nYvSZI6r3kdzvgEf2Ct7EvRw6GqhYGLE8yHlV0KLBI9IH2kea+6t41Zv/SwXwRIkrpua2BCgj+qNrDmXdqfiB4OVTWby0sSzIiVnQ8sGD0gfeaTCdbdbLR7pL01r7kSTJKkztgBmJjgD6mVm/+PRQ+HqpYArk4wI1b2t/bXaI2eOYA7Eqy9WeQVAXu3x4IkSantCDyX4I+nlZv/j0QPh6qWBK5JMCNW9tf2gYwaXXsmWHuzDF0HvCH6gJQkaTBu/vNu/punDSufpdoTvOgZsbI/A/NED0gfmh24McH6m2XqTGCd6INTkqQX283XNaVsCvCe6OFQ1dLAPxLMiJX9CZg7ekD61PsTrL9ZxiYDR7RfHEuSFGoPN/9pN/97RQ+HqlYAbkkwI1Z2qpv/MHMCtyeYAbPMTWgfFOjnlCQpxDvbjWb0H0Qrfyl4W/RwqGpF4LYEM2JlpwBzRQ9IH9s7wQyYdaXmS2SfDyBJGlXvaDea0X8EbWDN1RhvjR4OVa3kL5xpO779BVoxmjctPJBgDsy6+MXlctEHsCSpP+7TnJrgD58NbBKwS/RwqGp14J4EM2Jlv/F1W+G+k2AOzLrak8B+7UM0JUkadh9085928//m6OFQ1RrAfQlmxMp+5eY/3Cq+QcZsWLqg/XsjSdKw+Uj7WrnoP3I2sObkeefo4VDVmsD9CWbEyn4CjIkeEP3vJczRs2DWK00Exnk1gCRpOHzKzX/KngFeFz0cqloXeDjBjFjZkW7+U3hTglkw68XOb289kyRppnwmwR8zq2/+t40eDlWtBzySYEas7HBgtugBEfP5UEyzEW1i+2wAP+8kSTNkXII/Ylb2NPDa6OFQ1QbAowlmxMq+68lwGocmmAezfujPwMuiD3hJUjfsn+APl9Wf+Ltp9HCoaiPgsQQzYmXfjh4O/X/N55cPkzUbvR4Edow+8CVJuX0jwR8sK3sceHX0cCm3mGQAACAASURBVKhqc+CpBDNiZQdFD4f+v7mA6xLMhFm/1TzH6XvAnNEfApKkfL6e4A+VlT3h5j+tLYHxCWbEytz85/L9BDNh1s9dCrw8+oNAkpRDc2+sJ2d5f/lvLi9XPlsBExLMiJV9JXo4NMD2vk3GLM2thLtHfyBIkuI3/z9M8EfJyh4CXhk9IBp0QzMxwYxY2Rejh0MDLNnehxw9F2b2QtPaK6Rmj/5wkCTFbP5/lOCPkZU9ALwiekBUtQPwbIIZsfKk9hPRw6Hib8wfE8yGmZWdDiwW/SEhSRrdE7PDEvwBsjI3/3m9yc1/2s3/vtHDocLnE8yGmQ3e3d5mKEn9obns6+cJ/vBY/Y/xqtEDoqqdgOcSzIiVm/+PRQ+HqrfJTEkwH2b20j0D7BH9gSFJGtnN/zEJ/uBY2V3AKtEDoqrmoUnPJ5gRKzf/+0QPhworAo8kmA8zm7HnAjRXh0qSemzz/8sEf2is7E5g5egBUdXbgMkJZsQG1vy6/J7o4VBhHuCyBPNhZjPece0xLEnqAWOBExP8cbGym4HlowdEVf/u5j/t5n+v6OFQYQxwQoL5MLOZ7wJgiegPE0nSrG/+f5/gj4qV3QgsGz0gqnofMDXBjFi5+X9X9HCo6vsJ5sPMZr3bgNWjP1AkSTO/+T8pwR8TK7sBWCZ6QFT1QTf/KWuew/DW6OFQ1d4J5sPMhq9HgU2jP1gkSTNmLuCUBH9ErOx64GXRA6KqD7v5T9kkYJfo4VDVzj7x36wne7p9/a0kqQPmBc5K8MfDyq4EFo8eEA36K+a0BDNi5eb/zdHDoartgGcTzIiZjdyVV++M/qCRJL20+YC/JPijYWVXAItFD4iqPp1gPqzsOWCn6OFQ1ebAhAQzYmYjW/PF+L7RHziSpME3/+ck+GNhZc2rsRaNHhBVfS7BfFjZM+0vzMpnE2B8ghkxs9H7EuAz0R88kqSBFgIuTPBHwuqv1VkwekBUNS7BfFj93tNto4dDVRsDTyaYETMb/faP/gCSJL1gYeDvCf4wWNl5wALRA6Kq/RPMh9U3/9tED4eqNgQeSzAjZhbXd6I/iCSp3y0CXJLgD4KV/c3Nf1oHJpgPK2t+WfbVUzltBjyVYEbMLD6/BJCkIEsAVyX4Q2BlZ7ZvY1A+30gwH1b2BPCa6OFQ1Zbe829m/1Lzt1SSNIqWBK5J8AfAyv4MzBM9ICrMBhySYD6s7PH23nLl4+bfzAbLZwJI0ihZCrg2wQe/lf0JmDt6QFTd/B+aYD6s7GFg3egBUdXWvurPzKbTF6M/qCSp1y0N/CPBB76VnQrMFT0gqm7+D0swH1b2ELBO9ICo6g3AxAQzYmb5+3z0B5Yk9arlgVsSfNBb2QnAnNEDosIY4KgE82FlDwKvjB4QVb0ReDbBjJhZd/pc9AeXJPWaFYBbE3zAW9lxbv5Tmh04OsF8WNkDwCuiB0RVOwLPJZgRM+tW04CPRn+ASVKveDlwZ4IPdyv7RbvRVC6zt2sTPR9WdjewavSAqOrfgOcTzIiZdfdLgPdGf5BJUtetBtyT4EPdyo4F5ogeEFU3/8cmmA8ruwtYJXpAVLWHm38zG4amAG+J/kCTpK5aA7g3wYe5lf2kvb9cuYwFfpdgPqzsDmDl6AFR1duByQlmxMx6o2eATaI/2CSpa9YE7kvwIW5lR7r5T7v5/0OC+bCym4HlogdEVe9w829mI/SK1+YqVknSEKzVPiQr+sPbyg5vXyunXJrXL56cYD6s7EZg2egBUdX7gakJZsTMerPm4dVLRn/QSVJ26wGPJPjQtrLvRg+HquYFzkgwH1Z2A7BM9ICo6oNu/s1sFLq4/TstSarYAHg0wYe1lR0cPRyqak4qzkowH1Z2PbB09ICo6iPt07qjZ8TM+qPmCj3fmCRJ/+I1wBMJPqSt7MDo4VDVfMDZCebDyq4EFo8eEFV90s2/mQX0regPP0nKZDPgqQQfzlZ2UPRwqGp+4JwE82FllwOLRQ+Iqj6TYD7MrD9rvnh8W/SHoCRlsAUwPsEHs5V9OXo4VLUQcFGC+bCyy4BFowdEVeMSzIeZ9XcT29tdJalvbQVMSPCBbGVfjB4OVS3cPlAoej6s7AJgwegBUZWbfzPL0h3eIiapX70eeCbBB7GVl6h9Ino4VLUIcEmCGbGy84AFogdEVd9IMB+Wr+fbjdi5wDHt7W6fbV8NuSuwDbAh8PIXtWj7ObxI+2rP//vP1wU2AXYE9gT2Aw5oX5v7R+A6f+ywf+k0Hwooqd/sADyb4APYys3/R6OHQ1VLAFcnmBErO7d9JoPyOTjBfFhszWuF/9puxpu/b9u2m/cxAfO4SHv597uA/wROat8T7+so+7NvBsygJIXYCXguwQevDaw5Aflw9HCoaingmgQzYmXNxsLNfz6zAd9LMB82uk1oj8nmaetvBZajO2902ap9SOVvgXsS/Fva6Pzo8m/RwydJI20XYFKCD10rN//vix4OVS3dXj4aPSNWv4RznugBUXXz/8ME82Gj80C1M4DPtZfr99Il1cu2txMcDdyb4N/aRqan2ttIJKkn7dbecxf9YWsDmwLsFT0cqloeuDnBjFjZn4C5owdE1c3/jxLMh41ct7S3dmzbZ8fgWsC+wJnA5ATrYMNX81afOaIHTJKG2x7+wUq7+W9+YVA+K7T3hkbPiJWdCswVPSCqbv4PSzAfNvz9A9i//ZVfLzxLYPf24YU+XLA3OjB6qCRpOL2r3WhGf7jawJ5vv5hRPisCtyWYESs7AZgzekBUmL29VDp6Pmz4uqN9kv6q0cPVgecHNFfx/cWHCXa65jx56+hhkqTh8F7/IKVsUvuAJOWzEnB7ghmxsuO8TDPt5v/YBPNhs17za/ZR7UaouaJDM37l2Je8dayz3d2+alKSOusDbv7Tbv6bhzEqn9V92FPafu3mP+3m/xcJ5sNmreZ2p3FufobVFsDxXoHZuU6MHhxJmln7tK83if4gtYE9C7wpejhUtQZwX4IZsbJje+zp4r1izvZkOXo+bOZqfiD4I7ADMCZ6mHrYKsB3gCcSrLkNreYHNEnqlOYptW7+c74uafvo4dCgT3e+P8GMWNmP3ZykNBY4KcF82Iw3pf1Sbe3oIeozC7SvS3wowQzYS/d0ezugJHXCpxJ8cFrZM8B20cOhqnWBhxPMiJUd4eY/JTf/3X3w7DHt1U6K07zB5EPAPQlmwgaveaijz8GQlN64BB+YVn+okk+WzWl94JEEM2Jlh3vyldI8wJ8TzIfN2KX+R7cPqFOuLwI+6hUBqXtP9JBI0ktx85/3MrJtoodDVRsAjyaYEStr7pdVPvMCZyaYDxt6zXqtFz04mu5rBJtzuPEJ5sUG1jy3YZnoAZGkmgMSfEha2ZPAJtHDoaqNgMcSzIiVHRw9HKqaH/hrgvmwoXU58LroodEMaTaaR/rWgJSvn5WkVL6W4MPR6t8avyZ6OFS1OfBUghmxsoOih0OD/kJ5doL5sKF98byfb83otOaKjYsSzJL9s12jh0KS/s83EnwoWtnjwMbRw6GqLb3MMm1fjR4OVS0EXJhgPmz6nQIsFz0wGhbN80/28ja1NDVvCVokeigk9bfmD8MhCT4Qrezh9qnyymer9oGM0TNiZV+OHg5VNSe8lySYD3vpbgZeGz0sGhFLta9sjJ4xe+HBtJIUtvk/NMEHoZU1T/JdJ3pAVLU9MDHBjFjZF6KHQ4Nu/i9OMB82eNPaV2U2z2dQb3tT+yt09Mz1+9s0NoweBEn9ufn/rwQfglb2ILB29ICoagfg2QQzYuXm5RPRw6FBN/+XJpgRG7w7fchf31kCODHB7PVz5/t6WkmjaQzw0wQfflZ2L7B69IBo0F9N3Pzn3Px/PHo4VLUkcG2CGbHBOwpYMHpQFOZd7cMeo+ewX9stegAk9Yfmab5HJ/jQs7K7gVWjB0RVOwHPJZgRKzf/H40eDg16v7Gb/7w1tzF9IHpIlMKKwN8TzGS/nvfNGz0Aknp/839Mgg88K7sLWCV6QFS1O/B8ghmx8h7K90YPh6qWBv6RYEas3g0+Y0b/Yi7gBwlmsx/7UvTiS+pdcwLHJ/igs7JbgRWiB0RVbwMmJ5gRG9gU4N3Rw6Gq5YFbEsyI1fs5MF/0kCitf/cNN6Pe08Cy0QsvqfeM9WEvqV+55LuW854IufnPufnfM3o4VLVC+4Vm9IxY/bgZFz0g6oRXArcnmNl+6hfRiy6p9zb/v0/w4WZlN/qtb1rvay8xj54RKzcx74geDg16H7GbhpyNB3aOHhB1ymLAXxPMbj89z2b96EWX1Dv3dJ2U4IPN6vdgLhM9IKr6oJv/lE0Cdo0eDlWtDNyRYEas7DZfK6tZ+AHpZwlmuF86OXrBJXXfPMDpCT7QrOzq9h28yufDbv7Tbv7fEj0cqloDuC/BjFjZBcDi0QOizvt8+wt19Dz3Q6+JXmxJ3dW8UuTMBB9kVnalJ2Rp7e1JTsqa1y96+XJOa7r5T9tZwALRA6KesZfPxBmVTo9eaEnd1Dzd9y8JPsSs7PL2vjrl8+kE82FlzwCvjx4OVa0F3J9gRqzsd+0tgNJwejPwbIL57vW2jl5oSd3b/J+T4MPLyi4DFo0eEFV9LsF8WH3z/7ro4VDVesAjCWbEyg4HxkQPiHrWNsBTCea8lzsvepEldcfCwEUJPris7HxgwegBUdW4BPNh9fcivzZ6OFS1IfBYghmxsoOih0N94dXA4wnmvZfbLnqRJeW3CHBpgg8sKzsXmD96QFS1f4L5sLIJ7a9Mynni/0SCGbGyA6OHQ31lA+DRBHPfq10YvcCScmvuKb8iwYeVlZ3d3pahfA5MMB9W9iSwSfRwqGozL/1N21eih0N9aV2/BBjRtopeYEk5LdG+Ui76Q8rK/uov/2l9I8F8WNkT7S/MymcLYHyCGbGyL0cPh/qaXwKMXCdHL66kfJYErknwAWVlpwHzRA+ICrMBhySYDytr7ifdOHpAVLWlm/+0fTF6OCRgfZ8JMCJNa9+2Ikn/ayngugQfTlb2J2Du6AFRdfN/aIL5sLKHgVdFD4iqtm6fyRA9I1ZuDD4RPRzSizS3bnmL0PB3RPTCSsphOeCmBB9KVn/38tjoAVF1839YgvmwsoeAdaIHRFU7ABMTzIiVm/+PRg+HNMgXhs8lOEZ6qWfbK34l9bEVgFsSfCBZ2QnAnNEDokLzPuyjEsyHlT0IrB09IKp6Y3viGT0jNjA3/8pud2BqgmOllzogelElxVkRuC3BB5GVHQfMET0gKswOHJ1gPqzsHmC16AFR1Y7+ipd287939HBIQ/DpBMdLL/WYb5SS+tMqwF0JPoSs7Jh2o6lcmjX5RYL5sLLms2zV6AFR1b8BzyeYERvYFGCv6OGQZsAPEhw3vdRHohdU0uhavf21LPrDx8qOai8xV77N/7EJ5sPK7gReHj0gqnobMDnBjNjAmjV5R/RwSDOoOTc6JcHx0ytdFb2gkkbPGsB9CT54rOzHbv5TGts+jDF6PqzsDmDl6AFR1dvd/Kf95f+d0cMhzaQFgOsTHEe90sbRCypp5K0J3J/gA8fqr2Vx859z8/+HBPNhZc2bS5aNHhBVNb8uu/nPV3Mrxlujh0Mahh+yfD3g8HRE9GJKGlmvAB5I8GFjZYe3r5VTLnMBJyeYDyu7EVgmekBU9X6f2J2yScAu0cMhDZO3tA+xjD6uut6E9qoKST1ofeDRBB80Vvad6OFQ1bzAGQnmw8qayz9fFj0gqmoeKuVJeb6a1y++KXo4pGH2rQTHVi/0/uiFlDT8NnDzn7aDo4dDg27+z0owH1Z/aNES0QOiKjf/OZsIbB89HNIIaF6V/PcEx1jXuyh6ISUNrw3bd31Gf7hY2UHRw6Gq5r24ZyeYDyu7Alg8ekBU9Sk3/yl7BtguejikEX6l9fgEx1rXWzd6ISUNj819SEravhw9HKpaCLgwwXxY2eXAYtEDoqpxCebD6vf2bh09HNIoeE+C463r/SB6ESXNuq3aP/7RHyhW9h/Rw6FBN/8XJZgPK7sUWDR6QFT1xQTzYWXNl/9bRA+HNIqOS3DcdbkHgdmjF1HSzHPzn7cvRA+HqhYGLk4wH1Z2PrBg9ICoyl/+c/YksGn0cEijrLlC7KEEx1+X2zZ6ESXNnO3bB/5Ef4jYwJp7Yz8RPRyqWqT9hTl6Rqzsb76eKK0DEsyHlT0BvCZ6OKQg70xwDHa5H0UvoKQZt0P7qp/oDxArN/8fjx4OVS0JXJ1gRqzsXGD+6AFR1dcTzIeVPQ5sHD0cUrCTEhyLXe2R9s0Kkjqieb+vm/+cm/+PRg+HqpYCrk0wI1Z2OjBP9ICoMBvw/QTzYWUP+xRv6X+t4FsBZqnXRy+gpKHZCXguwYeGDWwq8N7o4VDV0sB1CWbEyk4D5o4eEFU3/z9IMB9W1tz3vE70gEiJfCbBcdnVfhy9eJKmbzfg+QQfGDawKcC7o4dDVcsDNyeYESv7o5v/tJv/HyaYD6s/ufuV0QMiJTMWuCnB8dnVW4nGRi+gpMHtAUxO8GFh5eZ/z+jh0KCXBt6aYEas7BRgrugBUXXzf1iC+bCyB4BXRA+IlNTOCY7RrrZD9OJJqtur3WhGf0jYwJqrMXaPHg5VrQjclmBGrOx4YM7oAVGheSf0zxPMh5XdBawaPSBScqcnOFa72I+iF05S6X3t/eXRHxA2sEnArtHDoaqVgNsTzIiV/canDqfd/B+bYD6s7A5g5egBkTpgbX8sY2a6M3rhJA30QTf/aTf/u0QPh6pWB+5NMCNW9is3/2k3/79IMB9W5uZfmjHHJDhuu9ia0Qsn6QUfdvOfsufae82UzxrAfQlmxMp+AoyJHhAVmlsxTkwwH1bWPLx0uegBkTp4BeCkBMdv1/pk9MJJgr3bd8pHfyDYwJ7xnalprQXcn2BGrOxIN/8pNU9+/n2C+bCyG4FlowdE6qgfJziGu9bp0Ysm9btPJ/ggsPrm/3XRw6GqdYGHE8yI1R8u1DxZXvk2/yclmA8ruwFYJnpApI6/Aei5BMdyl3oWmDd64aR+9fkEHwJWNgHYKno4VLU+8EiCGbGy/3bzn9I8wJ8TzIeVXQ0sGT0gUg84IsHx3LXeFL1oUj8al+Dgt/rmf5vo4VDVBsCjCWbEyr4dPRyqan7hOTPBfFjZlcDi0QMi9dADgX2OFjPUodGLJvWbAxMc+Fb2BPCa6OFQ1UbAYwlmxMq+FT0cqpof+GuC+bCyS4FFowdE6jHe5sQMdVP0gkn9xM1/3s3/q6OHQ1WbA08lmBErOyh6OFQ1H3BOgvmwssvc/EsjYqsEx3fXWjp60aR+8I0EB7uVPQ5sHD0cqtoSGJ9gRqzsK9HDoaqFgAsTzIeVXQAsGD0gUg+7KMFx3qV2iV4wqZc1D8Y6JMGBbmXN0+RfFT0gGvTb/AkJZsTKvhQ9HKpaGPh7gvmwsvOABaIHROpx705wrHepb0cvmNTLm/9DExzkVvYQsE70gKhqe2BighmxgU0DPhk9HKpaBLgkwYxY2bntMxkkjfxbTx5PcMx3pQujF0zq1c3/YQkOcCt7EFg7ekBUtUP7jtroGbFy879f9HBo0M3/pQlmxMqaBzG6+ZdGj+fdDLnngLmjF0zqJWOAoxIc3Fb2APCK6AFR1ZvbP0jRM2Ll5v8j0cOhquY98tckmBErO639RVLdfJBm8+rZPYAvAIcDvwRObF+teQpwfPv++eZhqB9oXyH8suj/4vrf2zqjj/0utXn0gkm9YnbgFwkOaiu7C1glekBU9VZgUoIZsYFNbU9ulU+z2bg+wYxYWbNBnCt6QDRkza+gOwPfbZ+jMXkW1v7O9hzwQ8Dy0f/D+tRlCT4DutLnohdL6gVu/vPW/FF+efSAqKr5leX5BDNiA5vSPlRJ+TSvb/pHghmxslPd/HfmfO1NwDEj+KrZae0DID8KLBH9P7iPfDLB50BXOil6saRe+GNybIKD2cruAFaOHhBVvW0Wf22xkdv87xU9HKpqflW8JcGMWNkJwJzRA6LpXt7f/Dp/0yjPxqT2ywZvQRx5y7VXr0V/HnSh+6IXS+qyscDvEhzIVnZT+8dA+ezVbjSjZ8QGNrn9Ykb5rADcmmBGrOw4YI7oAdFLXub/eeCx4DmZ2j5LYLXof5Aed16Cz4SutHj0Ykld3fz/IcEBbGU3AstED4iq3uc39Cl7vn0eg/JZEbg9wYxY2a/d/KfW3N9/W4I5+dfP2h8AC0X/4/SofROscVfaJnqxpC5+o3xagoPXyq4FlooeEFV92M1/yppLVN8SPRyqan4tvCfBjFjZUe2bf5RPc9/9yQlmZHqXYG8X/Q/Vg5offzzPYEg1X5ZIGqJ5gTMSHLhWdpUP3EnLzX/ezX/zGkblswZwb4IZsbIfu/lP63Xt5vp/OtC09mqA5opSDZ9LE6xtFzoyeqGkLm3+z0pw0FrZld7PlNYn2hOd6BmxgU0E3hA9HKpas0ObmH6reQe8m/+cvtrRvzUXe+XisDowwZp2ob9HL5TUlSfInp3ggLWyy4HFogdEVZ9OMB9W9oyXn6a1FnB/ghmxssOB2aIHRNW3Mf0owXzMSre3X/xp1m2eYD270NN+mSm9tPmBcxIcrFbWXOq1aPSAqOoLCebD6n/0ffhPTusBjySYESv7bvRwaNAfZ/6UYD6Go0eBTaL/QXvA7Ane+tCVVoleLCmrhdvLZKIPUis7H1gwekBUNS7BfFh98//a6OFQ1YaetKbtoOjh0KCb/78kmI/h7Clgg+h/2B5wfIK17EK7RC+UlHXzf3GCA9TK/gYsED0gqjogwXxY2ZPAptHDoSo3/3lz859389+rV2Y+3D4EVDNvnwTr2IU+Fb1QUjaL+CTRtJ3b3pahfA5KMB9W9jjw6ujhUNVm7a9+0TNiZW7+c1oIuCjBfIz0MwG8vXHWbqeKXsMudGj0QkmZLAlcneDAtLLTgXmiB0RV30wwH1b2hJv/tLYAxieYESv7cvRwiH6/LfNUHzo5S88BeDLBGmbv5OiFkrJoXsVybYKD0spOA+aOHhAVmhOUQxLMh9V/+d8oekBUtaWb/7R9MXo4NOiVmZckmI/R7LPR/+gddkaC9cvetdGLJGWwDHBDggPSyk4C5ooeEFU3//+dYD6s7CHgldEDoqrt2lcxRs+IDax5h/x+0cOhqiWAqxLMyGj3PLBO9D9+R301wfplb0L0IknRlgduTnAwWtkpbv7Tbv4PSzAfVvagm/+03gBMTDAjVm7+940eDg16W+Y1CWYkqvO8FWCm7JRg7brQ4tELJUVZAbg1wUFoZc2rXOaMHhBV76/7WYL5sLIHgFdED4iq3gg8m2BGrNz8fzR6ODTobZnXJZiR6N4bvRAdtGKCdetCG0cvlBT1AXFbggPQyn4DzBE9IKpu/n+RYD6s7G5g1egBUdWOwHMJZsQGNhV4X/RwqGpZ4KYEM5Kh+30G0gybrX0IbvTaZW/36IWSRtuq7Qlz9MFnZT9vN5rKxc1/3u4CVokeEFXt1t7LGz0jNrApwF7Rw6FBb8u8JcGMZMqrVGbc+QnWLXufjl4kaTStDtyb4MCzsp8CY6IHRIXmVozfJpgPK7sTWDl6QFS1h5v/tJv/PaOHQ1Xellmv+cFqbPTidMzhCdYte/8ZvUjSaFmrvZwq+qCzsh+5+U+pOen4fYL5sLLm4aXLRQ+Iqt7VbjSjZ8QG1nwh42WvOa3SXs0UPSNZ+/foBeqYfROsWfaOjF4kaTS4+c+bm/+8m/8/JJgPK7uxvU9W+bwDmJxgRqzc/L81ejhUtRpwT4IZydyfohepY96cYM2y97voRZJG2rrAwwkONitr3iXva27yaV6/eHKC+bCyG4BlogdEVe9vHy4XPSM2sEnALtHDoao1vC1zSDVfKi4dvVgd8qoEa5a9c6MXSRpJ6wOPJDjQrOw70cOhqnmBMxPMh5Vd074bW/l80M1/2s1/82ug8lkbeDDBjHSl5rJ2Dc0CCdYre/+IXiRppGwAPJrgILOyb0UPhwbd/J+VYD6s7Epg8egBUdVH2nfKR8+IDWwisH30cGjQ2zIfSDAjXaq5Kk9D5/k/L1nz5ZvUczYFnkxwgFnZAdHDoar5gLMTzIeVXQEsFj0gqvqUm/+UPQ1sGz0cqlrPKzNnquac1tckD93lCdYs+3NRZoteJGk4bQ48leDgsrKvRg+HqhYELkgwH1b2d2Dh6AFR1WcSzIeVufnPayPg8QQz0tU2jl7ADjk9wXplb6HoRZKGy9bAhAQHlZWNix4OVTV/AC5KMB9WdkH75Yzy+VKC+bCyp9ofAZTPhsBjCWaky30oehE75FcJ1it7K0QvkjQctnLzn7YvRA+Hqppfli9OMB9Wdl77ICPlMy7BfFj9EulNoodDVZt5Zeaw9N3oheyQHyZYr+ytGr1I0qzavn3gT/TBZANr7o3dL3o4VLUIcGmCGbGyv7n5T+trCebDyp4AXhM9HKraAhifYEZ6oVOiF7ND9k+wXtlbO3qRpFnxJuDZBAeSlZv/vaOHQ1VLtq+Ui54RKzujfRuD8jk4wXxY2aPtW3+Uz2vbZzJEz0iv5Kvbhu7jCdYrextEL5I0s3Z08592879P9HCoaing2gQzYmWnAfNED4gKzZOSv59gPqzsYeBV0QOiKp/JNPzdE72oHfLBBOuVvU2iF0maGTsBzyU4gGxgU4D3RA+HqpYGrkswI1b2J2Du6AFRdfP/gwTzYWUPAetED4iqdvC2zBGpeY6ChmavBOuVva2iF0maUbu377CMPnis3Pw3H7rKZzng5gQzYmW/B8ZGD4iqm///SjAfVvag96+m5Y8zI9dU390+ZG9LsF7Ze330IkkzelBPTnDgWLn5f1f0cKiqedXLrQlmxMpOAOaMHhAVmpPs/04wH1b2APCK6AHRoLdluvkfuZpzXw3NrgnWK3s7Ri+SNFTvbjea0QeNDay5GmO36OFQ1YrAbQlmxMqOA+aIiIu+6gAAIABJREFUHhAVZgd+nmA+rOwuYJXoAVFVcw7glZkj22PRi9yxB4RHr1f23hq9SNJQvL+9/Cn6gLGBTWq/aVU+KwG3J5gRK/u1m/+0m/9jEsyHlbn5z2sPr8wcle6MXugO2THBemXvrdGLJA3laZ5u/nNu/t8SPRyqWgO4N8GMWNnPgDHRA6Lq5v+XCebDyu4AVo4eEFXt6ZWZo9YV0YvdId4CwHTzFgCl9uH2tXLRB4oNrLnPb+fo4dCgm//7EsyIlf3YzX9KzXMYTkwwH1Z2c/sQU+XzDjf/o37bmIbm7QnWK3uvj14kaTB7u/lP2TN+cKS1FnB/ghmxsiPc/Kc0tn0TQ/R8WNmNwLLRA6KqD3hl5qj3tehF7xBfA8h08zWASukzCQ4Oq2/+Xxc9HKpaF3g4wYxYWfMueV/flHPzf1KC+bCyG4BlogdEVfv440xIvmlpxm4djl6v7G0SvUjSv/pCggPDysYDW0YPh6rWBx5JMCNW9t3o4VDVPMCfE8yHlV0NLBE9IKr6iJv/sFaNXvwO2TfBemVvg+hFkl5sXIKDwsqeBDaNHg5VNR/ijyaYESs7OHo4VDUvcGaC+bCyK4HFowdEVZ9KMB/92t3Ri98xX0uwZtlbO3qRpP9zQIIDwuqbfy8Vymmj9t3A0TNiZQdFD4eq5gP+kmA+rOxyYLHoAVHVZxPMRz93dPQAdMxhCdYse6tGL5LU+FaCg8HKms3lhtHDoaot2tsyomfEyr4SPRyqWgA4L8F8WNnfgYWjB0RVX0owH/1e81R7Dd1vEqxZ9laIXiT1t+bBWN9LcCBY2ePtL8zKp3kWg5v/nH05ejhUtRBwYYL5sLILgAWjB0RV3pYZ31PtbUsaurMSrFv2FoxeJPX35v/QBAeBlT0ErBM9IKpqXt0yIcGMWNkXo4dDVYsAlySYDys7F5g/ekBU5X3UOToqehA66MoE65a5530zkaI0g/fDBAeBlT0IvDJ6QFT1BmBighmxgTVPxd4vejhU5eY/b27+8/p2gvmwF9o6ehg66IkE65a5B6IXSP27+fcBHXk/FHwyaE5vBJ5NMCNWbv4/Hj0cqmpeJXdVghmxsr+6+U97fvb9BPNh/3w2hmb8dq/odcveddGLpP4zO/CzBMNv9dfMrBY9IKra0c1/2s3/R6OHQ1VLAtckmBErOw2YJ3pAVN38/yDBfNg/a/72a8asl2DduvAFrDSqm/+fJxh8K7sLWCV6QFT11vZ+regZsYFNBd4XPRyqWgq4NsGMWNmfgLmjB0SFMcARCebD/tll3qc9U3ZNsHbZOzF6kdQ/5vC1HGm7HVgxekBUtbub/5RNAd4dPRyqWha4KcGMWNnvgbHRA6Lq5v+oBPNhA68u2yx6MDrqkwnWL3s/jl4k9Yc5gd8mGHgruwNYOXpAVPU2YHKCGbFy879n9HCoannglgQzYmUntOcCyndl5tEJ5sMG5gZt5v0kwfpl75vRi6Te13zb/4cEw25lN7a/limfd7cbzegZsYE9316VoXxWaq9mip4RK/t1exWgcmnW5FcJ5sMG9jCwePRwdNhFCdYwe5+OXiT1/ub/pASDbmU3AMtED4iq3t/eXx49IzawSe3zGJRPcwuTm/+cufnP+8v/LxPMhw1savu6X8387SwTEqxj9naPXij1rrmAUxIMuZVdD7wsekBU9UE3/2k3/7tED4eqmjeX3JNgRqzs2HajqXw/zpyYYD6s7IDo4ei4VRKsYRfaOHqh1JvmBc5MMOBWdqWXlqX1sfbBP9EzYgNrXr/4xujhUNUawL0JZsTq9zA3v8Yp348zJyeYD6u/IcMvzGbNLgnWsQstHr1Q6s3N/18SDLeVXQEsFj0gqtrbzX/KJgKvjx4OVa0J3JdgRqyseZ2cm/+cm39vy8zZ34H5owekB3wjwVpm7+noRVLvmQ84O8FwW/19sotGD4iqPpNgPqzsGWC76OFQ1VrA/QlmxMoO993lKc0DnJFgPqzsWs/Phs05CdazC/MmDZuFgAsTDLaVXQosEj0gqvpCgvmwsuYhQltFD4eq1gMeSTAjVvbd6OHQoD/OeGVmzq4DlooekB4xZ/vFffSaZu+U6IVS71i4vXwpeqit7HxgwegBUdW4BPNh9cvjtokeDlWtDzyaYEas7ODo4VCVm/+8/QNYOnpAesjGCda0Cx0avVDqnc3/xQkG2sr+BiwQPSCqOiDBfFjZk8Am0cOhqg2BxxLMiJUdFD0cGnTz7yXROfOBzMPvEwnWtQt9Knqh1H2Ltx9i0cNsZWe1D2RUPgcmmA8rewJ4TfRwqGoz4KkEM2JlX4keDg16W+ZFCebDyi73gcwj4g8J1rYL7RK9UOq2JYFrEgyylf25feCP8vlmgvmwssd9L25aWwDjE8yIlX05ejhU5W2ZefOBzCN3/79fEjOkXh69WOqupdqnSEYPsdXfIzt39ICo0DwV+5AE82FlDwOvih4QVW3p5j9tX4weDlU1D/y9JMF8WJnPZBo5r02wvl15xtGY6MVSNy3dPrgkeoit7FQ3/2k3/z9MMB9W9hCwTvSAqGrr9m0M0TNiA5vW3murfJYArk4wI1Z2ns9kGlHfSrDGXeii6IVSNy0P3JJggK3+Wo+5ogdE1c3/YQnmw8oeBNaOHhBVvQGYmGBGrNz8fzx6OFTlbZl5OxeYP3pAepxffDGkjoxeKHXPisBtCYbXyn4DzBE9ICrMDvwswXxY2QPAK6IHRFU7Ac8lmBEb2FTgQ9HDoUFvy7wuwYxY2ek+k2lU9ifTEqx1F9o3erHULW7+8+bmP+/m/+cJ5sPK7gJWjR4QVe3o5j/t5v+90cOhKm/LzNtpbv5HxecSrHVX2jp6sdQdKwF3JBhaK/uVm/+0m/9fJJgPK7vTJ+CmtRvwfIIZsYFNAd4dPRyq8rbMvP3RZzKNmssSrHdXWix6sdQNqwP3JhhYK/uJT/JM+yqa3yaYDytrvshcOXpAVLWHm/+0m/89o4dDVSsAtyaYESvzmUyjp/lC38v/GVLNfk6arjWB+xIMrNUf4uHmP5+xwO8SzIeV3QQsFz0gqno7MDnBjFi5+X9n9HBo0Cszb08wI1Z2fPtDgEbH5xOseVc6KXqxlN867euxoofVyn7YPlle+Tb/f0gwH1Z2I7BM9ICo6j3tRjN6Rmxgk4Bdo4dDVasB9ySYESvzmUyj79oE696VxkUvlnJbD3gkwaBa2ffc/KfUXOp3coL5sLIbgJdFD4iqPtA+XC56Rqzc/O8SPRyqWsPbMtPmM5lG36YJ1r1LbR69YMprfeDRBENqZd+OHg5VzQuckWA+rOwqYInoAVFV8zo5N//5at7A8Obo4VCVt2Xm7afelhnipwnWvkuf7XNHL5hy2hB4LMGQWtlB0cOhQTf/ZyWYDyu7Elg8ekBU9REf2pSyicDro4dDVWsBDySYESvzmUwx5gfGJ1j/rnRB9IIp72U0TyYYUCvbP3o4VDUfcHaC+bCyy33VTVqfcvOfsqeBbaOHQ1Xelpm3H7n5D72KLHr9u9S3oxdM+Wzht2hp+0r0cKhqIeDCBPNhZc37gBeNHhBVfTbBfFiZm/+8NvC2zLT9t89kCnVVghnoUm+JXjDlsqWb/7R9MXo4NOjm/6IE82Fl5wMLRg+IqsYlmA+rb/63iR4OVXlbZt6+Ez0cfW6HBDPQpaYBS0YvmvLYDngmwWBaeaB+Mno4VLUw/D/27gNYk7JM+/gfmCHnOJJzBsmgIBlEFFQEVkBAXUAxwRoWV0GQNYCoLKyKgqCLICuIiChRRZKiIggSRJCcwxCGOMDsV730Lt/Zpwd6zpxz7rv7/f+qrqqtUqt2znO9b/f9dvfT/D5BR0yZS4G5oguiRp9P0A9Tpnrsb6PocqjRG4EnEnTElDkyuhxy42WmLTdHL5jyeHO94U90KU05/H8suhxqNB/wxwQdMWUuqTcEUj6HJ+iHKfMYsGF0OdTIxzLzxg2Z463pPjJMa46NXjTl8Nb6dRDRhTRDM6XeHVv5VLdOXZugI6bMBcBs0QVRo68k6Icp80j9yl/lsykwKUFHTJlDo8uh//aDBF3oWraPXjTFc/jPO/x/KLocarQI8JcEHTFlzvO9tilVG2MdnaAfpsxD9RU05bOZw3/aHBxdDv23FYAXEvShS3m2fmW1BtjOwOQEZTRD8yLw3uhyqNEE4PoEHTFlfuHwn3b4PyZBP0yZB4E1oguiqW5q5mOZOfOZ6HLof/0wQR+6eJekBtiuDv9ph/+9osuhRksAf0vQEVPmHGCW6IKocfj/RoJ+mDIPAKtFF0SN3lJfpYvuiCnvzDwguhz6X9X310sJetG1/FP0winOu71lJu3w/57ocqjRksCtCTpiypwOjI8uiBqH/28l6Icpcz+wanRB1MjHMvMO/x+NLoeG+HGCXnQxq0QvnGK8tx40owtohqa6G+Nd0eVQo6WAvyfoiCnzn8C46IKoMBPwHwn6YcrcCSwXXRA18rHMnHFPpnzWc+d/hpM7ohdOMfbxdpmUeR7YMbocarQ0cFuCjpgy1bN/Dv/5VGtyaoJ+mDK3A8tEF0RTfSzTOzPzxT2Zct5ddnmCbnQx345ePI29fR3+U8bhP68VgXsSdMSUORGYMbogarzyf0qCfpgyDv95+VhmzrgnU057JOhGV/Pm6MXT2KreJe+tMvlSPee3Q3Q51Ghl4N4EHTFljnf4T6nah+HMBP0wZarNSxePLoga7e5jmSnjnkw5zVY/xhTdjy5mIjBz9AJq7Hzc4T9lnga2ii6HGlUbpNyXoCOm+fY1h/98qjcwnJ2gH6bMTcCi0QVRIx/LzBn3ZMrr8wn60dWcEL14GjufTFA40zz8bxldDjVaC3g4QUdMmW/Vz/4pl+qKgsN/zjj857Wfw3/axzLfGV0OTfWxTF+POfxsHb2AGhsHJSibKfMUsEV0OdRobeCRBB0xZb4aXQ5N9cr/OQn6YcrcCEyILoga+Vhm3uH/7dHlUKPqzr9LE3Skq3nYTZMHg8N/zjwOvCG6HGq0LvBogo6YMkdGl0ONZgcuStAPU+YaYMHogqjRJxL0w5RxT6bcPpSgI13OcdELqNHn8zE58xiwYXQ5NNX3yU5M0BFT5ojocqjRHMCvEvTDlPkTsEB0QdToUwn6YZofy9wmuhyaqkXrc+jonnQ5W0YvokbXVxKUzJSpriyvE10ONdoYeCJBR0yZQ6PLoUZzAZcl6IcpcyUwb3RB1Mg7M3PGDZlzq/b9OS9BT7qcB+pX9KqnH5CjE5TMND938/rogqjRm4AnE3TElDk4uhxqNA/wuwT9MGUuB+aOLogaHZagH6aMezLld0CCnnQ9x0QvokZv+D8mQcFMmQeBNaILokabAZMSdMSU+ZfocqjRvPUV5uh+mDKX1XdmKJ/DE/TDlHFPpvxWd9f/EcnroxdSozP8fyNBuUzzLTfVl5fyeTPwTIKOmKGZUv/ar3zmA/6QoCOmzCXAnNEFUaMvJuiHaR7+N4ouh17VrMB1CbrS9VwZvZAanVdifDdBuUyZe4CVoguiRm/xF+W0w/9HosuhRgsBf07QEVPmwvptDMrFxzLzptpMboPogug1HZ+gK33IPtELqZFVbebw/QTFMmXuApaPLogavdXhP+3wX73iR/ks7FWYtKk2xpotuiBqHP6PTdAPU2Zi/dYf5bZXgq70IZN8NKx/w//JCYplytwJLBddEDV6W/2e3+iOmKF5EXhvdDnUaBHgLwk6YsqcW98iq1x8LDP3nkxrRhdEr6l6XbbnaiOT46MXUyM7/J+SoFSmzB3AMtEFUaNdgMkJOmLK4b/6pV/5TABuSNARU+bnwCzRBVHjY5knJeiHKeOeTN350fnuBH3pSzaIXlCNjJmBMxMUypT5G7BEdEHU6B+AFxJ0xJTD/3uiy6FG1XfZLQk6YsqcDoyPLogKPpaZN/cDq0UXRK1mnEsS9KUvuTZ6QTUyql/7z05QKFPmr8Ci0QVRo90c/lOmuhvjXdHlUKOlgdsSdMSU+SEwLrogKvhYZt64J1M3VI/O+Bka2ewfvagamV/FHP5z5iaH/7Sq58pfStARMzTPA2+PLocaLeXwnzanOfynNL6+KyO6H6b5scxlowuiVr6UoC99yqPAHNGLqum/8n9OgjKZMjcCr4suiBrt6pX/lHH4z2sFn71Mm1Prq8zKxccy88bhvzv2TdCXvuXz0Yuq6VO92/eXCYpkylwDLBhdEDXa2eE/ZapdfXeILocarQzcm6AjpnkX52pzOeUb/s9K0A9T5vb6USblt2O9H1B0Z/qUZ+vNFNVR1a0bv0pQJFPmamCB6IKo0U7u9p8yTwPbRJdDjRz+8+Y7Dv8puSdT3twMLBZdELWyTT2sRnemj8cNdfjK/6UJSmTKXAnMG10QNXqL745NO/xvFV0ONVqzfjd2dEdMmWPqjbGUy2zAhQn6Ycq4J1N3bAk8k6AzfcuU+kd9dXRDmXMTlMiUuQKYO7ogavRmh/+UeQrYIrocarQW8HCCjpgyX40uh6Z6ceaiBP0wZdyTqTveCExK0Jk+5uzoxdXwVJv8uJtszlR3ZMwVXRA12trbyFLmceAN0eVQo/XqXYKjO2LKfDm6HGo0p+8oTxv3ZOrW8P9kgs70NZtFL7CG5wsJymPK/NrXaaS1Rj1oRnfEDM1jwIbR5VCjDev1ie6IKXN4dDnUqDr+X5ygH6aMezJ1x6YO/6Oa30YvsIanekbWnTDz5Tf1L//KZ3FfW5Yy1XC5QXQ5NNWrL08k6Igpc2h0OdRoHuB3CfphylwFzB9dELUe/r3tf3SzdfQia9pVO5b6LGa+nFdv+KOcJ2XXJeiIGZqJ9e3lyudNXn1Jm09Hl0ON5q03/o3uhynzR2C+6IKo9W7/TyfoTN8vVqqDfJdsvlQbMc4aXQxN9f3Lv0zQETM0D9aPZCgfr77kzWeiy6FG1XD5hwT9MGUud0PmztjO3f7HJJtFL7SG9+GILo4Zmp/X7/lVPtVrsX6QoCNmaB4AVo8uhxpVJwYO/zlf13RgdDnUaCHg2gQdMWXckLlbr2Z2g+bRzwXRC61pV91efnuC8phXckb9Kkbl9PUEHTFDcz+wanQxNNUfmD0Byzn8fyi6HGq0sI+XpY17MnXHO4DnE3RmELJh9GJr2n00QXHMK/mRw39qH0zQETM0dwHLRxdDjbz6knf4/3B0OdSoeo/8TQk6Ysqc755MnbEzMDlBZwYhP4tebE27atC8I0F5zMs5DRgXXQpNVfU+eX9NzpU7geWii6FGbwWeS9ARMzQvAe+LLocaTQBuSNARU8Y9mbpjV+CFBJ0ZlB+T149ecE279ycoj3k53wNmii6EXvXE7J4EPTGvpPrxctnoYqiRV19ypnrN757R5VCjJYBbEnTElHFPpu54j68zH9OcEr3gGp6rEpTHwAnAjNFl0KveKXNZgp6YV1LtW7J0dDHUyKsvOePwn9eSwK0JOmLKuCdTd+zu8D+mebr+7lLHrJKgPAa+4/Cf3vEJemJeyc3AYtGlUKN3O/ynTHVSvEd0OdSo+iHztgQdMWXck6k79qkfb4ruzCDl4OhF1/B8OUF5Bj3H1a+UU15u+pcr1eZYi0aXQo28+pIz1b4lO0WXQ41WAO5O0BFTxj2ZumM/h/+QzZdnj154DY/PmsXmaw7/ndj0z03M8uTGeods5bOvJ2ApU31/7RBdDjVayX1l0uZUh//O+Fi9EV10ZwYtu0QvvIa/2Ux0eQY5X4kugF7T/F6ZSZVrgAWjS6FGXn3JO/zvGF0ONVoNeCBBR0wZ92Tqjo8n6MsgptoTywuYHbV3ggINao6IXny18qMEXTEv52pggehCaKqPyHj1JV+eAbaJLoemuv/S/Qk6YspU+/04/HfDpxL0ZRBT/di/bvTia/hOTFCiQcznohdera9oRnfFvJyr6rsxlI9XX3LmKWDL6HKo0VrAwwk6Ysq4J1N3HJygL4P8OVGH/T5BiQYth0QvulpZHpiUoC8GrgDmji6EGnn1JWcc/vNaB3gkQUdMGfdk6o6DEvRlUHMfMF90ATR9HktQpEHKZ6MXXK3MUt9uHt0X8/IzZnNFF0KNPAHLO/xvHl0ONapumX00QUdMmaOiy6HWDk/Ql0HOO6MLoOmzSIISDUqqZ2MPjF5wtfa1BJ0xcKnDf1oO/znzOLBRdDnUaGPgiQQdMWXck6k7vpCgL4Ocal8sddzaCYo0KMN/9XoSdcO2bmaWIr8B5owugxp59SVnqjv6NowuhxptAjyZoCOmjMN/N1SPZhydoC+DnEfri8fquE0TlKnvqQbJD0cvtFqbt362Kbo3g57zgNmiy6BGXn3JmYnA+tHlUKMt68cyojtiynwmuhxqPfwfk6Avg57qzXHqgbcmKFPfh//9oxdZ08S3YsTnXGDW6CKo4NWXvHkIWDO6IGpU7cXg8J8z7snUnWPPNxL0ZdDzKzfI7I+dExSqr3kR2Ct6gTVNtvDW//D8vN6AUbl4ApY3DwCrRRdEjbYDnk3QETM07snUHTN6YSZFqh8xl4kug0bO2xKUqq/D/57Ri6tpMjtwa4LuDHLOAMZHF0EFh/+8cfjPa3uH/5RxT6bumAn4foLOGNgvugwaWZslKFUfh/89ohdW08xd/+N3lXX4zzn8fytBP0yZ+4FVowuiqV5ceS5BR8zQuCdTd1TD/8kJOmPgJ9Fl0Oi8jza6WH3KZGCn6EXVNNug/uEmuj+DmtOAcdElUMGrL3lzF7B8dEE01UcrJyfoiBka92Tq1rHnlASdMXAPsEB0ITTyFktQrr6k+rV/x+gF1TSrBs9rEvRnUHOqw39K4+q1ie6HKXM7sHR0QdRoV+CFBB0xQ1P9wO/u5d0wc33FObozBl6q7xRXT2/vnJSgZF3P8w7/nfXZBP0Z1JxQb/CjXLz6knv4dyOmnKp9f7yTLF+qH2R2jy6HWg//ZyXojHk51St/1WNXJyhZl/MMsG30ImpYFvf1TGE53uE/pWofhjMT9MOU+Vv9naV83l9fLYvuiBka92TqjurtP2cn6Ix5OX9wX6b+80rP8FMNj1tGL6CG7YcJOjSIOc53yabkCVje3AQsGl0QNdrH4T9l3JOpO2YDLkjQGfNyngCWjS6FRt8HEpSti6kenfDZmO56Q70pUHSPBi3V2xYc/vOZFfhFgn6YMtcDi0QXRI2qV2M5/Od8LPMd0eVQK3MAv0rQGfNyqvPid0WXQmNjxQSF6+KV/82jF07DNmN9e1N0jwYtR0UvvBp59SVvbgQmRBdEjT7oj8gp455M3eHwny9fjC6FxtY9CUrXlTwObBS9YJou/5igR4OWI6IXXY1m9wQsbar9eXz9Uk6fSNAP0/w2prdFl0OtzA1cnqAz5pWcX28CrAHy7wmK14U8BmwYvViaLnMB9yXo0iDF4T8nr77kzZ8c/tP6VIJ+mDJPA1tHl0OtzAP8LkFnzNA3zCwYXQyNvQ0SlC97JgLrRy+UptuRCbo0SDkkesE11eH/4gT9MGWuAuaPLogaHZSgH6aMGzJ3x7zAlQk6Y4a+zWyd6GIozk0JSpg1DwFrRi+QptsS9S2C0X0alFRXypTz6stvE/TDlLm8vjVW+RyeoB+mecfyTaLLoVbmc/+ldKn2MfmH6GIo1scTFDFjHgBWj14cjYjvJOjToBxQDoxebDXyBCxvLgHmjC6IGjn8592TqXqjj/JbCLg2QWfM0HwluhjKcUvoQwnKmG34Xy16YTQilq53B47u1CAM/x+LXmw1cvjPG4f/vL6YoB+mjHsydcfCwHUJOmOG5mdu+qf/cUiCQmbJ/cCq0QuiEfP9BJ0ahOH/w9ELralefflzgo6YMhfXP8ArlxmAoxP0w5RxT6buWAS4PkFnzND8vn4LkPS/m3N4FwDcCSwXvRgaMSsALyToVd+H//2jF1pTPQH7S4KOmDLnArNGF0SNw/+xCfphylTnqK+PLohaWQy4OUFnzNBUa+JbZlR4b4JyRsbhv39OS9CrPudFYO/oRVYjh/+8+YXDf9rh/xsJ+mHKPAisEV0QtVJtunxLgs6Y8ge06qKY1Hjw+3WCkka9B3OZ6AXQiKr2cHgpQbf6PPzvGb3IajQBuCFBR0yZc4BZoguiwozASQn6Ycq4J1N3LAncmqAzZmieBjaKLodyW6V+r+p/DVD+Biwe/YfXiPtxgm71NZOBXaMXWFM9AfPqS86cDoyPLogK1WZYJyfohylzD7BidEHUynL1nbTRnTFDUz0Gu310OdQNeyUo7FjlJmDR6D+4RtxKXv0f1eF/p+gF1lTfeHFbgo6YMj8ExkUXRIVx9dpE98OU8bHM7qh+pLk7QWdMuUfT+6PLoW45MUFxRzsO//11fIJ+9fW2/92iF1eNHP7zptqLxOE/55X/UxL0w5Rx+O/WBZd7EnTGDI1vZ9KwzFa/n/i/eppr69djqX+qdX0mQcf6OPzvEb24alRt7OPVl5w5qX6+XLnMDJyZoB+mjHsydcdq9R4N0Z0xZf4puhzqrrmBqxKUeKRzDbBg9B9Xo+awBB3rW6rHKdzwLyevvuTNCQ7/aYf/sxL0w5RxT6Zu7Rl2f4LOmDKfiS6Hum/h+lb5/+pJ/gDMF/1H1ajeufJQgp71LftGL6ymevXFE7Cc+Wb9Zh3lUr1+8dwE/TBlfCyzO9YGHknQGVPmkOhyqD/mBy5NUOrpzQX1XQ3qrw8m6FnfUt1RoXy8+pI3xzn8p/2B+MIE/TBlHP67Yx2H/7Q5Kroc6ueBs8vPy33bTZh6rzrhvjFB1/qUaoMsB5mcV18eTtAPU+ar0eVQo9mBixL0w5SpjtsToguiVjYEHkvQGVPmyOhyqL+qZxkPrd8p+V8dybPugjkwdkjQtz7lfN9ZntJ6wKMJ+mHKfDm6HGo0Z883Ne5yrgYWiC6IWtkYeCJBZ0yZI6LLocGwAXBrgsK/Vm4AXh/9x9KY8bnOkctfgLmiF1SFdR3NmlTaAAAgAElEQVT+08YTsJyqx/4uT9APU+aP7snUGZsATybojCnjsUdjap56k6MXkl71/2K92Y8Gw+L1a+qiu9eHTASWj15QFd7o1Ze0cdOlvOcpv0vQD1Pmqnp/KeW3JfBUgs6YMp+LLocG18rJrryeAywb/UfRmPPVfyP3ur/toxdTBa++5I3Df07zAlcm6Icpc4UbMnfG5g7/aeOxRylsXT8zPCVoaPlxvTmJBnNvijsSfBn3If8SvZgqbOEJWNp8IrocajRf/crf6H6YMpf5eFlnvKW+oza6M6bMJ6PLIf1fawLHj9FzqtUrsP7N25UH3vYJvoz7kLPc8T+dbYCnE3TDDE31Q/cB0eVQo4WAaxN0xJT5FTBHdEHUelPl5xJ0xpTHngOjyyG9mpmBtwH/AdwzguX/O/Cd+pmkmaL/kUrhrARfyl1P9Rl1J+ZctvPqS9oTsA9Fl0ONFgauS9ARU+Zih//OeCfwfILOmPLY41vN1DnVc/l7A8fWewbcAkx+laJXXz43AT8DvgbsBiwW/Y9QOhNeo0em3SM0W0UvpIaofjz16kvOz8p+0eVQo0WA6xN0xJQ5D5gtuiBqZRfPqdIeez4QXQ5ppN/Pu0j9A8Gy9e17/kqstj6d4Iu56/Hd5bm8w6svaU/A3hddDk31LTA3J+iIKVNdxJkluiBqZbekb/Ya9FTHnvdHl0OSMvGKz/S/h3l89CLqf+3s1ZeUebG+g035LAncmqAjpsxP6sdBld+7Hf5TxmOPJP0fqyf4cu5ynq//hsphV0/A0p6A7RldDjVaqt4XKLojpswZ/rjcGe+vrzJHd8YMjcceSWrw+QRf0F3OodELqP/l1Ze8J2B7RJdDjZYGbkvQEVPmR8C46IKolX0c/lPGY48kTcWNCb6ku5pqg02fy8xh9/pgH90JU94hs1N0OdRoReDuBB0xZU5z+O+MakNTh/988dgjSVPx+gRf0l1NdcB/Y/QC6r959SXvCVi1GaPyWQm4N0FHTJkTgRmjC6JWPli/Vi66M2ZoPPZI0qv4QoIv6q7mW9GLp//m1ZecqV6/uGN0OdRoNeCBBB0xZb7j8N8Zn0jQF1PGY48kvYa/Jfiy7mImAgtGL568+pI0zwDbRJdDjVYF7k/QEVPG4b87PpWgL6aMxx5Jeg3rJPiy7mo+Fr144uMJemDKPA1sHV0ONVoLeDhBR0yZ44AZoguiVg5K0BdTxmOPJLXg7v/DS7Vpoq9liuXVl5x5CtgyuhxqtF5951J0R0yZo6LLodYOS9AXU8ZjjyS19PsEX9pdzFuiF27AefUl7wnY5tHlUKONgMcTdMSU+XJ0OdTa4Qn6Ysp47JGklqrn1904bdpzefTCDTiH/5x5vB4ylc/GwBMJOmLKHBFdDrX2xQR9MWU89kjSNNgjwRd3F+OvzHG8+pIzjwEbRpdDjTYBnkzQEVPm0OhyqJVqX4ajE/TFlPHYI0nT6AcJvry7lgujF22A+brKnKmeKV8/uhxqtCkwKUFHTJlDosuh1sP/sQn6Ysp47JGkaVS9ZujBBF/gXYu3mY09r77kzUPAmtEFUaNt69dhRXfElPlMdDnU+tjzjQR9MWU89kjSMHeDjv4C71rOi160AT0BOybB2psy1Q+Ia0QXRI2qTUqfTdARMzRTfH1spy6SnJSgM6aMxx5JGqZDEnyJdy1bRS/agPHqS948AKwWXRA12t7hP+3w/9HocqiVmYDvJ+iMKeOxR5Kmw2UJvsi7lD9HL9gAXn05McG6mzL3A6tGF0SN3gk8n6AjZmiqt+3sG10OtR7+T07QGVPGY48kTYdZgOcSfJl3KXtGL9oA8epL3twJLB9dEDXaGZicoCOmHP7fF10OtT72nJKgM6bMXR57JGn63wkd/WXepdwDzBy9aAPCqy95cwewbHRB1GhX4IUEHTFD8yKwd3Q51Ep1jD8zQWdM87FnueiCSFLXfSrBF3qX4uuaxoZXX/LmdmCZ6IKo0Z71oBndETM01Q8y744uh1oP/2cl6Iwp47FHkkbITxN8qXcl1Yn1ktELNgDGe/UlbW4GFo8uiBq9v77FPLojpjxu7B5dDrV+JPJnCTpjynjskaQR3Fn9wQRf7F3JOdELNgC8+pI3fwUWjS6IGu3j8J8yz9ebMSq/2YELE3TGlPHYI0kjaMUEX+xdyo7RCzYAw//ZCdbZlLkJeF10QdRoP4f/tMP/26PLodbD/y8TdMaU8dgjSSNs7wRf7l3JvcC46AXrsdmACxKssylzAzAhuiBqdED9TvnojpiheRbYLrocamUO4NcJOmPKeOyRpFFwQoIv+K7kqOjF6vnVl4sSrLEpcw2wYHRB1OgTCfphyjwNbBNdDrUyJ3Bxgs6YMh57JGmUXJ3gS74r2TB6sXp89eVXCdbXlPkTsEB0QdTo0wn6Yco8BWwRXQ61Mg/wuwSdMWU89kjSKKluZ38uwRd9V149U22YqJEf/r36kjNXAfNHF0SNDkrQD1PG4b875gV+n6AzpozHHkkaRasl+KLvSo6MXqwe8upL3lwOzB1dEDU6LEE/TJlJwObR5VAr8wF/SNAZU8ZjjySNsncn+LLvStaLXqweXn25MsG6mjKXAXNFF0SNvpygH6bMYz4i1hkLAdcm6Iwp47FHksbAlxJ84Xch93n7/4jy6kveXFJviqV8vpigH6Z5+N8guhxqZWHgugSdMWU89kjSGDknwZd+F/Ld6IXqEa++5M3F9Z4MyqX68fHoBP0wZSZ6d1hnLAJcn6AzpswF9WuAJUlj4M4EX/xdyC7RC9UTXn3Jm/M8AUs7/B+boB+mzIPAmtEFUSsT6vfJR3fGlPHYI0ljvAHblARf/tnzorvRjgivvuTNL4BZowuixuH/Gwn6Yco8AKweXRC1siRwS4LOmDIeeyRpjG2c4Mu/KzvSavp49SVvqseAZokuiAozAicl6Icpcy+wcnRB1MpSwN8TdMaU8dgjSQH2TnAA6EIOj16ojlvCqy9pcwYwProgKswEfD9BP0yZu4AVoguiVpYGbkvQGVPmdI89khTj0AQHgS5ku+iF6vitl7cmWENT5kfAuOiCqHH4PzlBP0yZas+c5aILolZWBO5O0BlT5j899khSnO8lOBBkz0v1K+s07bz6kjeneQKWdvg/JUE/TJk7gGWjC6JWVqof04jujCnzQ489khTr4gQHg+ypdqzXtKtukfXqS86cWD9frlxmBn6SoB+mzO3AMtEFUSvV3gz3JeiMKeOxR5ISuD3BASF7jotepI5efbknwdqZMid4ApZ2+P9pgn6YMjcDi0UXRK28HngoQWdMmeM99khSvOoWrBcSHBSyZ5/oherg1RdvvcyZ73gCllL1CqxzE/TDlLkReF10QdTKWsDDCTpjynzbY48k5bBMgoNCF7J+9EJ1yCrA/QnWzDTfyVK9U165zA5cmKAfpozDf3esAzySoDOmzLc89khSHlskODB0YQPAOaIXqiNW9epL2hwVXQ5Ndfj/ZYJ+mDJ/BhaKLoha2Qh4PEFnTBmPPZKUzF4JDg7Z87foRerQq/7uTLBepsxXosuhRnMClyTohynzJ2CB6IKolY2BJxJ0xpQ5MrockqTSJxMcILLnjOhF6oAJwK0J1sqUOTy6HJrq8O8bWHLG4b87NgMmJeiMKfP56HJIkpp9KcFBInscoF77neXewpwzh0aXQ43mBa5M0A9T5rfAPNEFUSubOvynjcceSUrs+AQHiux5f/QiJeePSDlzSHQxNNXh//cJ+mHKXA7MHV0QtbIt8EyCzpgyB0eXQ5L06n6S4GCRPVtGL1Lyk7CXEqyRGZpPRBdDjeYD/pCgH6bMpcBc0QVRK9sDzybojBmaKcDHo8shSXptbkD12lk2epGSmg34e4L1MUNPwA6MLoYaVbvJX5ugI6bMb+o9GZSfw3/eY88B0eWQJLVzQ4IDR+a8CIyPXqSkvPU/3wnYR6NLoUYLA9cl6Igpc379Y6byexvwXILOmPLY85HockiS2rs/wcEjc+6OXqCkVgSeT7A+5uVUj2HsF10KNVoUuClBR0yZnwOzRhdErewKTE7QGVMee/aJLockqb0ZPKC+Zq6OXqSk/iPB2phXTsDeF10ITfX1mN5llTMO/93xD8ALCTpjyjsk3xtdDknStJkjwQEkey6KXqSElvSHo1QnYHtHF0JT/ZzcmqAjpsyZPtrVGbs5/Kc99uwVXQ5J0vB2pI4+iGTPadGLlNA3E6yLefmkuDo5Vj5LuUFm2pzu8N8Z1St4fctMzmNPdVeGJKmjt6dGH0iy5xvRi5RMtVnW4wnWZdBTXX3ZI7oMarQ0cFuCjpgy/wmMiy6IWtnX4T9lqrv/3hVdDknS9N2iGn0wyZ7Doxcpmd0TrMmgp9p8cafoImiqm2Pek6Ajpsz3gZmiC6JWPuDwn/bY887ockiSps/yCQ4o2fPp6EVK5rwEazLoJ2DviC6BGq0E3JugI6bMd4EZowuiVvavXysX3RlTHnveHl0OSdL0Wy3BQSV7Ph69SInM6eZ/oanef71DdAnUaGXgvgQdMWWOd/jvjE8k6Isp47FHknpk7QQHluz5cPQiJbJdgvUY1DwNbBNdADVaFbg/QUdMmW/Xr7tVfv+coC+mjMceSeqZDRMcXLKn2ohILzsywXoM6gnYVtGLr0ZrAQ8n6Igp83WH/844KEFfTBmPPZLUQ5smOMBkj+9Yf8UVCdZj0DKp/pwqn3WARxJ0xJQ5Krocau1fE/TFlHkSeFN0OSRJI88fAF47e0UvUiKPJliPQRv+N49edDXayNdhps0Xosuh1hz+c6b6bntDdDkkSaN3Eht9oMmefaIXKYmFEqzFoJ2AVZ9P5bMx8ESCjpgyR0SXQ619MUFfTBmPPZI0ALewRh9ssudD0YuUxCYJ1mJQMhFYL3rBNdXPwZMJOmLKfC66HGql2pfhmAR9MWWqu/zWjS6IJGl0rZ7ggJM9/xS9SEnslGAtBmX4Xz96sTXVR6YmJeiIKfPZ6HKo9fB/bIK+mDL+8CxJA2KFBAed7Kl2J9bLmyFGr0Xf8xCwZvRCq9G2wDMJOmKGZgpwYHQ51Hr4/2aCzpgyDwJrRBdEkjQ2lkpw4Mmew6IXKYmPJFiLPscTsLy2B55N0BFTDv/V95LymxE4KUFnTJkH6rtBJUkD4nUJDj7ZU92uKPhEgrXoa+4DVo5eYDVy+M8Zh//umAn4QYLOmDL3AitFF0SSNLbmT3AAyp5Toxcpif0TrEUfcz+wavTiqtHbgOcSdMSUw7+bs3aDw3/e3AUsH10QSdLYmzPBQSh7zo9epCTek2At+pY7PQFLaxdgcoKOmKF5sd6PRN0Y/k9N0BnTfOxZLrogkqS4TXleSHAwypyrohcpibcnWIs+5TZg6ehFVaNd/V5MO/zvFV0OtTIzcFaCzpgyf6/3f5IkDbCHEhyQMuf26AVKYr0Ea9GnTi0TvaBqtGc9aEZ3xAzNC/UPM+rG8P/TBJ0xzccef3iWJHFjgoNS5kyub2UcdHPVz95Gr0fXczOwePRiqtH7gZcSdMSU38E7RZdDrcwC/CxBZ0zzsWex6IJIknK4LMGBKXuWiF6kJO5LsBZdzl+BRaMXUY32cfhPmeeBd0SXQ63MDlyYoDOmzE0eeyRJ/z9v1XvtvCl6kZLw5G74uR5YJHoB1Wg/h/+0w/+O0eVQK3MAv07QGVPmOmDh6IJIknL5boIDVPZUzwULPptgLbqYG4AJ0YunRh/00ZaUqV6/uEN0OdSKw3/eXAMsGF0QSVI+RyY4SGXP56IXKYk3JliLrsUTsLw+maAfpszTwFbR5VAr8wC/TdAZU+ZqYIHogkiScvrnBAeq7KneZSwYDzyZYD26kj8A80Uvmhr5vZczTwFbRpdDrcwLXJmgM6bM7+v1kSRpqjtfRx+ssucv0YuUyMkJ1qMLuQqYP3qx1OhzCfphylQ/Lm4SXQ61Mm89ZEZ3xpS5Apg7uiCSpNy2TXDA6sI7qKvXGwm2SbAe2XO5J2BpHZagH6bM48AbosuhVqq7mv6YoDOmzGX1K3slSXpVKyQ4aHUhr49eqCRmBO5OsB5Z4wlYXv+aoB+mzGPAhtHlUCvVbvLXJuiMKXOpxx5JUlsz+wqsVvFNAK84OMF6ZMyv6h2xlc8XE/TDlJkIrB9dDrUyoX6jSXRnTJmLgNmjCyJJ6hav6L52/i16kZLt/PxYgjXJlAuA2aIXRoUZgGMS9MOUecg7qzo1/F+foDOmzPkeeyRJw3F5goNYF3Z01yu+nGBNsuQ8T8DSDv/HJuiHKfMgsEZ0QdTKEsDfEnTGlDkXmDW6IJKkbvpBggNZFzYCnDN6oRKp3m3/SIJ1ic7P3CAy7fD/zQT9MGUeAFaPLohaWQr4e4LOmDI/rR/hlCRpWNwcq102j16oZPZJsCaROcfhP+1GlScl6Icpcz+wanRB1IrDf96cAYyPLogkqdv+McEBrQv5bPRCJbzKekWCdYmIJ2A5zQR8P0E/TJm7gOWjC6JWlgZuS9AZU+ZHHnskSSNhiwQHtS7kwuiFSmgV4KkEazOW+SEwLvoPr0K1Jqcl6IcpczuwTHRB1MpKwD0JOmPK/KD+kVOSpBF5njv6wNaFPOdr3hq9J8HajFVO9gQspWpNTk3QD1PmDof/Tv2ge1+Czpgy3/PYI0kaaR7022X76IVK6vgEazMWV/49Acun2gjrJwn6YcpUu8cvHl0QteLwnzffrfc2kSRpRF2Q4CDXhVSvFVPzEHZugvUZrZzoCVja3v00QT9Mmb8Ci0UXRK28HngoQWdMmerHdY89kqRRcVSCA10XUu2KrGazA5clWKORjsN/TrPUr2GM7ocpcxOwaHRB1MrawMMJOmPKHFdvtitJ0qjYO8HBritZOXqxEpsf+FOCNRqpfMvhP+2PTRcm6Icpcy2wcHRB1Mr6wMQEnTFlvubwL0kai6sA0Qe8ruRz0YuV3JzALxKs0/RkCnBY9B9SUx3+f5mgI6bMNfWmsspvPeDRBJ0xZb4SXQ5J0uDcTvtCggNfF/KX6MXqyCvZvp1grYaT5+s3Gyif6i0cv07QEVOmuvNngeiCqJWNgScSdMaUOSK6HJKkwXJDgoNfV7Jq9GJ1xF7AUwnWa1reV16dHCvnnSUXJ+iIKXNV/fiP8nsT8GSCzpgyDv+SpDH3gwQHwK7E28PbW7m+Nfi/kud0YN7oP5YaVetyZYKOmDJXAHNHF0StbApMStAZU+aQ6HJIkgbTBxMcBLv0fms36Jm2R0w+m/RugFuAHaP/QJqq+YA/JuiJKXMJMFd0QdTKm4FnEnTGlPlUdDkkSYNrzQQHwi5ls+gF66DF6jtNpiRYv+oZ2H+uf5xQ3uH/Dwm6YpqH/+qxDOW3PfBsgs6YoamOgwdGl0OSNNiq1509nuCg2JWcEr1gHbY8cEzQFakH60c4fGY5t4XqV8pFf85Nmd84/HeGw3/e4f9j0eWQJKlyfoIDY1dSnVQ5RE6fCcDBwPWjvFYvAhcAe3vFvxOq98hfl+AzbsqcB8wWXRC1shMwOUFnzNC8BHwguhySJP2PzyU4OHYpH41esB5ZHfg8cCnw3AiszSPAT+u9LaqryeqGRcbgByEzvJwLzBpdELWyq6/2TTv8vz+6HJIk/f+2SnCA7FJuqh+d0Miatd6xuvqB5dj6qmP1t74bmFjfPvl8/X/fVr9l4Azgy/XJ1Wpu0thJi9cbbEZ/rk2Zs4CZowuiVnav73qK7owZmhfrV+NKkpTKHF41mOa8LXrRpB5Ysn4jQ/Tn2ZSpflwbH10QtbKbx/C0w/+e0eWQJGlqrkpwsOxSLo5eMKnjlgFuT/BZNmVOA8ZFF0St/GN9i3l0Z0w5/O8RXQ5Jkl7NlxMcMLuWDaIXTeqopevHOKI/w6aMw3937OvwnzKT680YJUlKbbMEB82u5YfRiyZ10IrAPQk+v6bMSe5v0hkfqPdFie6MGZpqn5p3RJdDkqQ2qis+jyc4eHbtFr9VohdO6pCVgHsTfHZNmRMc/jtjf4f/lKneZLNjdDkkSZoWP0lwAO3i7bKSXtvKwH0JPrOmzHcc/jvjkwn6Yso8A2wTXQ5JkqbVfgkOol1LdRXm9dELJyVXfUYeSvB5NWWO8/WZnfHPCfpiyjwNbB1dDkmShvs+7ugDaRdT3TkhqdlawMMJPqemzFejy6HWDkrQF1PmKWDL6HJIkjQ9rk9wQO3iXQC+EUAqrQ9MTPAZNWWqN7+oGz6foC+mefjfPLockiRNr68mOKh2Mb/1NlppiHWBRxN8Nk2ZI6LLodb+NUFfTJlq0+SNosshSdJIeFOCA2tXs3v04klJbAw8keAzacocGl0OtVL9oPz1BH0xZR4DNowuiCRJI6XaCdp3dA8v1d9tjugFlIJtAjyZ4PNoyhwSXQ61Hv7/LUFfTJmJ9aNNkiT1iicew0/1rKY0qDYFJiX4HJoyn4kuh1oP//+eoC+mTPUmkzWjCyJJ0mh4Y4IDbVfzHLBK9AJKAbat34Ud/Rk05SalB0aXQ62H/28m6Iwp8yCwRnRBJEkazZOQOxIccLu8IWD1KIU0KLYDnk3w2TPl8P/R6HKolZmA7yXojCnzALBadEEkSRptX0tw0O1yPhi9gNIY2d7hP+3w/+Hocqj18P8fCTpjytwPrBpdEEmSxsJGCQ68XU61A/oS0YsojbK31Y+9RH/ezNC8BLwvuhxqPfz/IEFnTJm7gOWjCyJJ0ljxMYDpzy/qv6PUR7sAkxN8zszQvAjsGV0OtTIe+HGCzpgydwLLRRdEkqSx9uUEB+Gu5yPRiyiNgt2BFxJ8vszQVGuyW3Q51MrMwE8SdMaUuR1YJrogkiRFWLZ+jjT6YNzlVLdHvz56IaURVA2YDv85r/zvEV0OtR7+f5qgM6bMzcDi0QWRJCnSrxMckLueG4DZohdSGgHvr58vj/5MmaF5HtgpuhxqZRbgZwk6Y8r8FVg0uiCSJGW42hd9UO5Dqnc7S122n8N/2ruMdoguh1qZHbgwQWdMmZuA10UXRJKkLFcrHk5wcO5D3JVbXfUBh/+0w/+O0eVQ6+H/lwk6Y5rv0psQXRBJkjL5twQH6D6kelf6etGLKU2j/d0LJGWeBraJLodamcPH6dLmGmDB6IJIkpTNKgkO0n16tdBC0QsqtfSJBJ8Z0zz8bxVdDrUyD/DbBJ0xZf4ELBBdEEmSsroiwcG6L/kVMC56QaXX8C8JPiumzCRg0+hyqJV5gSsTdMaUuQqYP7ogkiRltleCA3afckL0gkqv4nMJPiOmzBPAxtHlUOvh//cJOmPKXA7MHV0QSZKyGw/cneDA3adUQ5aUzWEJPhumzOPARtHlUCvzAX9M0BlT5jJgruiCSJLUFd4SPLKpNlbzzQDK5F8TfC5MmceADaLLoVYWBq5L0BlT5hJgzuiCSJLUtasakxIcxPuUycCboxdWAr6a4PNgyjwCrB1dDrWyCPCXBJ0xZS4AZosuiCRJXXRMggN5H3f03iJ6YTWwZvBVn2nzELBmdEHUyoT6ffLRnTFlznP4lyRp+JYGXkhwQO/jjwCbRS+uBnL4PzZB/02ZB4E1oguiVpYAbknQGVPmF8Cs0QWRJKnrTk9wUO/rDt8bRi+uBmr4/2aC3psyDwCrRRdErSwJ3JqgM6bMOcAs0QWRJKkPNkxwYO/zZl/rRy+wem8m4HsJ+m7KVG9bWSG6IGplKeDvCTpjypxRv71IkiSNkIsTHOD7mieBLaMXWL1VXRE7M0HPTZk7geWiC6LWj8PdnqAzpsx/AuOiCyJJUt9skuAg3+c8D+wcvcjqnTnq3bCj+23K3AEsG10QtbIicE+CzpgyP3T4lyRp9FyY4GDf57wI7BO9yOqN+YHfJui1KVNdSV4muiBqZWXg3gSdMWVOBGaMLogkSX3mXgCjnynAp6MXWp1XXVm+KUGfTZmbgcWiC6JWVgHuS9AZU+Z4h39JksbGOQkO/IOQ03yVkYbpjfUr5aI7bMr8FVg0uiBqZS3g4QSdMWW+7fAvSdLYWbu+Sh19AjAIuQJYOHrB1Sm7Ac8m6K4pcyPwuuiCqPVx7pEEnTFlvlW/0lSSJI2hHyc4CRiU3Ob7wdVCdTXsyAR9Nc35M7BQdEnUyrrAowk6Y8p8NbockiQNqmogfSnBycCgZBKwe/SiK60FgfMS9NQ05+p6jZTfesDEBJ0xZaofOCVJUqDvJTghGMTnHt0XQP+/N/l6stT5AzBfdEnUysbAEwk6Y8ocEV0OSZIEiwCPJzgxGMSrictHL77CVc/AHgBMTtBJ05w/1q9iVDd+SHsyQWdMmUOjyyFJkl5xUIKTg0FM9cPLXtGLrzDVLvLnJ+ihmXouA+aOLopa2ax+zCq6M6bMwdHlkCRJQ81cv9M6+iRhUHOurxQbOLu4O3n6XArMFV0UtfJm4JkEnTFlPhNdDkmS1OztCU4UBjnVhlV7RJdAo656jvyUBH0zr55LgDmjy6JW3uIrM1NmSv14kyRJSuyiBCcNg57TfMd4b+0GPJCgY+bVcwEwW3RZ1MpbHf7TDv8fjS6HJEl6bau4GVmKPFXvyzBTdCE0IqrNHn3WvxupXsPoGzq64V0er9IO/x+KLockSWrv2AQnEOaVNwVsGF0IDdvswBeA5xN0ybx2zgZmiS6NWu+h4fCfLy8C740uhyRJmjbVjtd3JTiRMC/nJeD7wBLRxVBrMwLvAe5I0B/TLmfWm6Eqv38AXkjQGVMO/77VRpKkDm+qFH0yYYamuop8DDBvdDn0qrYC/pSgL6Z9TgfGRxdHrezu8J92+K9+9JQkSR12aoKTClOmenXcP7lJWTpr18+PR/fDTFuq77lx0eVRK/9Y3xEV3RkzNJPr/RgkSVLHLQA8mODkwjTnIeAwYJ7oogy4tesryFMSdMJMW37o8N8Z+zr8p70z7Z3R5ZAkSSNnjwQnGObV8wRwRP1+eY2dTYBzEqy/GV5OrPdqUOZa3iYAAB+xSURBVH4f9Ae2tMP/26PLIUmSRt7ZCU40zGtnEvAdYPXowvTYzPXu41ckWG8z/Bzv8N8ZH3f4T5nngB2iyyFJkkbHosBjCU44TPtcXg+qM0WXpycmAAcB9yRYWzN9+TYwQ3Sh1MonE/TFlHka2Ca6HJIkaXS9L8FJh5n2VK+hOxxYIbpAHVS9D35n4GfuOt6bHO3w3xkHJeiLaR7+qzedSJKkAfCjBCcfZvipblv/gHsFvKpqOHwDcBwwMcGamZHLV6LLpdYc/nPmKWCL6HJIkqSxU71//vYEJyFm+t/XXD0icACwWHSpEpip3tCv2kjxlgTrY0Y+R0aXTK19PkFfTJnH6x9HJUnSgNmkHiCjT0bMyKR6rdZvgU8D6w7QxmgLArsCJwEPJ1gHM3qpXpWpbvhCgr6Y5uF/o+hySJKkOF6h6W8eBc6oX7u1Ev0xF/Bm4Cjgat8nPjD5bHTx1PrRm6MT9MWUqTYA3iC6IJIkKdY4X4M2UD8InAscCrwFWIBu9HMNYB/gu8BfvGtlIPPP0UVU6+H/mAR9MWWqfVDWiy6IJEnKYen6tsDoExQz9rkP+CVwbL2p4KbAEgGvHJy7HvTfBRwC/Cdwbf1+6ui/kYnLlPrd8erG8P/vCTpjyjwIrBldEEmSlMtO9cl29ImKyZEX6tcOXgb8APg6cDDwIeDdwLb11aRqr4G1gWX/T1au/7MqbwJ2BN5bD3NfqN/ffg5wnT8+mamk+j76aPQXo1oP/99M0BlT5gFg9eiCSJKknNy0yRiTZfj/SPQXolqp7hb6XoLOmDL3A6tGF0SSJOVV7Rr/8wQnLcaYwR7+qztN1I3h/z8SdMaUuQtYProgkiQpv3l9f7oxJigv1o+KqBvD/w8SdMaUuRNYLrogkiSpO6rnt59IcBJjjBms4X+v6C8/tTIeODNBZ0yZO+p9WCRJkqbJO9wU0BgzhsP/e6K/9NTKzMBZCTpjytxev9VHkiRpWL6U4ITGGNPvTK5f/6huDP9nJ+iMKXMzsFh0QSRJUvc3BTwjwYmNMaafeR54Z/QXnVqZpX51Z3RnTJmbgEWjCyJJkvph1vpd8NEnOMaY/g3/O0Z/wamV2YGLEnTGlLkReF10QSRJUr/MX19hiD7RMcb0I88BO0R/san18P+rBJ0xZa4BFowuiCRJ6qdqY6H7E5zwGGO6naeBraO/0NTKHMCvE3TGlLkaWCC6IJIkqd/WASYlOPExxnR3+N8y+otMrcwD/DZBZ0yZq+o78yRJkkbdlvWzu9EnQMaYbuUpYIvoLzC1Mi9wZYLOmDJ/BOaLLogkSRos7wOmJDgRMsZ0I48Db4j+4lLr4f/3CTpjylwOzB1dEEmSNJj28UcAY0yLPAZsGP2FpVbmq68wR3fGlLkUmCu6IJIkabB9LMFJkTEm9/C/QfQXlVpZGLguQWdMmd8Ac0YXRJIkqfJPCU6OjDH5MhFYL/oLSq0sAvwlQWdMmfOB2aILIkmS9P/7ZIKTJGNMnjwIrBH9xaRWJgA3JOiMKXMuMGt0QSRJkpocluBkyRgTnweA1aO/kNTKEsAtCTpjyvwcmCW6IJIkSa/mSwlOmowxcbkHWCn6i0itLAncmqAzpswZwPjogkiSJLVxUIKTJ2PM2Oc2YPnoLyC1slS9XtGdMWV+5PAvSZK6Zn/gpQQnUsaYscn1wGLRXzxqZQXg7gSdMWVOA8ZFF0SSJGk4dgMmJzihMsaMbq4EFoj+wlErK9WPaUR3xpQ51eFfkiR13VbApAQnVsaY0duobPboLxq1sjJwb4LOmDLfBWaMLogkSdJI2AB4JMEJljFm5K9Y+qxyN6wC3JegM6bM8Q7/kiSpb1bztlNjepVvOrR0xlrAwwk6Y8ocB8wQXRBJkqTRsBxwY4ITLmPM8FNt7vkv0V8mam1t78BKm685/EuSpL6bCzgnwYmXMWba8xTwzugvEbW2LvBogt6YMkdFl0OSJGmszAQckeAEzBjTPtXmcetFf3motTcCTyTojSlTHf8kSZIGzn6+JtCYTuQaYInoLwy1tgnwZILemDIO/5IkaaBtDUxMcFJmjGnOGb7mr1Pe5PCfNodEl0OSJCmD5YGbEpycGWNeyZT6aqU7/XfHZsCkBN0xZT4bXQ5JkqRM5ndzQGPS5HFgp+gvBU2TNwPPJOiOKX9IOzC6HJIkSRlVr0M6wH0BjAnN1fVdOeqOtwDPJuiOKYf/j0WXQ5IkKbsNgNsTnLwZM2g52ef9O+etwHMJumPK4f/D0eWQJEnqigWB8xKcxBkzCKmeG98t+kOvabazd0ylHf73jy6HJElSFx8JOAh4McEJnTF9zY3AatEfdk2zXR3+U6Y6Xu0dXQ5JkqQu2wK4N8GJnTF9ywnAbNEfcE2zdwMvJOiPKYf/PaPLIUmS1AfzAN9JcIJnTB/yIPCO6A+1hmV3h/+0w/8e0eWQJEnq4zOvDyc42TOmqzm93mND3fOPwEsJOmSGpnoUw9dmSpIkjZKFgZ8kOOkzpkt5DNgv+sOrYdvX4T9lnvduGkmSpLGxC/BoghNAY7LnfGCx6A+shu2D9c7y0T0y5fC/Y3Q5JEmSBsmSwIUJTgSNyZjHgX2iP6SaLh9P0CNT5hlg2+hySJIkDaodgLsTnBQakyXnAEtEfzA1XT6VoEemzNPA1tHlkCRJGnTVmwKOqXdjjj5BNCYqtwBvjv4warodlKBLpsxTwJbR5ZAkSdIr1gJ+m+BE0ZixviX5MGCW6A+gppvDf97hf/PockiSJKk0A7CXrww0A5KfA8tEf+g0Ig5P0CfTvJ/GRtHlkCRJ0mu/MvC7PhZgepq/+QqyXvlCgk6Z5ldobhhdDkmSJLW3MnB6ghNJY0Yij9S3iXu7f3/uWDo6Qa9MmYnA+tEFkSRJ0vC8Abg8wUmlMcPdffyIesNL9Wf4PyZBt0yZh4A1owsiSZKk6T/h3qXeLT36BNOYNnmpvoNlqegPj0b8u+gbCfplyjwIrBFdEEmSJI2cmYED6hO96JNNY5oyBTgbWC36w6JRGf6/laBjpswDfuYkSZL6q3qOej/g7gQnnsb8zxX/c3z2uLdmAr6foGemzP3AqtEFkSRJ0tjcEbBXvbN69EmoGexb/R1A+j38n5yga6bMXcDy0QWRJEnS2Jqx3iPgxgQnpGYwMrkeCleMLr9Gffg/JUHfTJk7geWiCyJJkqTYHwL+AfhjgpNT0888CRwLLBlddo268cCZCTpnytwOLBNdEEmSJOWxLvAd4NkEJ6um+6neQHEQMF90sTVmjxedlaB3pkz1yNfi0QWRJElSTovUg5sbBprhPN9/Uf14SXUruAZn+D87Qf9Mmb8Ci0UXRJIkSd04qd+lHuiiT2JN/tv8q7tH3Nhv8MwGXJCgg6bMTcCi0QWRJElS97we+Hr97ujok1qT52r/L+u3SswRXVCFmN0fCNPmBmBCdEEkSZLUbdVt3VvXu7k/neAk18TcUnwYsGx0GRWq+tHnVwn6aMpcAywYXRBJkiT1yzz11d/qCuCUBCe9ZvTyWP2jT/XjzwzRxVOK4f/iBL00Zf4ELBBdEEmSJPVb9W7pTwJX1LeGR58Em+nPQ8AJwPbALNEFU6of/n6boJ+mzFXA/NEFkSRJ0mBZsL4z4Bzg+QQnxaZ97qw389sBGBddJKUzL3Blgp6aMpcDc0cXRJIkSYOtGhj2AM6obyOPPkk2QzOlfl74X4F1osui1OYD/pCgs6bMZcBc0QWRJEmS/u8GgusCB9X7Bjyb4MR5EHMfcDqwn+8HV0sLAX9O0F1T5hJgzuiCSJIkSW3eH15tKndE/eyqeweMTp6sf3A5qP4BRpoWCwPXJeixKXNB/T0qSZIkdU51C+smwAH1FeoHEpxgdy0v1O//Prm+wr8aMGP0wqqzFgH+kqDXpsx5Dv+SJEnqm6WBdwNH128YeCLBiXeWVHdM/B34EfDx+scTBwKNlAn1j0nRPTdlfgHMGl0QSZIkaaw2I9ukvsJ9TH17+4MJTspH+7n9i+p/7371v796F7s0GpYAbknQe1OmeruKr+WUJEnSwFsc2Ap4L3AocFI9NN/cgQ0H7693WP9xfbdD9RjEO4G1vdKnMbYkcGuCz4QpU71NZXx0QSRJkqSuPM+8PvA2YM96yP488O/AqfUztb+vr3xWt9Y/AkwEHm9xYv5c/d+tck/9v682TvsN8BPgu8BXgH+pr+DvDGwOrOiAr2SP3NyWYNA1ZapHfcZFF0SSJEkaJOPrRxCqzB39/4w0glYA7k4w6Joypzn8S5IkSZJGwkr1nSvRg64pc6Jv8pAkSZIkjYSVgXsTDLqmzPEO/5IkSZKkkbBKvQFl9KBrynzb4V+SJEmSNBLWAh5OMOiaMt8CZoguiCRJkiSp+9ap33IRPeiaMl+NLockSZIkqR/WBR5NMOiaMkdGl0OSJEmS1A9vBJ5IMOiaMkdEl0OSJEmS1A+bAE8mGHRNmUOjyyFJkiRJ6odNgUkJBl1T5uDockiSJEmS+mEzh/+0+Ux0OSRJkiRJ/bAd8EyCQdcMzRTggOhySJIkSZL64S3AswmGXVMO/x+NLockSZIkqR/eCjyXYNg15fD/oehySJIkSZL6YWdgcoJh1wzNS8D7osshSZIkSeqHXYEXEgy7ZmheBPaOLockSZIkqR/e7fCfdvh/T3Q5JEmSJEn9sHs9aEYPu2ZoXqjXRpIkSZKk6bZP/Xx59LBrhuZ54J3R5ZAkSZIk9cN+Dv9ph/+3R5dDkiRJktQPH6xfKxc97JqhqV6/uEN0OSRJkiRJ/fDxBIOuKfM0sE10OSRJkiRJ/fCpBIOuaR7+t4ouhyRJkiSpHw5KMOiaMk8BW0SXQ5IkSZLUD4clGHRNmceBN0SXQ5IkSZLUD4cnGHRN8/C/UXQ5JEmSJEn98MUEg64p8xiwQXQ5JEmSJEndNwNwdIJB15SZCKwXXRBJkiRJUj+G/2MTDLqmzIPAmtEFkSRJkiT1Y/j/RoJB15R5AFg9uiCSJEmSpO6bETgpwaBrytwPrBZdEEmSJElS980EfD/BoGvK3AUsH10QSZIkSVI/hv+TEwy6psydwHLRBZEkSZIk9WP4PyXBoGvK3AEsG10QSZIkSVL3zQycmWDQNWVuB5aOLogkSZIkqR/D/1kJBl1T5mZgseiCSJIkSZK6bxbg7ASDrilzE7BodEEkSZIkSd03G3BhgkHXlLkReF10QSRJkiRJ3Tc7cFGCQdeUuQZYMLogkiRJkqTumwP4VYJB15S5GlgguiCSJEmSpH4M/xcnGHRNmauA+aMLIkmSJEnqvnmA3yUYdE2ZPwLzRRdEkiRJktR98wJXJhh0TZnLgbmjCyJJkiRJ6r7qyvIfEgy6psylwFzRBZEkSZIkdd9CwLUJBl1T5jfAnNEFkSRJkiR138LAdQkGXVPmfGC26IJIkiRJkrpvEeD6BIOuKXMuMGt0QSRJkiRJ3TcBuCHBoGvK/ByYJbogkiRJkqTuWwK4JcGga8qcAYyPLogkSZIkqfuWAm5NMOiaMj9y+JckSZIkjYSlgdsSDLqmzGnAuOiCSJIkSZK6b0Xg7gSDrilzqsO/JEmSJGkkrATcm2DQNWW+C8wYXRBJkiRJUvetDNyXYNA1ZY53+JckSZIkjYRVgfsTDLqmzHHADNEFkSRJkiR131rAwwkGXVPmaw7/kiRJkqSRsA7wSIJB15Q5KrockiRJkqR+WBd4NMGga8ocEV0OSZIkSVI/bAw8kWDQNQ7/kiRJkqRRsgnwZIJB15T5XHQ5JEmSJEn9sCkwKcGga8p8NrockiRJkqR+2BZ4JsGga4ZmCnBgdDkkSZIkSf2wHfBsgmHXlMP/x6LLIUmSJEnqh+0d/tMO/x+OLockSZIkqR/eBjyXYNg15fC/f3Q5JEmSJEn9sDMwOcGwa4bmRWDv6HJIkiRJkvphN+CFBMOuGZpqTXaPLockSZIkqT9X/h3+c1753yO6HJIkSZKkftjJ2/5TZnK9NpIkSZIkTbcdHf5T5rl6bSRJkiRJmm4bAE8nGHbN0Dzv8C9JkiRJGinLAw8lGHbN0DwDbBtdDkmSJElSP0wAbksw7Jqhqe7G2DK6HJIkSZKkfhgPXJJg2DVD85TDvyRJkiRpJH07wbBryuF/8+hiSJIkSZL6Y+8Ew64ZmseBjaKLIUmSJEnqj9XrDeaiB17zSh4DNowuhiRJkiSpP2YFrksw8JpXMhFYP7oYkiRJkqR+OS7BwGteSfX6xTWjSyFJkiRJ6pe3Jhh4zSt5AFgtuhSSJEmSpH6ZG7grwdBrHP4lSZIkSaPIV/7lyf3AqtGFkCRJkiT1z6bAlASDr4E7geWiCyFJkiRJ6p+ZgGsTDL7G4V+SJEmSNIo+nGDwNXA7sEx0GSRJkiRJ/TQf8HCC4XfQ8zdg8egySJIkSZL662sJht9Bz03AotFFkCRJkiT11+uAZxIMwIMch39JkiRJ0qj7ZoIBeJBzIzAhugSSJEmSpH5bCng+wRA8qLkaWCC6BJIkSZKk/vv3BEPwoOZPDv+SJEmSpLHa+X9SgkF4EHMVMH90ASRJkiRJg+EzCQbhQczlwNzRiy9JkiRJGgwzA/clGIYHLZcAc0YvviRJkiRpcOycYBgetDj8S5IkSZLG3AUJBuJBSvX3ni160SVJkiRJg2UZ4KUEQ/Gg5DyHf0mSJElShM8nGIoHJT8DZolecEmSJEnSYLopwWA8CDnH4V+SJEmSFGWtBIPxIOQMYHz0YkuSJEmSBteXEgzHfc+PgHHRCy1JkiRJGmze/j+6ORmYKXqRJUmSJEmDbZkEA3KfcyIwY/QiS5IkSZL0oQRDcl9zvMO/JEmSJCmLnyUYlPuYbzv8S5IkSZKyqJ5LfzLBsNy3/BswQ/TiSpIkSZL0P9ZJMCz3LV+NXlRJkiRJkv6vjyQYmPuUI6MXVJIkSZKkJj9MMDT3JUdEL6YkSZIkSVNzS4LBuQ85OHohJUmSJEmamjmAlxIMz12Pw78kSZIkKbWNEgzPXc9nohdRkiRJkqTXsl+CAbqrmQIcEL2AkiRJkiS18fUEg3RXh//9oxdPkiRJkqS2zkowTHdx+P9Q9MJJkiRJkjQtrkkwUHcp1YaJ74teNEmSJEmSptVjCYbqruRFYO/oBZMkSZIkaVrNlWCo7lL2jV4wSZIkSZKGY5kEQ3VX8tXoxZIkSZIkabjWTzBYdyF/B2aOXixJkiRJkoZruwTDdReyS/RCSZIkSZI0Pd6dYLjOngeAGaMXSpIkSZKk6fHeBAN29hwfvUiSJEmSJE2vfRMM2Nnja/8kSZIkSZ33kQQDdvZsHb1IkiRJkiRNrwMTDNjZs070IkmSJEmSNL0+mmDAzp5tohdJkiRJkqTptV+CATt73ANAkiRJktR5vgXgtXNC9CJJkiRJkjS9dkswYGfPA8CM0QslSZIkSdL02C7BgN2F7BK9UJIkSZIkTY/1EwzXXcjfgZmjF0uSJEmS9P/au9NQTesyDODXjKMzgzaluJFho4VlkuJglJVmlpgplGWZEEoouZCOhCEttFiQNYnUB61BI6G0lSxLpLAiLVopTVs0FXJDHfdt3KZ4mSPT8XWZGc859//9P78fXF8HznPfX6573vd9wkbauYFyPSlZUT0sAAAA2FhLGijWk5SjqwcGAAAAG+ueBor1pOTxJEdWDwwAAAA2xl8bKNaTdgQYvT4RAAAAJsqFDZTqScuaJCdUDw4AAAA2xJkNFOpJPQIcWz08AAAAWF/HNlCmJ/kIcFL1AAEAAGB97N1AkZ70I8DJ1UMEAACA57LFVImtLtKTno9XDxIAAACey3UNFOge8tHqQQIAAMCzuaCB8txLTq8eJgAAADyTExsozj3FEQAAAIAmLWugNPeWFdVDBQAAgKdakOT+BkpzbzmjerAAAADwVD9poDD3mLOTzKseLgAAADzJ7wDMXlYmmV89YAAAABjZuYGi3HPOcQQAAACgFdc0UJR7ztcdAQAAAGjB6Q2U5N5zwdSPLgIAAEAZrwOcm3wnyabVwwYAAGDYfA1gbvI9RwAAAAAqfa6BcjyU/DDJZtUDBwAAYLhvA1jTQDkeSi5Osqh66AAAAAzTpQ0U4yHlkiSLq4cOAADA8LyvgVI8tPwqyRbVgwcAAGBYFia5rYFSPLSMPnmxefXwAQAAGJZPNlCIh5jLkrygevgAAAAMx1ZJHmigEA8xv0mypHoBAAAAGI6zGyjDQ82fpo4wAAAAMCevBHy0gTI81PwxyZbVSwAAAMAwrGygCA85f0mydfUSAAAA0L8dk6xuoAgPOX9Psn31IgAAANC/rzRQgoeeq5JsV70IAAAA9G30Y3SrGijBQ88/k+xQvQwAAAD0bXkDBViSa5K8pHoZAAAA6NeCJH9roABLckOSnaoXAgAAgH69JcmaBgqwJNcnWVq9EAAAAPTr3AbKr6zNf5K8vHohAAAA6NMLk9zUQPmVtbk1yauqlwIAAIA+HdpA8ZV1uTnJK6uXAgAAgD75KkBbuS3Jq6uXAgAAgP5sPvVe+uriK+tye5LdqxcDAACA/ixL8kgDxVfW5a4kr6leDAAAAPrzoQZKr0zP3UleW70YAAAA9OecBkqvTM89SV5XvRgAAAD0ZVGS3zdQemV6HkiyX/VyAAAA0JcdktzYQOmV6bkvyb7VywEAAEBfdpv6Ebrq0ivT82CSt1YvBwAAAH15U5LVDZRemZ6HkhxQvRwAAAD05b1JHm+g9Mr0PJzkbdXLAQAAQF8cAdrMI0neUb0cAAAA9OWoJE80UHpl/AhwaPVyAAAA0JdjHAGazKNJDqteDgAAAPpyRJLHGii9Mj2jr2i8v3o5AAAA6MvhjgDNHgFGX9UAAACAGfOeqY+eV5demZ7RVzQ+UL0cAAAA9OWQJKsbKL0yPWuSnFC9HAAAAPTl4Kl30leXXhk/ApxYvRwAAAD05SBHgGaPAMurlwMAAIC+HJjkoQZKr4znY9XLAQAAQF/2TXJ/A4VXxvOJ6uUAAACgL/skua+Bwivj+VT1cgAAANCXNyS5t4HCK+M5vXo5AAAA6MteSe5soPDKeL5QvRwAAAD0ZVmSVQ0UXhnPl6qXAwAAgL7smeSOBgqvjOesJPOqFwQAAIB+7JHk9gYKr4znq0nmVy8IAAAA/dg1yS0NFF4Zz0pHAAAAAGbSK5Lc3EDhlfGc6wgAAADATNolyY0NFF4Zz/lJFlQvCAAAAP1YmuT6BgqvjOfbjgAAAADMpJcmua6Bwivj+W6STasXBAAAgH7smOTaBgqvjOeiJAurFwQAAIB+bJ/k6gYKr4znp0kWVS8IAAAA/dguyVUNFF4Zz8WOAAAAAMykbZNc2UDhlfFckmRx9YIAAADQ1xHgigYKr4zn544AAAAAzKQtk/yhgcIr4/lZks2qFwQAAIB+vCjJ7xoovDKebyWZX70gAAAA9MMRoN18sXo5AAAA6MvmSX7ZQOGV6VmT5NDq5QAAAKC/I8ClDZRemZ67k+xcvRwAAAD0dwT4RQOlV6bn10nmVS8HAAAAfVk89Sv01aVXpueo6sUAAACgPwuT/KiB0ivrsirJ1tWLAQAAQJ9HgB83UHxlXVZULwUAAAB92jTJDxoovrI2DyTZpnopAAAA6NMmSb7ZQPmVtTmteiEAAADo14Ik5zdQfiW5a+rrGQAAADBrnwT4RgMFWJJ3Vy8DAAAAfRu9i/6sBgrw0HNh9SIAAADQv/lJvtZACR5yHk2yZfUiAAAAMIxPAny5gSI85LyzegkAAAAYzhHgzAaK8FAzOsAAAADAnFnRQBkeYq6sHjwAAADD85kGCvHQ8kSSRdWDBwAAYHhObaAUDy27VQ8dAACAYXIEmNu8q3rgAAAADJcjwNzllOphAwAAMGwfTrKmgYLce06rHjQAAAAc5wgw6xm9hhEAAADKHe8IMKs5t3rAAAAA8KSjp15ZV12We8zK6uECAADA/zsiyWMNFObeckb1YAEAAOCpDncEmPF8unqoAAAA8HQcAWY2y6sHCgAAAM/kkCSrGyjPPeSg6mECAADAszk4ycMNFOhJz8uqBwkAAADrcwTwSYCNz+jZbVI9RAAAAFgfByZ5qIEyPYm5vHp4AAAAsCH2TXJ/A4V60vLZ6sEBAADAhtonyX0NlOpJyv7VQwMAAICN8UZHgPXOvUkWVQ8MAAAANtZeSe5soGC3nnOrBwUAAADP17Ikqxoo2S1nv+ohAQAAwEwdAXwS4OlzfZL51QMCAACAmbJHktsbKNyt5fjqwQAAAMBM2zXJLQ2U7lZya5LF1UMBAACA2eAIsC4nVw8DAAAAZtMuSW5soIBX5l9JFlYPAgAAAGbb0qkfwPvvQLN/9QAAAABgruyU5IYGyvhc57zqBw8AAABzbcck1zZQyucqo791SfVDBwAAgArbJ7m6gXI+23k4yZ7VDxsAAAAqvTjJPxoo6bOVNUmOrH7IAAAA0IJtk1zZQFmfjXyk+uECAABAS7ZJckUDhX0m8/nqhwoAAAAt2irJZQ0U95nIaUnmVT9QAAAAaNXCJBc0UOA3No8nOa76IQIAAMAkmD/18fk1DRT6DckdSQ6sfngAAAAwafZPclMDxX59cmmSHaofGAAAAEzyjwN+v4GC/0x5cOqX/kefWgAAAACepzc3+JaAi5IsrX4wAAAA0JsFSY5N8u/C0j/6XYJLkry++mEAAABA7zZJcliS385h8V+d5Lwku1f/8QAAADBEo4/gL0/y51l6pd/lU//+1tV/KAAAALDWTkmOTHJOkquTPLKBhf/uqcI/egXh25Msqf6DAAAAgPX7qsDoKHBAkiOSfDDJKUlOTXJSkmOmvkqwt//hBwAAAAAAAAAAIOvlf+sFrbzJwpdKAAAAAElFTkSuQmCC;" vertex="1" parent="1">
          <mxGeometry x="-143" y="240" width="46" height="46" as="geometry" />
        </mxCell>
      </root>
    </mxGraphModel>
  </diagram>
</mxfile>
